M48
;Layer_Color=9474304
;FILE_FORMAT=2:5
INCH,LZ
;TYPE=PLATED
T1F00S00C0.02000
T2F00S00C0.02800
T3F00S00C0.04000
T4F00S00C0.06500
T5F00S00C0.07283
T6F00S00C0.08500
T7F00S00C0.13386
;TYPE=NON_PLATED
T8F00S00C0.12598
T9F00S00C0.20472
%
T01
X0188Y0415
X0202
T02
X0109Y0135
Y0146
X0193Y0114
X0099Y0225
X0112Y0325
X0189
T03
X0230067Y0165079
Y0174921
Y0202579
Y0212421
Y0237579
Y0247421
Y0272579
Y0282421
X0069933
Y0272579
Y0247421
Y0237579
Y0212421
Y0202579
Y0174921
Y0165079
X01308Y0385
X01372
X01436
X015
X01564
X01628
X01692
X0164764Y0411067
X0154921
X0145079
X0135236
T04
X015Y0175
X018
X012
T05
X0013445Y0038445
X0036555
Y0061555
X0013445
Y0088445
X0036555
Y0111555
X0013445
Y0138445
X0036555
X0067539Y0052461
X0085
X0102461
Y0035
Y0017539
X0085
X0067539
Y0035
X0197539
Y0052461
X0215
X0232461
Y0035
Y0017539
X0215
X0197539
X0263445Y0038445
Y0061555
Y0088445
Y0111555
Y0138445
X0286555
Y0111555
Y0088445
Y0061555
Y0038445
Y0161555
Y0188445
Y0211555
Y0238445
Y0261555
Y0288445
X0263445
Y0261555
Y0238445
Y0211555
Y0188445
Y0161555
X0036555
X0013445
Y0188445
X0036555
Y0211555
X0013445
Y0238445
X0036555
Y0261555
X0013445
Y0288445
X0036555
Y0311555
X0013445
Y0338445
X0036555
Y0361555
X0013445
Y0388445
X0036555
Y0411555
X0013445
X0263445
Y0388445
Y0361555
Y0338445
Y0311555
X0286555
Y0338445
Y0361555
Y0388445
Y0411555
T06
X0105Y0375
X012
X018
X0195
T07
X0025Y0015
X0275
X007Y041
X023
T08
X0025Y005
Y01
Y015
X0275
Y01
Y005
Y02
Y025
Y03
X0025
Y025
Y02
Y035
Y04
X0275
Y035
T09
X0085Y0035
X0215
M30
