G04*
G04 #@! TF.GenerationSoftware,Altium Limited,Altium Designer,21.0.9 (235)*
G04*
G04 Layer_Color=8388736*
%FSLAX25Y25*%
%MOIN*%
G70*
G04*
G04 #@! TF.SameCoordinates,AEBDD87C-346D-489B-AC81-7B0397BDD38F*
G04*
G04*
G04 #@! TF.FilePolarity,Negative*
G04*
G01*
G75*
%ADD14R,0.04737X0.12020*%
%ADD15R,0.41351X0.38202*%
%ADD16R,0.06115X0.05328*%
%ADD17R,0.05328X0.06509*%
%ADD18R,0.33871X0.11233*%
%ADD19R,0.18320X0.09658*%
%ADD20R,0.07690X0.22060*%
%ADD21R,0.03162X0.04343*%
%ADD22R,0.05328X0.06115*%
%ADD23R,0.09461X0.13398*%
%ADD24C,0.06300*%
%ADD25C,0.13800*%
%ADD26C,0.11800*%
%ADD27C,0.07000*%
%ADD28R,0.07000X0.07000*%
%ADD29C,0.13398*%
%ADD30R,0.07000X0.07000*%
%ADD31C,0.21272*%
%ADD32C,0.22453*%
%ADD33C,0.05800*%
D14*
X161000Y121268D02*
D03*
X141000D02*
D03*
D15*
X151000Y88000D02*
D03*
D16*
X202000Y408445D02*
D03*
Y401555D02*
D03*
X188000Y408445D02*
D03*
Y401555D02*
D03*
D17*
X153445Y375000D02*
D03*
X146555D02*
D03*
D18*
X179035Y225000D02*
D03*
X120965D02*
D03*
D19*
X237224Y325000D02*
D03*
X202776D02*
D03*
X62776D02*
D03*
X97224D02*
D03*
X62776Y125000D02*
D03*
X97224D02*
D03*
X237224D02*
D03*
X202776D02*
D03*
D20*
X140941Y146000D02*
D03*
X121059D02*
D03*
D21*
X178260Y120472D02*
D03*
X185740D02*
D03*
X182000Y129528D02*
D03*
D22*
X185445Y112000D02*
D03*
X178555D02*
D03*
D23*
X167224Y30000D02*
D03*
X132776D02*
D03*
D24*
X169200Y385000D02*
D03*
X130800D02*
D03*
X137200D02*
D03*
X143600D02*
D03*
X162800D02*
D03*
X156400D02*
D03*
X150000D02*
D03*
D25*
X195000Y375000D02*
D03*
X180000D02*
D03*
X120000D02*
D03*
X105000D02*
D03*
D26*
X120000Y175000D02*
D03*
X180000D02*
D03*
X150000D02*
D03*
D27*
X69933Y202579D02*
D03*
X135236Y411067D02*
D03*
X145079D02*
D03*
X154921D02*
D03*
X69933Y165079D02*
D03*
Y237579D02*
D03*
Y272579D02*
D03*
X230067Y282421D02*
D03*
Y247421D02*
D03*
Y212421D02*
D03*
Y174921D02*
D03*
D28*
X69933Y212421D02*
D03*
Y174921D02*
D03*
Y247421D02*
D03*
Y282421D02*
D03*
X230067Y272579D02*
D03*
Y237579D02*
D03*
Y202579D02*
D03*
Y165079D02*
D03*
D29*
X25000Y400000D02*
D03*
X36555Y388445D02*
D03*
X13445D02*
D03*
X36555Y411555D02*
D03*
X13445D02*
D03*
X25000Y350000D02*
D03*
X36555Y338445D02*
D03*
X13445D02*
D03*
X36555Y361555D02*
D03*
X13445D02*
D03*
X25000Y300000D02*
D03*
X36555Y288445D02*
D03*
X13445D02*
D03*
X36555Y311555D02*
D03*
X13445D02*
D03*
X25000Y250000D02*
D03*
X36555Y238445D02*
D03*
X13445D02*
D03*
X36555Y261555D02*
D03*
X13445D02*
D03*
X25000Y200000D02*
D03*
X36555Y188445D02*
D03*
X13445D02*
D03*
X36555Y211555D02*
D03*
X13445D02*
D03*
X25000Y150000D02*
D03*
X36555Y138445D02*
D03*
X13445D02*
D03*
X36555Y161555D02*
D03*
X13445D02*
D03*
X25000Y100000D02*
D03*
X36555Y88445D02*
D03*
X13445D02*
D03*
X36555Y111555D02*
D03*
X13445D02*
D03*
X25000Y50000D02*
D03*
X36555Y38445D02*
D03*
X13445D02*
D03*
X36555Y61555D02*
D03*
X13445D02*
D03*
X275000Y400000D02*
D03*
X286555Y388445D02*
D03*
X263445D02*
D03*
X286555Y411555D02*
D03*
X263445D02*
D03*
X275000Y350000D02*
D03*
X286555Y338445D02*
D03*
X263445D02*
D03*
X286555Y361555D02*
D03*
X263445D02*
D03*
X275000Y300000D02*
D03*
X286555Y288445D02*
D03*
X263445D02*
D03*
X286555Y311555D02*
D03*
X263445D02*
D03*
X275000Y250000D02*
D03*
X286555Y238445D02*
D03*
X263445D02*
D03*
X286555Y261555D02*
D03*
X263445D02*
D03*
X275000Y200000D02*
D03*
X286555Y188445D02*
D03*
X263445D02*
D03*
X286555Y211555D02*
D03*
X263445D02*
D03*
X275000Y150000D02*
D03*
X286555Y138445D02*
D03*
X263445D02*
D03*
X286555Y161555D02*
D03*
X263445D02*
D03*
X275000Y100000D02*
D03*
X286555Y88445D02*
D03*
X263445D02*
D03*
X286555Y111555D02*
D03*
X263445D02*
D03*
X275000Y50000D02*
D03*
X286555Y38445D02*
D03*
X263445D02*
D03*
X286555Y61555D02*
D03*
X263445D02*
D03*
X197539Y52461D02*
D03*
X215000D02*
D03*
X232461D02*
D03*
Y35000D02*
D03*
X197539D02*
D03*
Y17539D02*
D03*
X215000D02*
D03*
X232461D02*
D03*
X67539Y52461D02*
D03*
X85000D02*
D03*
X102461D02*
D03*
Y35000D02*
D03*
X67539D02*
D03*
Y17539D02*
D03*
X85000D02*
D03*
X102461D02*
D03*
D30*
X164764Y411067D02*
D03*
D31*
X215000Y35000D02*
D03*
X85000D02*
D03*
D32*
X25000Y15000D02*
D03*
X230000Y410000D02*
D03*
X70000D02*
D03*
X275000Y15000D02*
D03*
D33*
X202000Y415000D02*
D03*
X188000D02*
D03*
X189000Y325000D02*
D03*
X112000D02*
D03*
X99000Y225000D02*
D03*
X109000Y135000D02*
D03*
X193000Y114000D02*
D03*
X109000Y146000D02*
D03*
M02*
