G04*
G04 #@! TF.GenerationSoftware,Altium Limited,Altium Designer,21.0.9 (235)*
G04*
G04 Layer_Color=32896*
%FSLAX25Y25*%
%MOIN*%
G70*
G04*
G04 #@! TF.SameCoordinates,6F39AFBD-07E5-490C-8025-D805D4D42E4F*
G04*
G04*
G04 #@! TF.FilePolarity,Positive*
G04*
G01*
G75*
%ADD45C,0.01000*%
G36*
X146639Y154606D02*
X146766Y154595D01*
X146883Y154578D01*
X146994Y154550D01*
X147099Y154523D01*
X147194Y154489D01*
X147282Y154456D01*
X147360Y154423D01*
X147432Y154384D01*
X147493Y154350D01*
X147549Y154317D01*
X147593Y154289D01*
X147626Y154262D01*
X147649Y154245D01*
X147665Y154234D01*
X147671Y154228D01*
X147748Y154156D01*
X147815Y154073D01*
X147876Y153990D01*
X147932Y153895D01*
X147976Y153806D01*
X148020Y153718D01*
X148054Y153623D01*
X148082Y153540D01*
X148109Y153457D01*
X148126Y153379D01*
X148143Y153307D01*
X148154Y153246D01*
X148159Y153196D01*
X148165Y153163D01*
X148170Y153140D01*
Y153129D01*
X147527Y153063D01*
X147521Y153152D01*
X147515Y153235D01*
X147482Y153379D01*
X147438Y153512D01*
X147415Y153568D01*
X147388Y153618D01*
X147365Y153662D01*
X147338Y153701D01*
X147316Y153734D01*
X147299Y153762D01*
X147277Y153784D01*
X147266Y153801D01*
X147260Y153806D01*
X147255Y153812D01*
X147199Y153862D01*
X147143Y153906D01*
X147082Y153940D01*
X147021Y153973D01*
X146899Y154023D01*
X146783Y154056D01*
X146683Y154073D01*
X146639Y154084D01*
X146600D01*
X146566Y154090D01*
X146444D01*
X146367Y154078D01*
X146228Y154051D01*
X146111Y154006D01*
X146006Y153962D01*
X145928Y153912D01*
X145895Y153890D01*
X145867Y153868D01*
X145845Y153851D01*
X145828Y153840D01*
X145823Y153834D01*
X145817Y153829D01*
X145767Y153779D01*
X145728Y153729D01*
X145689Y153679D01*
X145662Y153623D01*
X145612Y153518D01*
X145578Y153418D01*
X145562Y153335D01*
X145551Y153296D01*
Y153263D01*
X145545Y153240D01*
Y153218D01*
Y153207D01*
Y153202D01*
X145551Y153135D01*
X145556Y153068D01*
X145589Y152935D01*
X145640Y152807D01*
X145695Y152691D01*
X145750Y152591D01*
X145773Y152552D01*
X145800Y152513D01*
X145817Y152486D01*
X145834Y152463D01*
X145839Y152452D01*
X145845Y152447D01*
X145906Y152369D01*
X145978Y152286D01*
X146061Y152197D01*
X146150Y152108D01*
X146333Y151925D01*
X146522Y151753D01*
X146611Y151670D01*
X146700Y151598D01*
X146777Y151531D01*
X146844Y151476D01*
X146899Y151426D01*
X146938Y151392D01*
X146966Y151365D01*
X146977Y151359D01*
X147077Y151276D01*
X147166Y151198D01*
X147255Y151126D01*
X147332Y151054D01*
X147410Y150987D01*
X147476Y150920D01*
X147538Y150865D01*
X147593Y150810D01*
X147643Y150760D01*
X147682Y150715D01*
X147721Y150676D01*
X147748Y150649D01*
X147776Y150621D01*
X147793Y150604D01*
X147798Y150593D01*
X147804Y150587D01*
X147904Y150465D01*
X147987Y150343D01*
X148059Y150227D01*
X148115Y150121D01*
X148159Y150032D01*
X148176Y149994D01*
X148193Y149966D01*
X148204Y149938D01*
X148209Y149922D01*
X148215Y149910D01*
Y149905D01*
X148242Y149827D01*
X148259Y149750D01*
X148276Y149677D01*
X148281Y149611D01*
X148287Y149555D01*
Y149511D01*
Y149483D01*
Y149472D01*
X144896D01*
Y150077D01*
X147421D01*
X147332Y150199D01*
X147288Y150254D01*
X147243Y150304D01*
X147205Y150349D01*
X147177Y150382D01*
X147155Y150404D01*
X147149Y150410D01*
X147116Y150443D01*
X147071Y150488D01*
X147021Y150532D01*
X146966Y150582D01*
X146849Y150693D01*
X146727Y150798D01*
X146611Y150898D01*
X146561Y150943D01*
X146511Y150982D01*
X146477Y151015D01*
X146444Y151037D01*
X146428Y151054D01*
X146422Y151059D01*
X146300Y151165D01*
X146183Y151265D01*
X146078Y151353D01*
X145984Y151442D01*
X145895Y151520D01*
X145817Y151598D01*
X145745Y151664D01*
X145678Y151725D01*
X145623Y151775D01*
X145578Y151825D01*
X145540Y151864D01*
X145506Y151897D01*
X145484Y151925D01*
X145462Y151942D01*
X145456Y151953D01*
X145451Y151958D01*
X145345Y152081D01*
X145262Y152191D01*
X145190Y152297D01*
X145129Y152391D01*
X145085Y152469D01*
X145051Y152530D01*
X145040Y152552D01*
X145035Y152569D01*
X145029Y152574D01*
Y152580D01*
X144985Y152691D01*
X144957Y152802D01*
X144935Y152902D01*
X144918Y152996D01*
X144907Y153074D01*
X144901Y153135D01*
Y153157D01*
Y153174D01*
Y153179D01*
Y153185D01*
X144907Y153296D01*
X144918Y153401D01*
X144940Y153501D01*
X144968Y153601D01*
X145001Y153690D01*
X145040Y153773D01*
X145079Y153851D01*
X145118Y153918D01*
X145157Y153984D01*
X145195Y154040D01*
X145234Y154090D01*
X145268Y154128D01*
X145295Y154156D01*
X145318Y154184D01*
X145329Y154195D01*
X145334Y154201D01*
X145417Y154273D01*
X145506Y154334D01*
X145601Y154389D01*
X145701Y154439D01*
X145795Y154478D01*
X145895Y154511D01*
X145989Y154539D01*
X146083Y154561D01*
X146167Y154578D01*
X146250Y154589D01*
X146322Y154600D01*
X146383Y154606D01*
X146433Y154611D01*
X146505D01*
X146639Y154606D01*
D02*
G37*
G36*
X153104Y151637D02*
Y151487D01*
X153093Y151348D01*
X153088Y151215D01*
X153071Y151093D01*
X153060Y150976D01*
X153043Y150871D01*
X153026Y150776D01*
X153004Y150687D01*
X152988Y150610D01*
X152971Y150543D01*
X152954Y150482D01*
X152938Y150438D01*
X152927Y150399D01*
X152916Y150371D01*
X152910Y150354D01*
Y150349D01*
X152871Y150266D01*
X152827Y150182D01*
X152727Y150038D01*
X152621Y149916D01*
X152510Y149816D01*
X152460Y149772D01*
X152416Y149738D01*
X152372Y149705D01*
X152333Y149677D01*
X152305Y149661D01*
X152283Y149644D01*
X152266Y149638D01*
X152261Y149633D01*
X152172Y149589D01*
X152077Y149555D01*
X151883Y149494D01*
X151683Y149450D01*
X151495Y149422D01*
X151411Y149411D01*
X151328Y149400D01*
X151262Y149394D01*
X151201D01*
X151151Y149389D01*
X151078D01*
X150945Y149394D01*
X150818Y149400D01*
X150696Y149416D01*
X150579Y149433D01*
X150473Y149455D01*
X150374Y149478D01*
X150285Y149505D01*
X150207Y149533D01*
X150129Y149555D01*
X150068Y149583D01*
X150013Y149605D01*
X149969Y149627D01*
X149930Y149644D01*
X149907Y149661D01*
X149891Y149666D01*
X149885Y149672D01*
X149802Y149727D01*
X149724Y149783D01*
X149658Y149844D01*
X149591Y149905D01*
X149536Y149966D01*
X149480Y150032D01*
X149436Y150088D01*
X149397Y150149D01*
X149330Y150249D01*
X149308Y150293D01*
X149286Y150332D01*
X149269Y150365D01*
X149258Y150388D01*
X149252Y150404D01*
Y150410D01*
X149219Y150499D01*
X149191Y150593D01*
X149147Y150793D01*
X149119Y150998D01*
X149097Y151192D01*
X149092Y151287D01*
X149086Y151370D01*
X149081Y151442D01*
X149075Y151509D01*
Y151564D01*
Y151603D01*
Y151625D01*
Y151637D01*
Y154595D01*
X149752D01*
Y151637D01*
X149758Y151464D01*
X149763Y151304D01*
X149780Y151159D01*
X149802Y151026D01*
X149824Y150909D01*
X149852Y150804D01*
X149885Y150710D01*
X149913Y150626D01*
X149941Y150554D01*
X149974Y150493D01*
X150002Y150443D01*
X150024Y150404D01*
X150046Y150377D01*
X150057Y150354D01*
X150068Y150343D01*
X150074Y150338D01*
X150141Y150277D01*
X150213Y150227D01*
X150290Y150182D01*
X150374Y150144D01*
X150462Y150110D01*
X150551Y150083D01*
X150723Y150044D01*
X150806Y150027D01*
X150884Y150016D01*
X150956Y150010D01*
X151017Y150005D01*
X151067Y149999D01*
X151139D01*
X151295Y150005D01*
X151439Y150027D01*
X151567Y150055D01*
X151678Y150083D01*
X151722Y150099D01*
X151761Y150116D01*
X151800Y150127D01*
X151828Y150138D01*
X151850Y150149D01*
X151867Y150160D01*
X151878Y150166D01*
X151883D01*
X151989Y150238D01*
X152077Y150316D01*
X152150Y150393D01*
X152205Y150477D01*
X152250Y150543D01*
X152283Y150604D01*
X152294Y150626D01*
X152299Y150643D01*
X152305Y150649D01*
Y150654D01*
X152327Y150715D01*
X152344Y150787D01*
X152377Y150943D01*
X152399Y151104D01*
X152410Y151265D01*
X152416Y151337D01*
X152422Y151409D01*
Y151470D01*
X152427Y151525D01*
Y151575D01*
Y151609D01*
Y151631D01*
Y151637D01*
Y154595D01*
X153104D01*
Y151637D01*
D02*
G37*
D45*
X77500Y161000D02*
Y391000D01*
X222500D01*
Y161000D02*
Y391000D01*
X77500Y161000D02*
X222500D01*
M02*
