M48
;Layer_Color=9474304
;FILE_FORMAT=2:4
INCH,TZ
;TYPE=PLATED
T1F00S00C0.0280
T2F00S00C0.0320
T3F00S00C0.0400
T4F00S00C0.0650
T5F00S00C0.0728
T6F00S00C0.0850
T7F00S00C0.1339
;TYPE=NON_PLATED
T8F00S00C0.1260
T9F00S00C0.2047
%
T01
X10900Y13500
Y14600
X19300Y11400
X9900Y22500
X11200Y32500
X18900
X15000Y36500
X18800Y41500
X20200
T02
X15000Y37500
T03
X23007Y16508
Y17492
Y20258
Y21242
Y23758
Y24742
Y27258
Y28242
X6993
Y27258
Y24742
Y23758
Y21242
Y20258
Y17492
Y16508
X9808Y41107
X10792
X13524
X14508
X15492
X16476
X16580Y38500
X15790
X15000
X14210
X13420
X12630
X17370
T04
X15000Y17500
X18000
X12000
T05
X1344Y3844
X3656
Y6156
X1344
Y8844
X3656
Y11156
X1344
Y13844
X3656
X6754Y5246
Y3500
Y1754
X8500
X10246
Y3500
Y5246
X8500
X19754
X21500
X23246
Y3500
Y1754
X21500
X19754
Y3500
X26344Y3844
Y6156
Y8844
Y11156
Y13844
X28656
Y11156
Y8844
Y6156
Y3844
Y16156
Y18844
Y21156
Y23844
Y26156
Y28844
X26344
Y26156
Y23844
Y21156
Y18844
Y16156
X3656
X1344
Y18844
X3656
Y21156
X1344
Y23844
X3656
Y26156
X1344
Y28844
X3656
Y31156
X1344
Y33844
X3656
Y36156
X1344
Y38844
X3656
Y41156
X1344
X26344
Y38844
Y36156
Y33844
Y31156
X28656
Y33844
Y36156
Y38844
Y41156
T06
X10500Y37500
X12000
X18000
X19500
T07
X2500Y1500
X27500
X7000Y41000
X23000
T08
X2500Y5000
Y10000
Y15000
X27500
Y10000
Y5000
Y20000
Y25000
Y30000
X2500
Y25000
Y20000
Y35000
Y40000
X27500
Y35000
T09
X8500Y3500
X21500
M30
