M48
;Layer_Color=9474304
;FILE_FORMAT=2:4
INCH,LZ
;TYPE=PLATED
T1F00S00C0.0200
T2F00S00C0.0280
T3F00S00C0.0400
T4F00S00C0.0650
T5F00S00C0.0728
T6F00S00C0.0850
T7F00S00C0.1339
;TYPE=NON_PLATED
T8F00S00C0.1260
T9F00S00C0.2047
%
T01
X0188Y0415
X0202
T02
X0109Y0135
Y0146
X0193Y0114
X0099Y0225
X0112Y0325
X0189
T03
X023007Y016508
Y017492
Y020258
Y021242
Y023758
Y024742
Y027258
Y028242
X006993
Y027258
Y024742
Y023758
Y021242
Y020258
Y017492
Y016508
X01308Y0385
X01372
X01436
X015
X01564
X01628
X01692
X016476Y041107
X015492
X014508
X013524
T04
X015Y0175
X018
X012
T05
X001344Y003844
X003656
Y006156
X001344
Y008844
X003656
Y011156
X001344
Y013844
X003656
X006754Y005246
Y0035
Y001754
X0085
X010246
Y0035
Y005246
X0085
X019754
Y0035
Y001754
X0215
X023246
Y0035
Y005246
X0215
X026344Y006156
Y003844
Y008844
Y011156
Y013844
X028656
Y011156
Y008844
Y006156
Y003844
Y016156
Y018844
Y021156
Y023844
Y026156
Y028844
X026344
Y026156
Y023844
Y021156
Y018844
Y016156
X003656
X001344
Y018844
X003656
Y021156
X001344
Y023844
X003656
Y026156
X001344
Y028844
X003656
Y031156
X001344
Y033844
X003656
Y036156
X001344
Y038844
X003656
Y041156
X001344
X026344
Y038844
Y036156
Y033844
Y031156
X028656
Y033844
Y036156
Y038844
Y041156
T06
X0105Y0375
X012
X018
X0195
T07
X0025Y0015
X0275
X007Y041
X023
T08
X0025Y005
Y01
Y015
X0275
Y01
Y005
Y02
Y025
Y03
X0025
Y025
Y02
Y035
Y04
X0275
Y035
T09
X0085Y0035
X0215
M30
