G04*
G04 #@! TF.GenerationSoftware,Altium Limited,Altium Designer,21.0.9 (235)*
G04*
G04 Layer_Physical_Order=2*
G04 Layer_Color=16711680*
%FSLAX25Y25*%
%MOIN*%
G70*
G04*
G04 #@! TF.SameCoordinates,AB6D82EF-CE90-4559-B507-D66C51A42397*
G04*
G04*
G04 #@! TF.FilePolarity,Positive*
G04*
G01*
G75*
%ADD26C,0.07000*%
%ADD27R,0.07000X0.07000*%
%ADD29R,0.07000X0.07000*%
%ADD43C,0.02000*%
%ADD45C,0.05500*%
%ADD46C,0.13000*%
%ADD47C,0.11000*%
%ADD48C,0.12598*%
%ADD49C,0.20472*%
%ADD50C,0.21654*%
%ADD51C,0.05000*%
G36*
X287500Y425000D02*
X287500Y425000D01*
X288319Y425000D01*
X289944Y424786D01*
X291527Y424362D01*
X293040Y423735D01*
X294460Y422916D01*
X295760Y421918D01*
X296918Y420759D01*
X297916Y419459D01*
X298735Y418041D01*
X299362Y416527D01*
X299786Y414944D01*
X300000Y413319D01*
X300000Y412500D01*
Y374000D01*
X260000Y374000D01*
X259212D01*
X257666Y373693D01*
X256211Y373090D01*
X254900Y372214D01*
X253786Y371100D01*
X252910Y369789D01*
X252308Y368334D01*
X252000Y366788D01*
X252000Y366000D01*
X252000Y366000D01*
X252000Y366000D01*
X252000Y334000D01*
Y333212D01*
X252308Y331666D01*
X252910Y330211D01*
X253786Y328900D01*
X254900Y327786D01*
X256211Y326910D01*
X257666Y326308D01*
X259212Y326000D01*
X260000Y326000D01*
X260000Y326000D01*
X300000Y326000D01*
X300000Y326000D01*
Y226500D01*
X300000Y226500D01*
X300000Y274000D01*
X260000Y274000D01*
X259212D01*
X257666Y273693D01*
X256211Y273090D01*
X254900Y272214D01*
X253786Y271100D01*
X252910Y269789D01*
X252308Y268334D01*
X252000Y266788D01*
X252000Y266000D01*
X252000Y266000D01*
X252000Y266000D01*
X252000Y234000D01*
Y233212D01*
X252308Y231666D01*
X252910Y230211D01*
X253786Y228900D01*
X254900Y227786D01*
X256211Y226910D01*
X257666Y226308D01*
X259212Y226000D01*
X260000Y226000D01*
X260000Y226000D01*
X299500Y226000D01*
X300000Y226000D01*
X300000Y225500D01*
X300000Y174500D01*
X300000Y174000D01*
X299500Y174000D01*
X260000Y174000D01*
X259212D01*
X257666Y173693D01*
X256211Y173090D01*
X254900Y172214D01*
X253786Y171100D01*
X252910Y169789D01*
X252308Y168333D01*
X252000Y166788D01*
X252000Y166000D01*
X252000Y166000D01*
X252000Y166000D01*
X252000Y134000D01*
Y133212D01*
X252308Y131667D01*
X252910Y130211D01*
X253786Y128900D01*
X254900Y127786D01*
X256211Y126910D01*
X257666Y126307D01*
X259212Y126000D01*
X260000Y126000D01*
X260000Y126000D01*
X299500Y126000D01*
X300000Y126000D01*
X300000Y125500D01*
X300000Y74500D01*
X300000Y74000D01*
X299500Y74000D01*
X260000Y74000D01*
X259212D01*
X257666Y73693D01*
X256211Y73089D01*
X254900Y72214D01*
X253786Y71100D01*
X252910Y69789D01*
X252308Y68334D01*
X252000Y66788D01*
X252000Y66000D01*
X252000Y66000D01*
X252000Y66000D01*
X252000Y34000D01*
Y33212D01*
X252308Y31666D01*
X252910Y30211D01*
X253786Y28900D01*
X254900Y27786D01*
X256211Y26910D01*
X257666Y26307D01*
X259212Y26000D01*
X260000Y26000D01*
X260000Y26000D01*
X265845D01*
X265904Y25818D01*
X265946Y25500D01*
X264454Y24008D01*
X263174Y22247D01*
X262186Y20308D01*
X261514Y18238D01*
X261173Y16088D01*
Y13912D01*
X261514Y11762D01*
X262186Y9692D01*
X263174Y7753D01*
X264454Y5993D01*
X265992Y4453D01*
X267753Y3174D01*
X269692Y2186D01*
X271762Y1514D01*
X273912Y1173D01*
X276088D01*
X278238Y1514D01*
X280308Y2186D01*
X282247Y3174D01*
X284008Y4453D01*
X285546Y5993D01*
X286826Y7753D01*
X287814Y9692D01*
X288486Y11762D01*
X288827Y13912D01*
Y16088D01*
X288486Y18238D01*
X287814Y20308D01*
X286826Y22247D01*
X285546Y24008D01*
X284054Y25500D01*
X284096Y25818D01*
X284155Y26000D01*
X299500Y26000D01*
X300000Y26000D01*
X300000Y25500D01*
Y12500D01*
X300000Y12500D01*
Y11681D01*
X299786Y10056D01*
X299362Y8473D01*
X298735Y6960D01*
X297916Y5540D01*
X296918Y4240D01*
X295759Y3082D01*
X294460Y2084D01*
X293040Y1265D01*
X291527Y638D01*
X289944Y214D01*
X288319Y-0D01*
X287500Y-0D01*
X113000Y0D01*
X113000Y0D01*
X113000Y56000D01*
X113000Y56000D01*
X113000Y56000D01*
X113000Y56788D01*
X112692Y58333D01*
X112089Y59789D01*
X111214Y61100D01*
X110100Y62214D01*
X108789Y63089D01*
X107334Y63692D01*
X105788Y64000D01*
X105000D01*
X64000Y64000D01*
X64000Y64000D01*
X63212Y64000D01*
X61666Y63693D01*
X60211Y63090D01*
X58900Y62214D01*
X57786Y61100D01*
X56910Y59789D01*
X56307Y58333D01*
X56000Y56788D01*
X56000Y56000D01*
X56000Y0D01*
X12500Y0D01*
X11681Y0D01*
X10056Y214D01*
X8473Y638D01*
X6960Y1265D01*
X5540Y2084D01*
X4241Y3082D01*
X3082Y4241D01*
X2084Y5540D01*
X1265Y6960D01*
X638Y8473D01*
X214Y10056D01*
X-0Y11681D01*
Y12500D01*
X-0Y75500D01*
X0Y76000D01*
X500Y76000D01*
X40788D01*
X42333Y76307D01*
X43789Y76911D01*
X45100Y77786D01*
X46214Y78900D01*
X47089Y80211D01*
X47692Y81666D01*
X48000Y83212D01*
X48000Y84000D01*
X48000Y84000D01*
X48000Y84000D01*
Y116000D01*
Y116788D01*
X47692Y118333D01*
X47089Y119789D01*
X46214Y121100D01*
X45100Y122214D01*
X43789Y123090D01*
X42333Y123693D01*
X40788Y124000D01*
X40000Y124000D01*
X40000Y124000D01*
Y124000D01*
X500Y124000D01*
X0Y124000D01*
X-0Y124500D01*
Y175500D01*
X0Y176000D01*
X500Y176000D01*
X40788D01*
X42333Y176307D01*
X43789Y176910D01*
X45100Y177786D01*
X46214Y178900D01*
X47089Y180211D01*
X47692Y181667D01*
X48000Y183212D01*
X48000Y184000D01*
X48000Y184000D01*
X48000Y184000D01*
Y216000D01*
Y216788D01*
X47692Y218334D01*
X47089Y219789D01*
X46214Y221100D01*
X45100Y222214D01*
X43789Y223090D01*
X42333Y223692D01*
X40788Y224000D01*
X40000Y224000D01*
X40000Y224000D01*
Y224000D01*
X500Y224000D01*
X0Y224000D01*
X0Y224500D01*
X0Y276000D01*
X40788D01*
X42333Y276307D01*
X43789Y276910D01*
X45100Y277786D01*
X46214Y278900D01*
X47089Y280211D01*
X47692Y281666D01*
X48000Y283212D01*
X48000Y284000D01*
X48000Y284000D01*
X48000Y284000D01*
Y316000D01*
Y316788D01*
X47692Y318334D01*
X47089Y319789D01*
X46214Y321100D01*
X45100Y322214D01*
X43789Y323090D01*
X42333Y323692D01*
X40788Y324000D01*
X40000Y324000D01*
X40000Y324000D01*
Y324000D01*
X0Y324000D01*
Y376000D01*
X40788D01*
X42333Y376307D01*
X43789Y376910D01*
X45100Y377786D01*
X46214Y378900D01*
X47089Y380211D01*
X47692Y381666D01*
X48000Y383212D01*
X48000Y384000D01*
X48000Y384000D01*
X48000Y425000D01*
X287500Y425000D01*
X287500Y425000D01*
D02*
G37*
%LPC*%
G36*
X171264Y417567D02*
X158264D01*
Y417217D01*
X157764Y416925D01*
X156817Y417317D01*
X155561Y417567D01*
X154281D01*
X153025Y417317D01*
X151842Y416827D01*
X150778Y416116D01*
X150000Y415338D01*
X149222Y416116D01*
X148158Y416827D01*
X146975Y417317D01*
X145719Y417567D01*
X144439D01*
X143183Y417317D01*
X142000Y416827D01*
X140935Y416116D01*
X140030Y415210D01*
X139319Y414146D01*
X138829Y412963D01*
X138579Y411707D01*
Y410427D01*
X138829Y409171D01*
X139319Y407988D01*
X140030Y406923D01*
X140935Y406018D01*
X142000Y405307D01*
X143183Y404817D01*
X144439Y404567D01*
X145719D01*
X146975Y404817D01*
X148158Y405307D01*
X149222Y406018D01*
X150000Y406796D01*
X150778Y406018D01*
X151842Y405307D01*
X152456Y405053D01*
X152553Y404562D01*
X140747Y392756D01*
X140106Y391920D01*
X139703Y390947D01*
X139566Y389903D01*
X139566Y389903D01*
Y389097D01*
X138999Y388531D01*
X138242Y387219D01*
X137850Y385757D01*
Y384243D01*
X138242Y382781D01*
X138999Y381469D01*
X140069Y380399D01*
X141381Y379642D01*
X142843Y379250D01*
X144357D01*
X145819Y379642D01*
X146800Y380208D01*
X147781Y379642D01*
X149243Y379250D01*
X150757D01*
X152219Y379642D01*
X153200Y380208D01*
X154181Y379642D01*
X155643Y379250D01*
X157157D01*
X158619Y379642D01*
X159600Y380208D01*
X160581Y379642D01*
X162043Y379250D01*
X163557D01*
X165019Y379642D01*
X166000Y380208D01*
X166981Y379642D01*
X168443Y379250D01*
X169957D01*
X170500Y379396D01*
X171000Y379012D01*
Y378097D01*
X170865Y377771D01*
X170500Y375936D01*
Y374064D01*
X170865Y372229D01*
X171000Y371903D01*
Y371000D01*
X171000Y371000D01*
X171000Y370508D01*
X171192Y369542D01*
X171569Y368632D01*
X172116Y367813D01*
X172813Y367116D01*
X173632Y366569D01*
X174541Y366192D01*
X175507Y366000D01*
X176903D01*
X177229Y365865D01*
X179064Y365500D01*
X180936D01*
X182771Y365865D01*
X183097Y366000D01*
X191903Y366000D01*
X192229Y365865D01*
X194064Y365500D01*
X195936D01*
X197771Y365865D01*
X198097Y366000D01*
X199000D01*
X199492Y366000D01*
X200458Y366192D01*
X201368Y366569D01*
X202187Y367116D01*
X202884Y367813D01*
X203431Y368632D01*
X203808Y369542D01*
X204000Y370508D01*
X204000Y371000D01*
Y371903D01*
X204135Y372229D01*
X204500Y374064D01*
Y375936D01*
X204135Y377771D01*
X204000Y378097D01*
Y379000D01*
X204000Y379000D01*
X204000Y379000D01*
X204000Y379492D01*
X203808Y380458D01*
X203431Y381368D01*
X202884Y382187D01*
X202187Y382884D01*
X201368Y383431D01*
X200458Y383808D01*
X199492Y384000D01*
X198097D01*
X197771Y384135D01*
X195936Y384500D01*
X194064D01*
X192229Y384135D01*
X191903Y384000D01*
X183097Y384000D01*
X182771Y384135D01*
X180936Y384500D01*
X179064D01*
X177229Y384135D01*
X176903Y384000D01*
X176000D01*
X176000Y384000D01*
X175507D01*
X175335Y383966D01*
X174950Y384399D01*
Y385757D01*
X174558Y387219D01*
X173801Y388531D01*
X172731Y389601D01*
X171419Y390358D01*
X169957Y390750D01*
X168443D01*
X166981Y390358D01*
X166000Y389792D01*
X165019Y390358D01*
X163557Y390750D01*
X162043D01*
X160581Y390358D01*
X159600Y389792D01*
X158619Y390358D01*
X157157Y390750D01*
X155643D01*
X154181Y390358D01*
X153200Y389792D01*
X152219Y390358D01*
X150838Y390728D01*
X150598Y391195D01*
X163970Y404567D01*
X171264D01*
Y417567D01*
D02*
G37*
G36*
X231088Y423827D02*
X228912D01*
X226762Y423486D01*
X224692Y422814D01*
X222753Y421826D01*
X220992Y420546D01*
X219454Y419007D01*
X218174Y417247D01*
X217186Y415308D01*
X216514Y413238D01*
X216173Y411088D01*
Y408912D01*
X216514Y406762D01*
X217186Y404692D01*
X218174Y402753D01*
X219454Y400992D01*
X220992Y399453D01*
X222753Y398174D01*
X224692Y397186D01*
X226762Y396514D01*
X228912Y396173D01*
X231088D01*
X233238Y396514D01*
X235308Y397186D01*
X237247Y398174D01*
X239007Y399453D01*
X240546Y400992D01*
X241826Y402753D01*
X242814Y404692D01*
X243486Y406762D01*
X243827Y408912D01*
Y411088D01*
X243486Y413238D01*
X242814Y415308D01*
X241826Y417247D01*
X240546Y419007D01*
X239007Y420546D01*
X237247Y421826D01*
X235308Y422814D01*
X233238Y423486D01*
X231088Y423827D01*
D02*
G37*
G36*
X71088D02*
X68912D01*
X66762Y423486D01*
X64692Y422814D01*
X62753Y421826D01*
X60992Y420546D01*
X59453Y419007D01*
X58174Y417247D01*
X57186Y415308D01*
X56514Y413238D01*
X56173Y411088D01*
Y408912D01*
X56514Y406762D01*
X57186Y404692D01*
X58174Y402753D01*
X59453Y400992D01*
X60992Y399453D01*
X62753Y398174D01*
X64692Y397186D01*
X66762Y396514D01*
X68912Y396173D01*
X71088D01*
X73238Y396514D01*
X75308Y397186D01*
X77247Y398174D01*
X79008Y399453D01*
X80546Y400992D01*
X81826Y402753D01*
X82814Y404692D01*
X83486Y406762D01*
X83827Y408912D01*
Y411088D01*
X83486Y413238D01*
X82814Y415308D01*
X81826Y417247D01*
X80546Y419007D01*
X79008Y420546D01*
X77247Y421826D01*
X75308Y422814D01*
X73238Y423486D01*
X71088Y423827D01*
D02*
G37*
G36*
X275916Y409299D02*
X274084D01*
X272288Y408942D01*
X270595Y408241D01*
X269072Y407223D01*
X267777Y405928D01*
X266759Y404405D01*
X266058Y402712D01*
X265701Y400916D01*
Y399084D01*
X266058Y397288D01*
X266759Y395595D01*
X267777Y394072D01*
X269072Y392777D01*
X270595Y391759D01*
X272288Y391058D01*
X274084Y390701D01*
X275916D01*
X277712Y391058D01*
X279405Y391759D01*
X280928Y392777D01*
X282223Y394072D01*
X283241Y395595D01*
X283942Y397288D01*
X284299Y399084D01*
Y400916D01*
X283942Y402712D01*
X283241Y404405D01*
X282223Y405928D01*
X280928Y407223D01*
X279405Y408241D01*
X277712Y408942D01*
X275916Y409299D01*
D02*
G37*
G36*
X25916Y359299D02*
X24084D01*
X22287Y358942D01*
X20595Y358241D01*
X19072Y357223D01*
X17777Y355928D01*
X16759Y354405D01*
X16058Y352712D01*
X15701Y350916D01*
Y349084D01*
X16058Y347288D01*
X16759Y345595D01*
X17777Y344072D01*
X19072Y342777D01*
X20595Y341759D01*
X22287Y341058D01*
X24084Y340701D01*
X25916D01*
X27713Y341058D01*
X29405Y341759D01*
X30928Y342777D01*
X32223Y344072D01*
X33241Y345595D01*
X33942Y347288D01*
X34299Y349084D01*
Y350916D01*
X33942Y352712D01*
X33241Y354405D01*
X32223Y355928D01*
X30928Y357223D01*
X29405Y358241D01*
X27713Y358942D01*
X25916Y359299D01*
D02*
G37*
G36*
X275916Y309299D02*
X274084D01*
X272288Y308942D01*
X270595Y308241D01*
X269072Y307223D01*
X267777Y305928D01*
X266759Y304405D01*
X266058Y302712D01*
X265701Y300916D01*
Y299084D01*
X266058Y297288D01*
X266759Y295595D01*
X267777Y294072D01*
X269072Y292777D01*
X270595Y291759D01*
X272288Y291058D01*
X274084Y290701D01*
X275916D01*
X277712Y291058D01*
X279405Y291759D01*
X280928Y292777D01*
X282223Y294072D01*
X283241Y295595D01*
X283942Y297288D01*
X284299Y299084D01*
Y300916D01*
X283942Y302712D01*
X283241Y304405D01*
X282223Y305928D01*
X280928Y307223D01*
X279405Y308241D01*
X277712Y308942D01*
X275916Y309299D01*
D02*
G37*
G36*
X76433Y288921D02*
X63433D01*
Y275921D01*
X76433D01*
Y288921D01*
D02*
G37*
G36*
X236567Y279079D02*
X223567D01*
Y266079D01*
X236567D01*
Y279079D01*
D02*
G37*
G36*
X76433Y253921D02*
X63433D01*
Y240921D01*
X76433D01*
Y253921D01*
D02*
G37*
G36*
X25916Y259299D02*
X24084D01*
X22287Y258942D01*
X20595Y258241D01*
X19072Y257223D01*
X17777Y255928D01*
X16759Y254405D01*
X16058Y252712D01*
X15701Y250916D01*
Y249084D01*
X16058Y247288D01*
X16759Y245595D01*
X17777Y244072D01*
X19072Y242777D01*
X20595Y241759D01*
X22287Y241058D01*
X24084Y240701D01*
X25916D01*
X27713Y241058D01*
X29405Y241759D01*
X30928Y242777D01*
X32223Y244072D01*
X33241Y245595D01*
X33942Y247288D01*
X34299Y249084D01*
Y250916D01*
X33942Y252712D01*
X33241Y254405D01*
X32223Y255928D01*
X30928Y257223D01*
X29405Y258241D01*
X27713Y258942D01*
X25916Y259299D01*
D02*
G37*
G36*
X236567Y244079D02*
X223567D01*
Y231079D01*
X236567D01*
Y244079D01*
D02*
G37*
G36*
X76433Y218921D02*
X63433D01*
Y205921D01*
X76433D01*
Y218921D01*
D02*
G37*
G36*
X236567Y209079D02*
X223567D01*
Y196079D01*
X236567D01*
Y209079D01*
D02*
G37*
G36*
X275916Y209299D02*
X274084D01*
X272288Y208942D01*
X270595Y208241D01*
X269072Y207223D01*
X267777Y205928D01*
X266759Y204405D01*
X266058Y202712D01*
X265701Y200916D01*
Y199084D01*
X266058Y197287D01*
X266759Y195595D01*
X267777Y194072D01*
X269072Y192777D01*
X270595Y191759D01*
X272288Y191058D01*
X274084Y190701D01*
X275916D01*
X277712Y191058D01*
X279405Y191759D01*
X280928Y192777D01*
X282223Y194072D01*
X283241Y195595D01*
X283942Y197287D01*
X284299Y199084D01*
Y200916D01*
X283942Y202712D01*
X283241Y204405D01*
X282223Y205928D01*
X280928Y207223D01*
X279405Y208241D01*
X277712Y208942D01*
X275916Y209299D01*
D02*
G37*
G36*
X76433Y181421D02*
X63433D01*
Y168421D01*
X76433D01*
Y181421D01*
D02*
G37*
G36*
X180837Y183500D02*
X179163D01*
X177521Y183173D01*
X175974Y182533D01*
X174582Y181602D01*
X173398Y180418D01*
X172467Y179026D01*
X171827Y177479D01*
X171500Y175837D01*
Y174163D01*
X171827Y172521D01*
X172467Y170974D01*
X173398Y169582D01*
X174582Y168398D01*
X175974Y167467D01*
X177521Y166827D01*
X179163Y166500D01*
X180837D01*
X182479Y166827D01*
X184026Y167467D01*
X185418Y168398D01*
X186602Y169582D01*
X187533Y170974D01*
X188173Y172521D01*
X188500Y174163D01*
Y175837D01*
X188173Y177479D01*
X187533Y179026D01*
X186602Y180418D01*
X185418Y181602D01*
X184026Y182533D01*
X182479Y183173D01*
X180837Y183500D01*
D02*
G37*
G36*
X150837D02*
X149163D01*
X147521Y183173D01*
X145974Y182533D01*
X144582Y181602D01*
X143398Y180418D01*
X142467Y179026D01*
X141827Y177479D01*
X141500Y175837D01*
Y174163D01*
X141827Y172521D01*
X142467Y170974D01*
X143398Y169582D01*
X144582Y168398D01*
X145974Y167467D01*
X147521Y166827D01*
X149163Y166500D01*
X150837D01*
X152479Y166827D01*
X154026Y167467D01*
X155418Y168398D01*
X156602Y169582D01*
X157533Y170974D01*
X158173Y172521D01*
X158500Y174163D01*
Y175837D01*
X158173Y177479D01*
X157533Y179026D01*
X156602Y180418D01*
X155418Y181602D01*
X154026Y182533D01*
X152479Y183173D01*
X150837Y183500D01*
D02*
G37*
G36*
X236567Y171579D02*
X223567D01*
Y158579D01*
X236567D01*
Y171579D01*
D02*
G37*
G36*
X25916Y159299D02*
X24084D01*
X22287Y158942D01*
X20595Y158241D01*
X19072Y157223D01*
X17777Y155928D01*
X16759Y154405D01*
X16058Y152713D01*
X15701Y150916D01*
Y149084D01*
X16058Y147287D01*
X16759Y145595D01*
X17777Y144072D01*
X19072Y142777D01*
X20595Y141759D01*
X22287Y141058D01*
X24084Y140701D01*
X25916D01*
X27713Y141058D01*
X29405Y141759D01*
X30928Y142777D01*
X32223Y144072D01*
X33241Y145595D01*
X33942Y147287D01*
X34299Y149084D01*
Y150916D01*
X33942Y152713D01*
X33241Y154405D01*
X32223Y155928D01*
X30928Y157223D01*
X29405Y158241D01*
X27713Y158942D01*
X25916Y159299D01*
D02*
G37*
G36*
X275916Y109299D02*
X274084D01*
X272288Y108942D01*
X270595Y108241D01*
X269072Y107223D01*
X267777Y105928D01*
X266759Y104405D01*
X266058Y102713D01*
X265701Y100916D01*
Y99084D01*
X266058Y97287D01*
X266759Y95595D01*
X267777Y94072D01*
X269072Y92777D01*
X270595Y91759D01*
X272288Y91058D01*
X274084Y90701D01*
X275916D01*
X277712Y91058D01*
X279405Y91759D01*
X280928Y92777D01*
X282223Y94072D01*
X283241Y95595D01*
X283942Y97287D01*
X284299Y99084D01*
Y100916D01*
X283942Y102713D01*
X283241Y104405D01*
X282223Y105928D01*
X280928Y107223D01*
X279405Y108241D01*
X277712Y108942D01*
X275916Y109299D01*
D02*
G37*
G36*
X25916Y59299D02*
X24084D01*
X22287Y58942D01*
X20595Y58241D01*
X19072Y57223D01*
X17777Y55928D01*
X16759Y54405D01*
X16058Y52713D01*
X15701Y50916D01*
Y49084D01*
X16058Y47287D01*
X16759Y45595D01*
X17777Y44072D01*
X19072Y42777D01*
X20595Y41759D01*
X22287Y41058D01*
X24084Y40701D01*
X25916D01*
X27713Y41058D01*
X29405Y41759D01*
X30928Y42777D01*
X32223Y44072D01*
X33241Y45595D01*
X33942Y47287D01*
X34299Y49084D01*
Y50916D01*
X33942Y52713D01*
X33241Y54405D01*
X32223Y55928D01*
X30928Y57223D01*
X29405Y58241D01*
X27713Y58942D01*
X25916Y59299D01*
D02*
G37*
G36*
X216042Y48236D02*
X213958D01*
X211900Y47910D01*
X209919Y47267D01*
X208063Y46321D01*
X206377Y45096D01*
X204904Y43623D01*
X203679Y41937D01*
X202733Y40081D01*
X202090Y38100D01*
X201764Y36042D01*
Y33958D01*
X202090Y31901D01*
X202733Y29919D01*
X203679Y28063D01*
X204904Y26377D01*
X206377Y24904D01*
X208063Y23679D01*
X209919Y22734D01*
X211900Y22090D01*
X213958Y21764D01*
X216042D01*
X218099Y22090D01*
X220081Y22734D01*
X221937Y23679D01*
X223623Y24904D01*
X225096Y26377D01*
X226321Y28063D01*
X227267Y29919D01*
X227910Y31901D01*
X228236Y33958D01*
Y36042D01*
X227910Y38100D01*
X227267Y40081D01*
X226321Y41937D01*
X225096Y43623D01*
X223623Y45096D01*
X221937Y46321D01*
X220081Y47267D01*
X218099Y47910D01*
X216042Y48236D01*
D02*
G37*
G36*
X26088Y28827D02*
X23912D01*
X21762Y28486D01*
X19692Y27814D01*
X17753Y26826D01*
X15992Y25547D01*
X14454Y24008D01*
X13174Y22247D01*
X12186Y20308D01*
X11514Y18238D01*
X11173Y16088D01*
Y13912D01*
X11514Y11762D01*
X12186Y9692D01*
X13174Y7753D01*
X14454Y5993D01*
X15992Y4453D01*
X17753Y3174D01*
X19692Y2186D01*
X21762Y1514D01*
X23912Y1173D01*
X26088D01*
X28238Y1514D01*
X30308Y2186D01*
X32247Y3174D01*
X34007Y4453D01*
X35546Y5993D01*
X36826Y7753D01*
X37814Y9692D01*
X38486Y11762D01*
X38827Y13912D01*
Y16088D01*
X38486Y18238D01*
X37814Y20308D01*
X36826Y22247D01*
X35546Y24008D01*
X34007Y25547D01*
X32247Y26826D01*
X30308Y27814D01*
X28238Y28486D01*
X26088Y28827D01*
D02*
G37*
%LPD*%
D26*
X69933Y202579D02*
D03*
X135236Y411067D02*
D03*
X145079D02*
D03*
X154921D02*
D03*
X69933Y165079D02*
D03*
Y237579D02*
D03*
Y272579D02*
D03*
X230067Y282421D02*
D03*
Y247421D02*
D03*
Y212421D02*
D03*
Y174921D02*
D03*
D27*
X69933Y212421D02*
D03*
Y174921D02*
D03*
Y247421D02*
D03*
Y282421D02*
D03*
X230067Y272579D02*
D03*
Y237579D02*
D03*
Y202579D02*
D03*
Y165079D02*
D03*
D29*
X164764Y411067D02*
D03*
D43*
X143600Y389903D02*
X164764Y411067D01*
X143600Y385000D02*
Y389903D01*
D45*
X169200Y385000D02*
D03*
X130800D02*
D03*
X137200D02*
D03*
X143600D02*
D03*
X162800D02*
D03*
X156400D02*
D03*
X150000D02*
D03*
D46*
X195000Y375000D02*
D03*
X180000D02*
D03*
X120000D02*
D03*
X105000D02*
D03*
D47*
X120000Y175000D02*
D03*
X180000D02*
D03*
X150000D02*
D03*
D48*
X25000Y400000D02*
D03*
X36555Y388445D02*
D03*
X13445D02*
D03*
X36555Y411555D02*
D03*
X13445D02*
D03*
X25000Y350000D02*
D03*
X36555Y338445D02*
D03*
X13445D02*
D03*
X36555Y361555D02*
D03*
X13445D02*
D03*
X25000Y300000D02*
D03*
X36555Y288445D02*
D03*
X13445D02*
D03*
X36555Y311555D02*
D03*
X13445D02*
D03*
X25000Y250000D02*
D03*
X36555Y238445D02*
D03*
X13445D02*
D03*
X36555Y261555D02*
D03*
X13445D02*
D03*
X25000Y200000D02*
D03*
X36555Y188445D02*
D03*
X13445D02*
D03*
X36555Y211555D02*
D03*
X13445D02*
D03*
X25000Y150000D02*
D03*
X36555Y138445D02*
D03*
X13445D02*
D03*
X36555Y161555D02*
D03*
X13445D02*
D03*
X25000Y100000D02*
D03*
X36555Y88445D02*
D03*
X13445D02*
D03*
X36555Y111555D02*
D03*
X13445D02*
D03*
X25000Y50000D02*
D03*
X36555Y38445D02*
D03*
X13445D02*
D03*
X36555Y61555D02*
D03*
X13445D02*
D03*
X275000Y400000D02*
D03*
X286555Y388445D02*
D03*
X263445D02*
D03*
X286555Y411555D02*
D03*
X263445D02*
D03*
X275000Y350000D02*
D03*
X286555Y338445D02*
D03*
X263445D02*
D03*
X286555Y361555D02*
D03*
X263445D02*
D03*
X275000Y300000D02*
D03*
X286555Y288445D02*
D03*
X263445D02*
D03*
X286555Y311555D02*
D03*
X263445D02*
D03*
X275000Y250000D02*
D03*
X286555Y238445D02*
D03*
X263445D02*
D03*
X286555Y261555D02*
D03*
X263445D02*
D03*
X275000Y200000D02*
D03*
X286555Y188445D02*
D03*
X263445D02*
D03*
X286555Y211555D02*
D03*
X263445D02*
D03*
X275000Y150000D02*
D03*
X286555Y138445D02*
D03*
X263445D02*
D03*
X286555Y161555D02*
D03*
X263445D02*
D03*
X275000Y100000D02*
D03*
X286555Y88445D02*
D03*
X263445D02*
D03*
X286555Y111555D02*
D03*
X263445D02*
D03*
X275000Y50000D02*
D03*
X286555Y38445D02*
D03*
X263445D02*
D03*
X286555Y61555D02*
D03*
X263445D02*
D03*
X197539Y52461D02*
D03*
X215000D02*
D03*
X232461D02*
D03*
Y35000D02*
D03*
X197539D02*
D03*
Y17539D02*
D03*
X215000D02*
D03*
X232461D02*
D03*
X67539Y52461D02*
D03*
X85000D02*
D03*
X102461D02*
D03*
Y35000D02*
D03*
X67539D02*
D03*
Y17539D02*
D03*
X85000D02*
D03*
X102461D02*
D03*
D49*
X215000Y35000D02*
D03*
X85000D02*
D03*
D50*
X25000Y15000D02*
D03*
X230000Y410000D02*
D03*
X70000D02*
D03*
X275000Y15000D02*
D03*
D51*
X202000Y415000D02*
D03*
X188000D02*
D03*
X189000Y325000D02*
D03*
X112000D02*
D03*
X99000Y225000D02*
D03*
X109000Y135000D02*
D03*
X193000Y114000D02*
D03*
X109000Y146000D02*
D03*
M02*
