G04*
G04 #@! TF.GenerationSoftware,Altium Limited,Altium Designer,21.0.9 (235)*
G04*
G04 Layer_Physical_Order=2*
G04 Layer_Color=16711680*
%FSLAX25Y25*%
%MOIN*%
G70*
G04*
G04 #@! TF.SameCoordinates,248EADF4-6E9D-4877-B34C-AAFE22DB1BC7*
G04*
G04*
G04 #@! TF.FilePolarity,Positive*
G04*
G01*
G75*
%ADD25C,0.07000*%
%ADD26R,0.07000X0.07000*%
%ADD27R,0.07000X0.07000*%
%ADD43C,0.20472*%
%ADD44C,0.12598*%
%ADD45C,0.21654*%
%ADD46C,0.10827*%
%ADD47C,0.05000*%
G36*
X383094Y198697D02*
X381762Y198486D01*
X379692Y197814D01*
X377753Y196826D01*
X375992Y195546D01*
X374453Y194008D01*
X373174Y192247D01*
X372186Y190308D01*
X371514Y188238D01*
X371173Y186088D01*
Y183912D01*
X371514Y181762D01*
X372186Y179692D01*
X373174Y177753D01*
X374453Y175993D01*
X375992Y174453D01*
X377753Y173174D01*
X379692Y172186D01*
X381762Y171514D01*
X383912Y171173D01*
X386088D01*
X388238Y171514D01*
X390308Y172186D01*
X392247Y173174D01*
X394007Y174453D01*
X395547Y175993D01*
X396826Y177753D01*
X397814Y179692D01*
X398486Y181762D01*
X398697Y183094D01*
X399197Y183054D01*
X399197Y86260D01*
X398697Y86108D01*
X397778Y87483D01*
X396483Y88778D01*
X394960Y89796D01*
X393268Y90497D01*
X391471Y90854D01*
X389639D01*
X387843Y90497D01*
X386150Y89796D01*
X384627Y88778D01*
X383332Y87483D01*
X382314Y85960D01*
X381613Y84268D01*
X381256Y82471D01*
Y80639D01*
X381501Y79408D01*
X381147Y79054D01*
X379916Y79299D01*
X378084D01*
X376853Y79054D01*
X376499Y79408D01*
X376744Y80639D01*
Y82471D01*
X376387Y84268D01*
X375686Y85960D01*
X374668Y87483D01*
X373373Y88778D01*
X371850Y89796D01*
X370157Y90497D01*
X368361Y90854D01*
X366529D01*
X364732Y90497D01*
X363040Y89796D01*
X361517Y88778D01*
X360222Y87483D01*
X359204Y85960D01*
X358503Y84268D01*
X358146Y82471D01*
Y80639D01*
X358503Y78843D01*
X359204Y77150D01*
X360222Y75627D01*
X361517Y74332D01*
X363040Y73314D01*
X364732Y72613D01*
X366529Y72256D01*
X368361D01*
X369592Y72501D01*
X369946Y72147D01*
X369701Y70916D01*
Y69084D01*
X369946Y67853D01*
X369592Y67499D01*
X368361Y67744D01*
X366529D01*
X364732Y67387D01*
X363040Y66686D01*
X361517Y65668D01*
X360222Y64373D01*
X359204Y62850D01*
X358503Y61157D01*
X358146Y59361D01*
Y57529D01*
X358503Y55732D01*
X359204Y54040D01*
X360222Y52517D01*
X361517Y51222D01*
X363040Y50204D01*
X364732Y49503D01*
X366529Y49146D01*
X368361D01*
X370157Y49503D01*
X371850Y50204D01*
X373373Y51222D01*
X374668Y52517D01*
X375686Y54040D01*
X376387Y55732D01*
X376744Y57529D01*
Y59361D01*
X376499Y60592D01*
X376853Y60946D01*
X378084Y60701D01*
X379916D01*
X381147Y60946D01*
X381501Y60592D01*
X381256Y59361D01*
Y57529D01*
X381613Y55732D01*
X382314Y54040D01*
X383332Y52517D01*
X384627Y51222D01*
X386150Y50204D01*
X387843Y49503D01*
X389639Y49146D01*
X391471D01*
X393268Y49503D01*
X394960Y50204D01*
X396483Y51222D01*
X397778Y52517D01*
X398697Y53892D01*
X399197Y53741D01*
X399197Y16946D01*
X398697Y16906D01*
X398486Y18238D01*
X397814Y20308D01*
X396826Y22247D01*
X395547Y24008D01*
X394007Y25547D01*
X392247Y26826D01*
X390308Y27814D01*
X388238Y28486D01*
X386088Y28827D01*
X383912D01*
X381762Y28486D01*
X379692Y27814D01*
X377753Y26826D01*
X375992Y25547D01*
X374453Y24008D01*
X373174Y22247D01*
X372186Y20308D01*
X371514Y18238D01*
X371173Y16088D01*
Y13912D01*
X371514Y11762D01*
X372186Y9692D01*
X373174Y7753D01*
X374453Y5993D01*
X375992Y4453D01*
X377753Y3174D01*
X379692Y2186D01*
X381762Y1514D01*
X383094Y1303D01*
X383054Y803D01*
X16946D01*
X16906Y1303D01*
X18238Y1514D01*
X20308Y2186D01*
X22247Y3174D01*
X24008Y4453D01*
X25547Y5993D01*
X26826Y7753D01*
X27814Y9692D01*
X28486Y11762D01*
X28827Y13912D01*
Y16088D01*
X28486Y18238D01*
X27814Y20308D01*
X26826Y22247D01*
X25547Y24008D01*
X24008Y25547D01*
X22247Y26826D01*
X20308Y27814D01*
X18238Y28486D01*
X16088Y28827D01*
X13912D01*
X11762Y28486D01*
X9692Y27814D01*
X7753Y26826D01*
X5993Y25547D01*
X4453Y24008D01*
X3174Y22247D01*
X2186Y20308D01*
X1514Y18238D01*
X1303Y16906D01*
X803Y16946D01*
X803Y183055D01*
X1303Y183094D01*
X1514Y181762D01*
X2186Y179692D01*
X3174Y177753D01*
X4453Y175993D01*
X5993Y174453D01*
X7753Y173174D01*
X9692Y172186D01*
X11762Y171514D01*
X13912Y171173D01*
X16088D01*
X18238Y171514D01*
X20308Y172186D01*
X22247Y173174D01*
X24008Y174453D01*
X25547Y175993D01*
X26826Y177753D01*
X27814Y179692D01*
X28486Y181762D01*
X28827Y183912D01*
Y186088D01*
X28486Y188238D01*
X27814Y190308D01*
X26826Y192247D01*
X25547Y194008D01*
X24008Y195546D01*
X22247Y196826D01*
X20308Y197814D01*
X18238Y198486D01*
X16906Y198697D01*
X16946Y199197D01*
X383054D01*
X383094Y198697D01*
D02*
G37*
G36*
X399197Y76851D02*
Y63149D01*
X398697Y62998D01*
X397778Y64373D01*
X396483Y65668D01*
X394960Y66686D01*
X393268Y67387D01*
X391471Y67744D01*
X389639D01*
X388408Y67499D01*
X388054Y67853D01*
X388299Y69084D01*
Y70916D01*
X388054Y72147D01*
X388408Y72501D01*
X389639Y72256D01*
X391471D01*
X393268Y72613D01*
X394960Y73314D01*
X396483Y74332D01*
X397778Y75627D01*
X398697Y77003D01*
X399197Y76851D01*
D02*
G37*
%LPC*%
G36*
X366421Y193567D02*
X353421D01*
Y190742D01*
X352959Y190550D01*
X352842Y190668D01*
X351816Y191260D01*
X351079Y191458D01*
Y187067D01*
Y182676D01*
X351816Y182874D01*
X352842Y183466D01*
X352959Y183583D01*
X353421Y183392D01*
Y180567D01*
X366421D01*
Y193567D01*
D02*
G37*
G36*
X331421D02*
X318421D01*
Y190742D01*
X317959Y190550D01*
X317842Y190668D01*
X316816Y191260D01*
X316079Y191458D01*
Y187067D01*
Y182676D01*
X316816Y182874D01*
X317842Y183466D01*
X317959Y183583D01*
X318421Y183392D01*
Y180567D01*
X331421D01*
Y193567D01*
D02*
G37*
G36*
X296421D02*
X283421D01*
Y190742D01*
X282959Y190550D01*
X282842Y190668D01*
X281816Y191260D01*
X281079Y191458D01*
Y187067D01*
Y182676D01*
X281816Y182874D01*
X282842Y183466D01*
X282959Y183583D01*
X283421Y183392D01*
Y180567D01*
X296421D01*
Y193567D01*
D02*
G37*
G36*
X261421D02*
X248421D01*
Y190742D01*
X247959Y190550D01*
X247842Y190668D01*
X246816Y191260D01*
X246079Y191458D01*
Y187067D01*
Y182676D01*
X246816Y182874D01*
X247842Y183466D01*
X247959Y183583D01*
X248421Y183392D01*
Y180567D01*
X261421D01*
Y193567D01*
D02*
G37*
G36*
X226421D02*
X213421D01*
Y190742D01*
X212959Y190550D01*
X212842Y190668D01*
X211816Y191260D01*
X211079Y191458D01*
Y187067D01*
Y182676D01*
X211816Y182874D01*
X212842Y183466D01*
X212959Y183583D01*
X213421Y183392D01*
Y180567D01*
X226421D01*
Y193567D01*
D02*
G37*
G36*
X191421D02*
X178421D01*
Y190742D01*
X177959Y190550D01*
X177842Y190668D01*
X176816Y191260D01*
X176079Y191458D01*
Y187067D01*
Y182676D01*
X176816Y182874D01*
X177842Y183466D01*
X177959Y183583D01*
X178421Y183392D01*
Y180567D01*
X191421D01*
Y193567D01*
D02*
G37*
G36*
X156421D02*
X143421D01*
Y190742D01*
X142959Y190550D01*
X142842Y190668D01*
X141816Y191260D01*
X141079Y191458D01*
Y187067D01*
Y182676D01*
X141816Y182874D01*
X142842Y183466D01*
X142959Y183583D01*
X143421Y183392D01*
Y180567D01*
X156421D01*
Y193567D01*
D02*
G37*
G36*
X121421D02*
X108421D01*
Y190742D01*
X107959Y190550D01*
X107842Y190668D01*
X106816Y191260D01*
X106079Y191458D01*
Y187067D01*
Y182676D01*
X106816Y182874D01*
X107842Y183466D01*
X107959Y183583D01*
X108421Y183392D01*
Y180567D01*
X121421D01*
Y193567D01*
D02*
G37*
G36*
X174079Y191458D02*
X173342Y191260D01*
X172316Y190668D01*
X171478Y189830D01*
X170885Y188804D01*
X170688Y188067D01*
X174079D01*
Y191458D01*
D02*
G37*
G36*
X349079D02*
X348342Y191260D01*
X347316Y190668D01*
X346478Y189830D01*
X345885Y188804D01*
X345688Y188067D01*
X349079D01*
Y191458D01*
D02*
G37*
G36*
X279079D02*
X278342Y191260D01*
X277316Y190668D01*
X276478Y189830D01*
X275885Y188804D01*
X275688Y188067D01*
X279079D01*
Y191458D01*
D02*
G37*
G36*
X244079D02*
X243342Y191260D01*
X242316Y190668D01*
X241478Y189830D01*
X240885Y188804D01*
X240688Y188067D01*
X244079D01*
Y191458D01*
D02*
G37*
G36*
X139079D02*
X138342Y191260D01*
X137316Y190668D01*
X136478Y189830D01*
X135885Y188804D01*
X135688Y188067D01*
X139079D01*
Y191458D01*
D02*
G37*
G36*
X314079D02*
X313342Y191260D01*
X312316Y190668D01*
X311478Y189830D01*
X310885Y188804D01*
X310688Y188067D01*
X314079D01*
Y191458D01*
D02*
G37*
G36*
X209079D02*
X208342Y191260D01*
X207316Y190668D01*
X206478Y189830D01*
X205885Y188804D01*
X205688Y188067D01*
X209079D01*
Y191458D01*
D02*
G37*
G36*
X104079D02*
X103342Y191260D01*
X102316Y190668D01*
X101478Y189830D01*
X100885Y188804D01*
X100688Y188067D01*
X104079D01*
Y191458D01*
D02*
G37*
G36*
X349079Y186067D02*
X345688D01*
X345885Y185330D01*
X346478Y184304D01*
X347316Y183466D01*
X348342Y182874D01*
X349079Y182676D01*
Y186067D01*
D02*
G37*
G36*
X314079D02*
X310688D01*
X310885Y185330D01*
X311478Y184304D01*
X312316Y183466D01*
X313342Y182874D01*
X314079Y182676D01*
Y186067D01*
D02*
G37*
G36*
X279079D02*
X275688D01*
X275885Y185330D01*
X276478Y184304D01*
X277316Y183466D01*
X278342Y182874D01*
X279079Y182676D01*
Y186067D01*
D02*
G37*
G36*
X244079D02*
X240688D01*
X240885Y185330D01*
X241478Y184304D01*
X242316Y183466D01*
X243342Y182874D01*
X244079Y182676D01*
Y186067D01*
D02*
G37*
G36*
X209079D02*
X205688D01*
X205885Y185330D01*
X206478Y184304D01*
X207316Y183466D01*
X208342Y182874D01*
X209079Y182676D01*
Y186067D01*
D02*
G37*
G36*
X174079D02*
X170688D01*
X170885Y185330D01*
X171478Y184304D01*
X172316Y183466D01*
X173342Y182874D01*
X174079Y182676D01*
Y186067D01*
D02*
G37*
G36*
X139079D02*
X135688D01*
X135885Y185330D01*
X136478Y184304D01*
X137316Y183466D01*
X138342Y182874D01*
X139079Y182676D01*
Y186067D01*
D02*
G37*
G36*
X104079D02*
X100688D01*
X100885Y185330D01*
X101478Y184304D01*
X102316Y183466D01*
X103342Y182874D01*
X104079Y182676D01*
Y186067D01*
D02*
G37*
G36*
X48377Y159260D02*
X46545D01*
X44748Y158903D01*
X43056Y158202D01*
X41533Y157184D01*
X40238Y155888D01*
X39220Y154366D01*
X38980Y153787D01*
X38480D01*
X38241Y154366D01*
X37223Y155888D01*
X35928Y157184D01*
X34405Y158202D01*
X32713Y158903D01*
X30916Y159260D01*
X29084D01*
X27288Y158903D01*
X25595Y158202D01*
X24072Y157184D01*
X22777Y155888D01*
X21759Y154366D01*
X21520Y153787D01*
X21020D01*
X20780Y154366D01*
X19762Y155888D01*
X18467Y157184D01*
X16944Y158202D01*
X15252Y158903D01*
X13455Y159260D01*
X11624D01*
X9827Y158903D01*
X8134Y158202D01*
X6611Y157184D01*
X5316Y155888D01*
X4298Y154366D01*
X3598Y152673D01*
X3240Y150876D01*
Y149045D01*
X3598Y147248D01*
X4298Y145556D01*
X5316Y144033D01*
X6611Y142737D01*
X8134Y141720D01*
X8713Y141480D01*
Y140980D01*
X8134Y140741D01*
X6611Y139723D01*
X5316Y138428D01*
X4298Y136905D01*
X3598Y135213D01*
X3240Y133416D01*
Y131584D01*
X3598Y129788D01*
X4298Y128095D01*
X5316Y126572D01*
X6611Y125277D01*
X8134Y124259D01*
X8713Y124020D01*
Y123520D01*
X8134Y123280D01*
X6611Y122263D01*
X5316Y120967D01*
X4298Y119444D01*
X3598Y117752D01*
X3240Y115955D01*
Y114123D01*
X3598Y112327D01*
X4298Y110635D01*
X5316Y109111D01*
X6611Y107816D01*
X8134Y106799D01*
X9827Y106097D01*
X11624Y105740D01*
X13455D01*
X15252Y106097D01*
X16944Y106799D01*
X18467Y107816D01*
X19762Y109111D01*
X20780Y110635D01*
X21020Y111213D01*
X21520D01*
X21759Y110635D01*
X22777Y109111D01*
X24072Y107816D01*
X25595Y106799D01*
X27288Y106097D01*
X29084Y105740D01*
X30916D01*
X32713Y106097D01*
X34405Y106799D01*
X35928Y107816D01*
X37223Y109111D01*
X38241Y110635D01*
X38480Y111213D01*
X38980D01*
X39220Y110635D01*
X40238Y109111D01*
X41533Y107816D01*
X43056Y106799D01*
X44748Y106097D01*
X46545Y105740D01*
X48377D01*
X50173Y106097D01*
X51866Y106799D01*
X53389Y107816D01*
X54684Y109111D01*
X55702Y110635D01*
X56402Y112327D01*
X56760Y114123D01*
Y115955D01*
X56402Y117752D01*
X55702Y119444D01*
X54684Y120967D01*
X53389Y122263D01*
X51866Y123280D01*
X51287Y123520D01*
Y124020D01*
X51866Y124259D01*
X53389Y125277D01*
X54684Y126572D01*
X55702Y128095D01*
X56402Y129788D01*
X56760Y131584D01*
Y133416D01*
X56402Y135213D01*
X55702Y136905D01*
X54684Y138428D01*
X53389Y139723D01*
X51866Y140741D01*
X51287Y140980D01*
Y141480D01*
X51866Y141720D01*
X53389Y142737D01*
X54684Y144033D01*
X55702Y145556D01*
X56402Y147248D01*
X56760Y149045D01*
Y150876D01*
X56402Y152673D01*
X55702Y154366D01*
X54684Y155888D01*
X53389Y157184D01*
X51866Y158202D01*
X50173Y158903D01*
X48377Y159260D01*
D02*
G37*
G36*
X391555Y148798D02*
Y142555D01*
X397798D01*
X397574Y143684D01*
X397024Y145013D01*
X396225Y146208D01*
X395208Y147225D01*
X394013Y148024D01*
X392684Y148574D01*
X391555Y148798D01*
D02*
G37*
G36*
X389555D02*
X388426Y148574D01*
X387098Y148024D01*
X385902Y147225D01*
X384885Y146208D01*
X384087Y145013D01*
X383536Y143684D01*
X383312Y142555D01*
X389555D01*
Y148798D01*
D02*
G37*
G36*
X368445D02*
Y142555D01*
X374688D01*
X374464Y143684D01*
X373913Y145013D01*
X373115Y146208D01*
X372098Y147225D01*
X370902Y148024D01*
X369574Y148574D01*
X368445Y148798D01*
D02*
G37*
G36*
X366445D02*
X365316Y148574D01*
X363987Y148024D01*
X362792Y147225D01*
X361775Y146208D01*
X360976Y145013D01*
X360426Y143684D01*
X360202Y142555D01*
X366445D01*
Y148798D01*
D02*
G37*
G36*
X389555Y140555D02*
X383312D01*
X383536Y139426D01*
X383921Y138497D01*
X383517Y138166D01*
X383405Y138241D01*
X381713Y138942D01*
X379916Y139299D01*
X378084D01*
X376288Y138942D01*
X374595Y138241D01*
X374483Y138166D01*
X374079Y138497D01*
X374464Y139426D01*
X374688Y140555D01*
X368445D01*
Y134312D01*
X369574Y134536D01*
X370503Y134921D01*
X370834Y134517D01*
X370759Y134405D01*
X370058Y132712D01*
X369701Y130916D01*
Y129084D01*
X370058Y127287D01*
X370759Y125595D01*
X370834Y125483D01*
X370503Y125079D01*
X369574Y125464D01*
X368445Y125688D01*
Y119445D01*
X374688D01*
X374464Y120574D01*
X374079Y121503D01*
X374483Y121834D01*
X374595Y121759D01*
X376288Y121058D01*
X378084Y120701D01*
X379916D01*
X381713Y121058D01*
X383405Y121759D01*
X383517Y121834D01*
X383921Y121503D01*
X383536Y120574D01*
X383312Y119445D01*
X389555D01*
Y125688D01*
X388426Y125464D01*
X387497Y125079D01*
X387166Y125483D01*
X387241Y125595D01*
X387942Y127287D01*
X388299Y129084D01*
Y130916D01*
X387942Y132712D01*
X387241Y134405D01*
X387166Y134517D01*
X387497Y134921D01*
X388426Y134536D01*
X389555Y134312D01*
Y140555D01*
D02*
G37*
G36*
X397798D02*
X391555D01*
Y134312D01*
X392684Y134536D01*
X394013Y135087D01*
X395208Y135885D01*
X396225Y136902D01*
X397024Y138098D01*
X397574Y139426D01*
X397798Y140555D01*
D02*
G37*
G36*
X366445D02*
X360202D01*
X360426Y139426D01*
X360976Y138098D01*
X361775Y136902D01*
X362792Y135885D01*
X363987Y135087D01*
X365316Y134536D01*
X366445Y134312D01*
Y140555D01*
D02*
G37*
G36*
X341000Y136261D02*
Y130921D01*
X346340D01*
X346167Y131792D01*
X345684Y132959D01*
X344982Y134010D01*
X344088Y134903D01*
X343038Y135605D01*
X341871Y136088D01*
X341000Y136261D01*
D02*
G37*
G36*
X339000D02*
X338129Y136088D01*
X336962Y135605D01*
X335912Y134903D01*
X335018Y134010D01*
X334316Y132959D01*
X333833Y131792D01*
X333660Y130921D01*
X339000D01*
Y136261D01*
D02*
G37*
G36*
X141000D02*
Y130921D01*
X146340D01*
X146167Y131792D01*
X145684Y132959D01*
X144982Y134010D01*
X144088Y134903D01*
X143038Y135605D01*
X141871Y136088D01*
X141000Y136261D01*
D02*
G37*
G36*
X139000D02*
X138129Y136088D01*
X136962Y135605D01*
X135912Y134903D01*
X135018Y134010D01*
X134317Y132959D01*
X133833Y131792D01*
X133660Y130921D01*
X139000D01*
Y136261D01*
D02*
G37*
G36*
X146340Y128921D02*
X141000D01*
Y123581D01*
X141871Y123754D01*
X143038Y124238D01*
X144088Y124940D01*
X144982Y125833D01*
X145684Y126883D01*
X146167Y128050D01*
X146340Y128921D01*
D02*
G37*
G36*
X139000D02*
X133660D01*
X133833Y128050D01*
X134317Y126883D01*
X135018Y125833D01*
X135912Y124940D01*
X136962Y124238D01*
X138129Y123754D01*
X139000Y123581D01*
Y128921D01*
D02*
G37*
G36*
X391555Y125688D02*
Y119445D01*
X397798D01*
X397574Y120574D01*
X397024Y121902D01*
X396225Y123098D01*
X395208Y124115D01*
X394013Y124913D01*
X392684Y125464D01*
X391555Y125688D01*
D02*
G37*
G36*
X366445D02*
X365316Y125464D01*
X363987Y124913D01*
X362792Y124115D01*
X361775Y123098D01*
X360976Y121902D01*
X360426Y120574D01*
X360202Y119445D01*
X366445D01*
Y125688D01*
D02*
G37*
G36*
X397798Y117445D02*
X391555D01*
Y111202D01*
X392684Y111426D01*
X394013Y111976D01*
X395208Y112775D01*
X396225Y113792D01*
X397024Y114987D01*
X397574Y116316D01*
X397798Y117445D01*
D02*
G37*
G36*
X389555D02*
X383312D01*
X383536Y116316D01*
X384087Y114987D01*
X384885Y113792D01*
X385902Y112775D01*
X387098Y111976D01*
X388426Y111426D01*
X389555Y111202D01*
Y117445D01*
D02*
G37*
G36*
X374688D02*
X368445D01*
Y111202D01*
X369574Y111426D01*
X370902Y111976D01*
X372098Y112775D01*
X373115Y113792D01*
X373913Y114987D01*
X374464Y116316D01*
X374688Y117445D01*
D02*
G37*
G36*
X366445D02*
X360202D01*
X360426Y116316D01*
X360976Y114987D01*
X361775Y113792D01*
X362792Y112775D01*
X363987Y111976D01*
X365316Y111426D01*
X366445Y111202D01*
Y117445D01*
D02*
G37*
G36*
X123433Y111421D02*
X110433D01*
Y98421D01*
X113258D01*
X113450Y97959D01*
X113332Y97842D01*
X112740Y96816D01*
X112542Y96079D01*
X116933D01*
X121324D01*
X121126Y96816D01*
X120534Y97842D01*
X120416Y97959D01*
X120608Y98421D01*
X123433D01*
Y111421D01*
D02*
G37*
G36*
X140829Y108413D02*
X139171D01*
X137546Y108090D01*
X136015Y107456D01*
X134637Y106535D01*
X133465Y105363D01*
X132544Y103985D01*
X131910Y102454D01*
X131587Y100829D01*
Y99171D01*
X131910Y97546D01*
X132544Y96015D01*
X133465Y94637D01*
X134637Y93465D01*
X136015Y92544D01*
X137546Y91910D01*
X139171Y91587D01*
X140829D01*
X142454Y91910D01*
X143985Y92544D01*
X145363Y93465D01*
X146535Y94637D01*
X147456Y96015D01*
X148090Y97546D01*
X148413Y99171D01*
Y100829D01*
X148090Y102454D01*
X147456Y103985D01*
X146535Y105363D01*
X145363Y106535D01*
X143985Y107456D01*
X142454Y108090D01*
X140829Y108413D01*
D02*
G37*
G36*
X121324Y94079D02*
X117933D01*
Y90688D01*
X118670Y90885D01*
X119696Y91478D01*
X120534Y92316D01*
X121126Y93342D01*
X121324Y94079D01*
D02*
G37*
G36*
X115933D02*
X112542D01*
X112740Y93342D01*
X113332Y92316D01*
X114170Y91478D01*
X115196Y90885D01*
X115933Y90688D01*
Y94079D01*
D02*
G37*
G36*
X48461Y92204D02*
Y85961D01*
X54704D01*
X54479Y87090D01*
X53929Y88418D01*
X53130Y89614D01*
X52114Y90630D01*
X50918Y91429D01*
X49590Y91979D01*
X48461Y92204D01*
D02*
G37*
G36*
X46461D02*
X45331Y91979D01*
X44003Y91429D01*
X42808Y90630D01*
X41791Y89614D01*
X40992Y88418D01*
X40442Y87090D01*
X40217Y85961D01*
X46461D01*
Y92204D01*
D02*
G37*
G36*
X31000D02*
Y85961D01*
X37243D01*
X37019Y87090D01*
X36468Y88418D01*
X35670Y89614D01*
X34653Y90630D01*
X33457Y91429D01*
X32129Y91979D01*
X31000Y92204D01*
D02*
G37*
G36*
X29000D02*
X27871Y91979D01*
X26542Y91429D01*
X25347Y90630D01*
X24330Y89614D01*
X23531Y88418D01*
X22981Y87090D01*
X22757Y85961D01*
X29000D01*
Y92204D01*
D02*
G37*
G36*
X13539D02*
Y85961D01*
X19783D01*
X19558Y87090D01*
X19008Y88418D01*
X18209Y89614D01*
X17192Y90630D01*
X15997Y91429D01*
X14669Y91979D01*
X13539Y92204D01*
D02*
G37*
G36*
X11539D02*
X10410Y91979D01*
X9082Y91429D01*
X7886Y90630D01*
X6870Y89614D01*
X6071Y88418D01*
X5521Y87090D01*
X5296Y85961D01*
X11539D01*
Y92204D01*
D02*
G37*
G36*
X54704Y83961D02*
X48461D01*
Y77717D01*
X49590Y77942D01*
X50918Y78492D01*
X52114Y79291D01*
X53130Y80308D01*
X53929Y81503D01*
X54479Y82832D01*
X54704Y83961D01*
D02*
G37*
G36*
X46461D02*
X40217D01*
X40442Y82832D01*
X40992Y81503D01*
X41791Y80308D01*
X42808Y79291D01*
X44003Y78492D01*
X45331Y77942D01*
X46461Y77717D01*
Y83961D01*
D02*
G37*
G36*
X19783D02*
X13539D01*
Y77717D01*
X14669Y77942D01*
X15997Y78492D01*
X17192Y79291D01*
X18209Y80308D01*
X19008Y81503D01*
X19558Y82832D01*
X19783Y83961D01*
D02*
G37*
G36*
X11539D02*
X5296D01*
X5521Y82832D01*
X6071Y81503D01*
X6870Y80308D01*
X7886Y79291D01*
X9082Y78492D01*
X10410Y77942D01*
X11539Y77717D01*
Y83961D01*
D02*
G37*
G36*
X37243D02*
X22757D01*
X22981Y82832D01*
X23531Y81503D01*
X24330Y80308D01*
X24587Y80051D01*
X24509Y79557D01*
X23063Y78821D01*
X21377Y77596D01*
X19904Y76123D01*
X18679Y74437D01*
X17943Y72991D01*
X17449Y72913D01*
X17192Y73170D01*
X15997Y73968D01*
X14669Y74519D01*
X13539Y74743D01*
Y67500D01*
Y60257D01*
X14669Y60481D01*
X15997Y61032D01*
X17192Y61830D01*
X17449Y62087D01*
X17943Y62009D01*
X18679Y60563D01*
X19904Y58877D01*
X21377Y57404D01*
X23063Y56179D01*
X24509Y55443D01*
X24587Y54949D01*
X24330Y54692D01*
X23531Y53497D01*
X22981Y52169D01*
X22757Y51039D01*
X37243D01*
X37019Y52169D01*
X36468Y53497D01*
X35670Y54692D01*
X35413Y54949D01*
X35491Y55443D01*
X36937Y56179D01*
X38623Y57404D01*
X40096Y58877D01*
X41321Y60563D01*
X42057Y62009D01*
X42551Y62087D01*
X42808Y61830D01*
X44003Y61032D01*
X45331Y60481D01*
X46461Y60257D01*
Y67500D01*
Y74743D01*
X45331Y74519D01*
X44003Y73968D01*
X42808Y73170D01*
X42551Y72913D01*
X42057Y72991D01*
X41321Y74437D01*
X40096Y76123D01*
X38623Y77596D01*
X36937Y78821D01*
X35491Y79557D01*
X35413Y80051D01*
X35670Y80308D01*
X36468Y81503D01*
X37019Y82832D01*
X37243Y83961D01*
D02*
G37*
G36*
X48461Y74743D02*
Y68500D01*
X54704D01*
X54479Y69629D01*
X53929Y70957D01*
X53130Y72153D01*
X52114Y73170D01*
X50918Y73968D01*
X49590Y74519D01*
X48461Y74743D01*
D02*
G37*
G36*
X11539D02*
X10410Y74519D01*
X9082Y73968D01*
X7886Y73170D01*
X6870Y72153D01*
X6071Y70957D01*
X5521Y69629D01*
X5296Y68500D01*
X11539D01*
Y74743D01*
D02*
G37*
G36*
X346340Y128921D02*
X333660D01*
X333833Y128050D01*
X334316Y126883D01*
X335018Y125833D01*
X335912Y124940D01*
X336962Y124238D01*
X338129Y123754D01*
X338325Y123715D01*
Y123206D01*
X337546Y123051D01*
X336015Y122416D01*
X334637Y121496D01*
X333465Y120324D01*
X332544Y118946D01*
X331910Y117415D01*
X331587Y115789D01*
Y114132D01*
X331910Y112506D01*
X332544Y110975D01*
X333465Y109597D01*
X334637Y108425D01*
X335601Y107781D01*
Y107180D01*
X334637Y106535D01*
X333465Y105363D01*
X332544Y103985D01*
X331910Y102454D01*
X331587Y100829D01*
Y99171D01*
X331910Y97546D01*
X332544Y96015D01*
X333465Y94637D01*
X334637Y93465D01*
X335601Y92820D01*
Y92219D01*
X334637Y91575D01*
X333465Y90403D01*
X332544Y89025D01*
X331910Y87493D01*
X331587Y85868D01*
Y84211D01*
X331910Y82585D01*
X332544Y81054D01*
X333465Y79676D01*
X334637Y78504D01*
X335601Y77860D01*
Y77258D01*
X334637Y76614D01*
X333465Y75442D01*
X332544Y74064D01*
X331910Y72533D01*
X331587Y70907D01*
Y69250D01*
X331910Y67625D01*
X332544Y66093D01*
X333465Y64715D01*
X334637Y63544D01*
X336015Y62623D01*
X337546Y61989D01*
X339171Y61665D01*
X340829D01*
X342454Y61989D01*
X343985Y62623D01*
X345363Y63544D01*
X346535Y64715D01*
X347456Y66093D01*
X348090Y67625D01*
X348413Y69250D01*
Y70907D01*
X348090Y72533D01*
X347456Y74064D01*
X346535Y75442D01*
X345363Y76614D01*
X344399Y77258D01*
Y77860D01*
X345363Y78504D01*
X346535Y79676D01*
X347456Y81054D01*
X348090Y82585D01*
X348413Y84211D01*
Y85868D01*
X348090Y87493D01*
X347456Y89025D01*
X346535Y90403D01*
X345363Y91575D01*
X344399Y92219D01*
Y92820D01*
X345363Y93465D01*
X346535Y94637D01*
X347456Y96015D01*
X348090Y97546D01*
X348413Y99171D01*
Y100829D01*
X348090Y102454D01*
X347456Y103985D01*
X346535Y105363D01*
X345363Y106535D01*
X344399Y107180D01*
Y107781D01*
X345363Y108425D01*
X346535Y109597D01*
X347456Y110975D01*
X348090Y112506D01*
X348413Y114132D01*
Y115789D01*
X348090Y117415D01*
X347456Y118946D01*
X346535Y120324D01*
X345363Y121496D01*
X343985Y122416D01*
X342454Y123051D01*
X341675Y123206D01*
Y123715D01*
X341871Y123754D01*
X343038Y124238D01*
X344088Y124940D01*
X344982Y125833D01*
X345684Y126883D01*
X346167Y128050D01*
X346340Y128921D01*
D02*
G37*
G36*
X140829Y78492D02*
X139171D01*
X137546Y78169D01*
X136015Y77535D01*
X134637Y76614D01*
X133465Y75442D01*
X132544Y74064D01*
X131910Y72533D01*
X131587Y70907D01*
Y69250D01*
X131910Y67625D01*
X132544Y66093D01*
X133465Y64715D01*
X134637Y63544D01*
X136015Y62623D01*
X137546Y61989D01*
X139171Y61665D01*
X140829D01*
X142454Y61989D01*
X143985Y62623D01*
X145363Y63544D01*
X146535Y64715D01*
X147456Y66093D01*
X148090Y67625D01*
X148413Y69250D01*
Y70907D01*
X148090Y72533D01*
X147456Y74064D01*
X146535Y75442D01*
X145363Y76614D01*
X143985Y77535D01*
X142454Y78169D01*
X140829Y78492D01*
D02*
G37*
G36*
X54704Y66500D02*
X48461D01*
Y60257D01*
X49590Y60481D01*
X50918Y61032D01*
X52114Y61830D01*
X53130Y62847D01*
X53929Y64043D01*
X54479Y65371D01*
X54704Y66500D01*
D02*
G37*
G36*
X11539D02*
X5296D01*
X5521Y65371D01*
X6071Y64043D01*
X6870Y62847D01*
X7886Y61830D01*
X9082Y61032D01*
X10410Y60481D01*
X11539Y60257D01*
Y66500D01*
D02*
G37*
G36*
X48461Y57283D02*
Y51039D01*
X54704D01*
X54479Y52169D01*
X53929Y53497D01*
X53130Y54692D01*
X52114Y55709D01*
X50918Y56508D01*
X49590Y57058D01*
X48461Y57283D01*
D02*
G37*
G36*
X46461D02*
X45331Y57058D01*
X44003Y56508D01*
X42808Y55709D01*
X41791Y54692D01*
X40992Y53497D01*
X40442Y52169D01*
X40217Y51039D01*
X46461D01*
Y57283D01*
D02*
G37*
G36*
X13539D02*
Y51039D01*
X19783D01*
X19558Y52169D01*
X19008Y53497D01*
X18209Y54692D01*
X17192Y55709D01*
X15997Y56508D01*
X14669Y57058D01*
X13539Y57283D01*
D02*
G37*
G36*
X11539D02*
X10410Y57058D01*
X9082Y56508D01*
X7886Y55709D01*
X6870Y54692D01*
X6071Y53497D01*
X5521Y52169D01*
X5296Y51039D01*
X11539D01*
Y57283D01*
D02*
G37*
G36*
X54704Y49039D02*
X48461D01*
Y42796D01*
X49590Y43021D01*
X50918Y43571D01*
X52114Y44370D01*
X53130Y45386D01*
X53929Y46582D01*
X54479Y47910D01*
X54704Y49039D01*
D02*
G37*
G36*
X46461D02*
X40217D01*
X40442Y47910D01*
X40992Y46582D01*
X41791Y45386D01*
X42808Y44370D01*
X44003Y43571D01*
X45331Y43021D01*
X46461Y42796D01*
Y49039D01*
D02*
G37*
G36*
X37243D02*
X31000D01*
Y42796D01*
X32129Y43021D01*
X33457Y43571D01*
X34653Y44370D01*
X35670Y45386D01*
X36468Y46582D01*
X37019Y47910D01*
X37243Y49039D01*
D02*
G37*
G36*
X29000D02*
X22757D01*
X22981Y47910D01*
X23531Y46582D01*
X24330Y45386D01*
X25347Y44370D01*
X26542Y43571D01*
X27871Y43021D01*
X29000Y42796D01*
Y49039D01*
D02*
G37*
G36*
X19783D02*
X13539D01*
Y42796D01*
X14669Y43021D01*
X15997Y43571D01*
X17192Y44370D01*
X18209Y45386D01*
X19008Y46582D01*
X19558Y47910D01*
X19783Y49039D01*
D02*
G37*
G36*
X11539D02*
X5296D01*
X5521Y47910D01*
X6071Y46582D01*
X6870Y45386D01*
X7886Y44370D01*
X9082Y43571D01*
X10410Y43021D01*
X11539Y42796D01*
Y49039D01*
D02*
G37*
G36*
X360921Y17324D02*
Y13933D01*
X364312D01*
X364115Y14670D01*
X363522Y15696D01*
X362684Y16534D01*
X361658Y17126D01*
X360921Y17324D01*
D02*
G37*
G36*
X325921D02*
Y13933D01*
X329312D01*
X329115Y14670D01*
X328522Y15696D01*
X327684Y16534D01*
X326658Y17126D01*
X325921Y17324D01*
D02*
G37*
G36*
X290921D02*
Y13933D01*
X294312D01*
X294115Y14670D01*
X293522Y15696D01*
X292684Y16534D01*
X291658Y17126D01*
X290921Y17324D01*
D02*
G37*
G36*
X255921D02*
Y13933D01*
X259312D01*
X259115Y14670D01*
X258522Y15696D01*
X257684Y16534D01*
X256658Y17126D01*
X255921Y17324D01*
D02*
G37*
G36*
X220921D02*
Y13933D01*
X224312D01*
X224115Y14670D01*
X223522Y15696D01*
X222684Y16534D01*
X221658Y17126D01*
X220921Y17324D01*
D02*
G37*
G36*
X185921D02*
Y13933D01*
X189312D01*
X189115Y14670D01*
X188522Y15696D01*
X187684Y16534D01*
X186658Y17126D01*
X185921Y17324D01*
D02*
G37*
G36*
X150921D02*
Y13933D01*
X154312D01*
X154115Y14670D01*
X153522Y15696D01*
X152684Y16534D01*
X151658Y17126D01*
X150921Y17324D01*
D02*
G37*
G36*
X115921D02*
Y13933D01*
X119312D01*
X119115Y14670D01*
X118522Y15696D01*
X117684Y16534D01*
X116658Y17126D01*
X115921Y17324D01*
D02*
G37*
G36*
X364312Y11933D02*
X360921D01*
Y8542D01*
X361658Y8740D01*
X362684Y9332D01*
X363522Y10170D01*
X364115Y11196D01*
X364312Y11933D01*
D02*
G37*
G36*
X356579Y19433D02*
X343579D01*
Y6433D01*
X356579D01*
Y9258D01*
X357041Y9450D01*
X357158Y9332D01*
X358184Y8740D01*
X358921Y8542D01*
Y12933D01*
Y17324D01*
X358184Y17126D01*
X357158Y16534D01*
X357041Y16417D01*
X356579Y16608D01*
Y19433D01*
D02*
G37*
G36*
X329312Y11933D02*
X325921D01*
Y8542D01*
X326658Y8740D01*
X327684Y9332D01*
X328522Y10170D01*
X329115Y11196D01*
X329312Y11933D01*
D02*
G37*
G36*
X321579Y19433D02*
X308579D01*
Y6433D01*
X321579D01*
Y9258D01*
X322041Y9450D01*
X322158Y9332D01*
X323184Y8740D01*
X323921Y8542D01*
Y12933D01*
Y17324D01*
X323184Y17126D01*
X322158Y16534D01*
X322041Y16417D01*
X321579Y16608D01*
Y19433D01*
D02*
G37*
G36*
X294312Y11933D02*
X290921D01*
Y8542D01*
X291658Y8740D01*
X292684Y9332D01*
X293522Y10170D01*
X294115Y11196D01*
X294312Y11933D01*
D02*
G37*
G36*
X286579Y19433D02*
X273579D01*
Y6433D01*
X286579D01*
Y9258D01*
X287041Y9450D01*
X287158Y9332D01*
X288184Y8740D01*
X288921Y8542D01*
Y12933D01*
Y17324D01*
X288184Y17126D01*
X287158Y16534D01*
X287041Y16417D01*
X286579Y16608D01*
Y19433D01*
D02*
G37*
G36*
X259312Y11933D02*
X255921D01*
Y8542D01*
X256658Y8740D01*
X257684Y9332D01*
X258522Y10170D01*
X259115Y11196D01*
X259312Y11933D01*
D02*
G37*
G36*
X251579Y19433D02*
X238579D01*
Y6433D01*
X251579D01*
Y9258D01*
X252041Y9450D01*
X252158Y9332D01*
X253184Y8740D01*
X253921Y8542D01*
Y12933D01*
Y17324D01*
X253184Y17126D01*
X252158Y16534D01*
X252041Y16417D01*
X251579Y16608D01*
Y19433D01*
D02*
G37*
G36*
X224312Y11933D02*
X220921D01*
Y8542D01*
X221658Y8740D01*
X222684Y9332D01*
X223522Y10170D01*
X224115Y11196D01*
X224312Y11933D01*
D02*
G37*
G36*
X216579Y19433D02*
X203579D01*
Y6433D01*
X216579D01*
Y9258D01*
X217041Y9450D01*
X217158Y9332D01*
X218184Y8740D01*
X218921Y8542D01*
Y12933D01*
Y17324D01*
X218184Y17126D01*
X217158Y16534D01*
X217041Y16417D01*
X216579Y16608D01*
Y19433D01*
D02*
G37*
G36*
X189312Y11933D02*
X185921D01*
Y8542D01*
X186658Y8740D01*
X187684Y9332D01*
X188522Y10170D01*
X189115Y11196D01*
X189312Y11933D01*
D02*
G37*
G36*
X181579Y19433D02*
X168579D01*
Y6433D01*
X181579D01*
Y9258D01*
X182041Y9450D01*
X182158Y9332D01*
X183184Y8740D01*
X183921Y8542D01*
Y12933D01*
Y17324D01*
X183184Y17126D01*
X182158Y16534D01*
X182041Y16417D01*
X181579Y16608D01*
Y19433D01*
D02*
G37*
G36*
X154312Y11933D02*
X150921D01*
Y8542D01*
X151658Y8740D01*
X152684Y9332D01*
X153522Y10170D01*
X154115Y11196D01*
X154312Y11933D01*
D02*
G37*
G36*
X146579Y19433D02*
X133579D01*
Y6433D01*
X146579D01*
Y9258D01*
X147041Y9450D01*
X147158Y9332D01*
X148184Y8740D01*
X148921Y8542D01*
Y12933D01*
Y17324D01*
X148184Y17126D01*
X147158Y16534D01*
X147041Y16417D01*
X146579Y16608D01*
Y19433D01*
D02*
G37*
G36*
X119312Y11933D02*
X115921D01*
Y8542D01*
X116658Y8740D01*
X117684Y9332D01*
X118522Y10170D01*
X119115Y11196D01*
X119312Y11933D01*
D02*
G37*
G36*
X111579Y19433D02*
X98579D01*
Y6433D01*
X111579D01*
Y9258D01*
X112041Y9450D01*
X112158Y9332D01*
X113184Y8740D01*
X113921Y8542D01*
Y12933D01*
Y17324D01*
X113184Y17126D01*
X112158Y16534D01*
X112041Y16417D01*
X111579Y16608D01*
Y19433D01*
D02*
G37*
%LPD*%
D25*
X116933Y95079D02*
D03*
X105079Y187067D02*
D03*
X140079D02*
D03*
X175079D02*
D03*
X210079D02*
D03*
X245079D02*
D03*
X280079D02*
D03*
X315079D02*
D03*
X350079D02*
D03*
X359921Y12933D02*
D03*
X324921D02*
D03*
X289921D02*
D03*
X254921D02*
D03*
X219921D02*
D03*
X184921D02*
D03*
X149921D02*
D03*
X114921D02*
D03*
D26*
X116933Y104921D02*
D03*
D27*
X114921Y187067D02*
D03*
X149921D02*
D03*
X184921D02*
D03*
X219921D02*
D03*
X254921D02*
D03*
X289921D02*
D03*
X324921D02*
D03*
X359921D02*
D03*
X350079Y12933D02*
D03*
X315079D02*
D03*
X280079D02*
D03*
X245079D02*
D03*
X210079D02*
D03*
X175079D02*
D03*
X140079D02*
D03*
X105079D02*
D03*
D43*
X30000Y132500D02*
D03*
Y67500D02*
D03*
D44*
X12539Y149961D02*
D03*
X30000D02*
D03*
X47461D02*
D03*
Y132500D02*
D03*
X12539D02*
D03*
Y115039D02*
D03*
X30000D02*
D03*
X47461D02*
D03*
X12539Y84961D02*
D03*
X30000D02*
D03*
X47461D02*
D03*
Y67500D02*
D03*
X12539D02*
D03*
Y50039D02*
D03*
X30000D02*
D03*
X47461D02*
D03*
X379000Y130000D02*
D03*
X390555Y118445D02*
D03*
X367445D02*
D03*
X390555Y141555D02*
D03*
X367445D02*
D03*
X379000Y70000D02*
D03*
X390555Y58445D02*
D03*
X367445D02*
D03*
X390555Y81555D02*
D03*
X367445D02*
D03*
D45*
X15000Y185000D02*
D03*
X385000D02*
D03*
Y15000D02*
D03*
X15000D02*
D03*
D46*
X140000Y70079D02*
D03*
Y100000D02*
D03*
Y129921D02*
D03*
X340000D02*
D03*
Y114961D02*
D03*
Y100000D02*
D03*
Y85039D02*
D03*
Y70079D02*
D03*
D47*
X351000Y111000D02*
D03*
X95500Y40000D02*
D03*
X70000D02*
D03*
X213000Y120000D02*
D03*
Y136000D02*
D03*
X187000Y120000D02*
D03*
Y136000D02*
D03*
X46000Y180000D02*
D03*
Y20000D02*
D03*
X302500Y74000D02*
D03*
Y126000D02*
D03*
M02*
