M48
;Layer_Color=9474304
;FILE_FORMAT=2:5
INCH,LZ
;TYPE=PLATED
T1F00S00C0.02800
T2F00S00C0.04000
T3F00S00C0.06299
T4F00S00C0.07283
T5F00S00C0.13386
;TYPE=NON_PLATED
T6F00S00C0.12598
T7F00S00C0.20472
%
T01
X0046Y002
X007Y004
X00955
X0046Y018
X0187Y0136
Y012
X0213
Y0136
X03025Y0126
Y0074
X0351Y0111
T02
X0350079Y0012933
X0359921
X0324921
X0315079
X0289921
X0280079
X0254921
X0245079
X0219921
X0210079
X0184921
X0175079
X0149921
X0140079
X0114921
X0105079
X0116933Y0095079
Y0104921
X0114921Y0187067
X0105079
X0140079
X0149921
X0175079
X0184921
X0210079
X0219921
X0245079
X0254921
X0280079
X0289921
X0315079
X0324921
X0350079
X0359921
T03
X014Y0070079
Y01
Y0129921
X034
Y0114961
Y01
Y0085039
Y0070079
T04
X0367445Y0058445
X0390555
X0047461Y0050039
X003
X0012539
Y00675
Y0084961
Y0115039
Y01325
Y0149961
X003
X0047461
Y01325
Y0115039
X003
Y0084961
X0047461
Y00675
X0367445Y0081555
X0390555
Y0118445
X0367445
Y0141555
X0390555
T05
X0385Y0015
X0015
Y0185
X0385
T06
X0379Y007
Y013
T07
X003Y00675
Y01325
M30
