G04*
G04 #@! TF.GenerationSoftware,Altium Limited,Altium Designer,21.0.9 (235)*
G04*
G04 Layer_Color=16711935*
%FSLAX25Y25*%
%MOIN*%
G70*
G04*
G04 #@! TF.SameCoordinates,248EADF4-6E9D-4877-B34C-AAFE22DB1BC7*
G04*
G04*
G04 #@! TF.FilePolarity,Positive*
G04*
G01*
G75*
%ADD12C,0.01000*%
D12*
X400000Y188500D02*
X399956Y189502D01*
X399825Y190497D01*
X399608Y191476D01*
X399307Y192433D01*
X398922Y193360D01*
X398459Y194250D01*
X397920Y195096D01*
X397309Y195892D01*
X396632Y196632D01*
X395892Y197310D01*
X395096Y197920D01*
X394250Y198459D01*
X393360Y198923D01*
X392433Y199306D01*
X391476Y199608D01*
X390497Y199825D01*
X389502Y199956D01*
X388500Y200000D01*
Y0D02*
X389502Y44D01*
X390497Y175D01*
X391476Y392D01*
X392433Y693D01*
X393360Y1077D01*
X394250Y1541D01*
X395096Y2080D01*
X395892Y2691D01*
X396632Y3368D01*
X397309Y4108D01*
X397920Y4904D01*
X398459Y5750D01*
X398922Y6640D01*
X399307Y7567D01*
X399608Y8524D01*
X399825Y9503D01*
X399956Y10498D01*
X400000Y11500D01*
X11500Y200000D02*
X10498Y199956D01*
X9503Y199825D01*
X8524Y199608D01*
X7567Y199306D01*
X6640Y198923D01*
X5750Y198459D01*
X4904Y197920D01*
X4108Y197310D01*
X3368Y196632D01*
X2691Y195892D01*
X2080Y195096D01*
X1541Y194250D01*
X1077Y193360D01*
X693Y192433D01*
X392Y191476D01*
X175Y190497D01*
X44Y189502D01*
X0Y188500D01*
Y11500D02*
X44Y10498D01*
X175Y9503D01*
X392Y8524D01*
X693Y7567D01*
X1077Y6640D01*
X1541Y5750D01*
X2080Y4904D01*
X2691Y4108D01*
X3368Y3368D01*
X4108Y2691D01*
X4904Y2080D01*
X5750Y1541D01*
X6640Y1077D01*
X7567Y693D01*
X8524Y392D01*
X9503Y175D01*
X10498Y44D01*
X11500Y0D01*
X400000Y11500D02*
X400000Y188500D01*
X11500Y200000D02*
X388500D01*
X11500Y0D02*
X388500Y0D01*
X-0Y11500D02*
Y188500D01*
M02*
