M48
;Layer_Color=9474304
;FILE_FORMAT=2:4
INCH,TZ
;TYPE=PLATED
T1F00S00C0.0280
T2F00S00C0.0400
T3F00S00C0.0630
T4F00S00C0.0728
T5F00S00C0.1339
;TYPE=NON_PLATED
T6F00S00C0.1260
T7F00S00C0.2047
%
T01
X4600Y2000
X7000Y4000
X9550
X4600Y18000
X18700Y13600
Y12000
X21300
Y13600
X30250Y12600
Y7400
X35100Y11100
T02
X35008Y1293
X35992
X32492
X31508
X28992
X28008
X25492
X24508
X21992
X21008
X18492
X17508
X14992
X14008
X11492
X10508
X11693Y9508
Y10492
X11492Y18707
X10508
X14008
X14992
X17508
X18492
X21008
X21992
X24508
X25492
X28008
X28992
X31508
X32492
X35008
X35992
T03
X14000Y7008
Y10000
Y12992
X34000
Y11496
Y10000
Y8504
Y7008
T04
X36744Y5844
X39056
X4746Y5004
X3000
X1254
Y6750
Y8496
Y11504
Y13250
Y14996
X3000
X4746
Y13250
Y11504
X3000
Y8496
X4746
Y6750
X36744Y8156
X39056
Y11844
X36744
Y14156
X39056
T05
X38500Y1500
X1500
Y18500
X38500
T06
X37900Y7000
Y13000
T07
X3000Y6750
Y13250
M30
