G04*
G04 #@! TF.GenerationSoftware,Altium Limited,Altium Designer,21.0.9 (235)*
G04*
G04 Layer_Physical_Order=2*
G04 Layer_Color=16711680*
%FSLAX25Y25*%
%MOIN*%
G70*
G04*
G04 #@! TF.SameCoordinates,BF538C37-7BC0-418B-8844-18137046693D*
G04*
G04*
G04 #@! TF.FilePolarity,Positive*
G04*
G01*
G75*
%ADD25C,0.07000*%
%ADD26R,0.07000X0.07000*%
%ADD27R,0.07000X0.07000*%
%ADD43C,0.20472*%
%ADD44C,0.12598*%
%ADD45C,0.21654*%
%ADD46C,0.10827*%
%ADD47C,0.05000*%
G36*
X388528Y200000D02*
X389280Y200000D01*
X390771Y199804D01*
X392223Y199415D01*
X393613Y198839D01*
X394915Y198087D01*
X396108Y197172D01*
X397172Y196108D01*
X398087Y194915D01*
X398839Y193613D01*
X399414Y192223D01*
X399804Y190771D01*
X400000Y189280D01*
X400000Y188528D01*
X400000Y188528D01*
X400000Y188528D01*
X400000Y11742D01*
X400000Y10972D01*
X399799Y9446D01*
X399401Y7959D01*
X398812Y6537D01*
X398042Y5204D01*
X397105Y3983D01*
X396017Y2895D01*
X394796Y1958D01*
X393463Y1188D01*
X392041Y599D01*
X390554Y201D01*
X389028Y-0D01*
X388258Y-0D01*
X388258Y0D01*
X388258Y-0D01*
X10464Y0D01*
X9778Y-0D01*
X8418Y179D01*
X7093Y534D01*
X5826Y1059D01*
X4638Y1745D01*
X3550Y2580D01*
X2580Y3550D01*
X1745Y4638D01*
X1059Y5826D01*
X534Y7093D01*
X179Y8418D01*
X0Y9778D01*
X0Y10464D01*
X0D01*
Y188258D01*
X-0Y189028D01*
X201Y190554D01*
X599Y192041D01*
X1188Y193463D01*
X1958Y194796D01*
X2895Y196017D01*
X3983Y197105D01*
X5204Y198042D01*
X6537Y198812D01*
X7959Y199401D01*
X9446Y199799D01*
X10972Y200000D01*
X11742Y200000D01*
X11742Y200000D01*
X388528Y200000D01*
D02*
G37*
%LPC*%
G36*
X365921Y193067D02*
X353921D01*
Y190296D01*
X353421Y190088D01*
X352842Y190668D01*
X351816Y191260D01*
X351079Y191458D01*
Y187067D01*
Y182676D01*
X351816Y182874D01*
X352842Y183466D01*
X353421Y184046D01*
X353921Y183838D01*
Y181067D01*
X365921D01*
Y193067D01*
D02*
G37*
G36*
X330921D02*
X318921D01*
Y190296D01*
X318421Y190088D01*
X317842Y190668D01*
X316816Y191260D01*
X316079Y191458D01*
Y187067D01*
Y182676D01*
X316816Y182874D01*
X317842Y183466D01*
X318421Y184046D01*
X318921Y183838D01*
Y181067D01*
X330921D01*
Y193067D01*
D02*
G37*
G36*
X295921D02*
X283921D01*
Y190296D01*
X283421Y190088D01*
X282842Y190668D01*
X281816Y191260D01*
X281079Y191458D01*
Y187067D01*
Y182676D01*
X281816Y182874D01*
X282842Y183466D01*
X283421Y184046D01*
X283921Y183838D01*
Y181067D01*
X295921D01*
Y193067D01*
D02*
G37*
G36*
X260921D02*
X248921D01*
Y190296D01*
X248421Y190088D01*
X247842Y190668D01*
X246816Y191260D01*
X246079Y191458D01*
Y187067D01*
Y182676D01*
X246816Y182874D01*
X247842Y183466D01*
X248421Y184046D01*
X248921Y183838D01*
Y181067D01*
X260921D01*
Y193067D01*
D02*
G37*
G36*
X225921D02*
X213921D01*
Y190296D01*
X213421Y190088D01*
X212842Y190668D01*
X211816Y191260D01*
X211079Y191458D01*
Y187067D01*
Y182676D01*
X211816Y182874D01*
X212842Y183466D01*
X213421Y184046D01*
X213921Y183838D01*
Y181067D01*
X225921D01*
Y193067D01*
D02*
G37*
G36*
X190921D02*
X178921D01*
Y190296D01*
X178421Y190088D01*
X177842Y190668D01*
X176816Y191260D01*
X176079Y191458D01*
Y187067D01*
Y182676D01*
X176816Y182874D01*
X177842Y183466D01*
X178421Y184046D01*
X178921Y183838D01*
Y181067D01*
X190921D01*
Y193067D01*
D02*
G37*
G36*
X155921D02*
X143921D01*
Y190296D01*
X143421Y190088D01*
X142842Y190668D01*
X141816Y191260D01*
X141079Y191458D01*
Y187067D01*
Y182676D01*
X141816Y182874D01*
X142842Y183466D01*
X143421Y184046D01*
X143921Y183838D01*
Y181067D01*
X155921D01*
Y193067D01*
D02*
G37*
G36*
X120921D02*
X108921D01*
Y190296D01*
X108421Y190088D01*
X107842Y190668D01*
X106816Y191260D01*
X106079Y191458D01*
Y187067D01*
Y182676D01*
X106816Y182874D01*
X107842Y183466D01*
X108421Y184046D01*
X108921Y183838D01*
Y181067D01*
X120921D01*
Y193067D01*
D02*
G37*
G36*
X174079Y191458D02*
X173342Y191260D01*
X172316Y190668D01*
X171478Y189830D01*
X170885Y188804D01*
X170688Y188067D01*
X174079D01*
Y191458D01*
D02*
G37*
G36*
X349079D02*
X348342Y191260D01*
X347316Y190668D01*
X346478Y189830D01*
X345885Y188804D01*
X345688Y188067D01*
X349079D01*
Y191458D01*
D02*
G37*
G36*
X279079D02*
X278342Y191260D01*
X277316Y190668D01*
X276478Y189830D01*
X275885Y188804D01*
X275688Y188067D01*
X279079D01*
Y191458D01*
D02*
G37*
G36*
X244079D02*
X243342Y191260D01*
X242316Y190668D01*
X241478Y189830D01*
X240885Y188804D01*
X240688Y188067D01*
X244079D01*
Y191458D01*
D02*
G37*
G36*
X139079D02*
X138342Y191260D01*
X137316Y190668D01*
X136478Y189830D01*
X135885Y188804D01*
X135688Y188067D01*
X139079D01*
Y191458D01*
D02*
G37*
G36*
X314079D02*
X313342Y191260D01*
X312316Y190668D01*
X311478Y189830D01*
X310885Y188804D01*
X310688Y188067D01*
X314079D01*
Y191458D01*
D02*
G37*
G36*
X209079D02*
X208342Y191260D01*
X207316Y190668D01*
X206478Y189830D01*
X205885Y188804D01*
X205688Y188067D01*
X209079D01*
Y191458D01*
D02*
G37*
G36*
X104079D02*
X103342Y191260D01*
X102316Y190668D01*
X101478Y189830D01*
X100885Y188804D01*
X100688Y188067D01*
X104079D01*
Y191458D01*
D02*
G37*
G36*
X349079Y186067D02*
X345688D01*
X345885Y185330D01*
X346478Y184304D01*
X347316Y183466D01*
X348342Y182874D01*
X349079Y182676D01*
Y186067D01*
D02*
G37*
G36*
X314079D02*
X310688D01*
X310885Y185330D01*
X311478Y184304D01*
X312316Y183466D01*
X313342Y182874D01*
X314079Y182676D01*
Y186067D01*
D02*
G37*
G36*
X279079D02*
X275688D01*
X275885Y185330D01*
X276478Y184304D01*
X277316Y183466D01*
X278342Y182874D01*
X279079Y182676D01*
Y186067D01*
D02*
G37*
G36*
X244079D02*
X240688D01*
X240885Y185330D01*
X241478Y184304D01*
X242316Y183466D01*
X243342Y182874D01*
X244079Y182676D01*
Y186067D01*
D02*
G37*
G36*
X209079D02*
X205688D01*
X205885Y185330D01*
X206478Y184304D01*
X207316Y183466D01*
X208342Y182874D01*
X209079Y182676D01*
Y186067D01*
D02*
G37*
G36*
X174079D02*
X170688D01*
X170885Y185330D01*
X171478Y184304D01*
X172316Y183466D01*
X173342Y182874D01*
X174079Y182676D01*
Y186067D01*
D02*
G37*
G36*
X139079D02*
X135688D01*
X135885Y185330D01*
X136478Y184304D01*
X137316Y183466D01*
X138342Y182874D01*
X139079Y182676D01*
Y186067D01*
D02*
G37*
G36*
X104079D02*
X100688D01*
X100885Y185330D01*
X101478Y184304D01*
X102316Y183466D01*
X103342Y182874D01*
X104079Y182676D01*
Y186067D01*
D02*
G37*
G36*
X47000Y183355D02*
Y181000D01*
X49356D01*
X49262Y181351D01*
X48801Y182149D01*
X48149Y182801D01*
X47351Y183262D01*
X47000Y183355D01*
D02*
G37*
G36*
X45000D02*
X44649Y183262D01*
X43851Y182801D01*
X43199Y182149D01*
X42739Y181351D01*
X42645Y181000D01*
X45000D01*
Y183355D01*
D02*
G37*
G36*
X49356Y179000D02*
X47000D01*
Y176645D01*
X47351Y176739D01*
X48149Y177199D01*
X48801Y177851D01*
X49262Y178649D01*
X49356Y179000D01*
D02*
G37*
G36*
X45000D02*
X42645D01*
X42739Y178649D01*
X43199Y177851D01*
X43851Y177199D01*
X44649Y176739D01*
X45000Y176645D01*
Y179000D01*
D02*
G37*
G36*
X386049Y198327D02*
X383951D01*
X381879Y197999D01*
X379884Y197350D01*
X378015Y196398D01*
X376318Y195165D01*
X374835Y193682D01*
X373602Y191985D01*
X372650Y190116D01*
X372001Y188121D01*
X371673Y186049D01*
Y183951D01*
X372001Y181879D01*
X372650Y179884D01*
X373602Y178015D01*
X374835Y176318D01*
X376318Y174835D01*
X378015Y173602D01*
X379884Y172650D01*
X381879Y172001D01*
X383951Y171673D01*
X386049D01*
X388121Y172001D01*
X390116Y172650D01*
X391985Y173602D01*
X393682Y174835D01*
X395165Y176318D01*
X396398Y178015D01*
X397350Y179884D01*
X397999Y181879D01*
X398327Y183951D01*
Y186049D01*
X397999Y188121D01*
X397350Y190116D01*
X396398Y191985D01*
X395165Y193682D01*
X393682Y195165D01*
X391985Y196398D01*
X390116Y197350D01*
X388121Y197999D01*
X386049Y198327D01*
D02*
G37*
G36*
X16049D02*
X13951D01*
X11879Y197999D01*
X9884Y197350D01*
X8015Y196398D01*
X6318Y195165D01*
X4835Y193682D01*
X3602Y191985D01*
X2650Y190116D01*
X2001Y188121D01*
X1673Y186049D01*
Y183951D01*
X2001Y181879D01*
X2650Y179884D01*
X3602Y178015D01*
X4835Y176318D01*
X6318Y174835D01*
X8015Y173602D01*
X9884Y172650D01*
X11879Y172001D01*
X13951Y171673D01*
X16049D01*
X18121Y172001D01*
X20116Y172650D01*
X21985Y173602D01*
X23682Y174835D01*
X25165Y176318D01*
X26398Y178015D01*
X27350Y179884D01*
X27999Y181879D01*
X28327Y183951D01*
Y186049D01*
X27999Y188121D01*
X27350Y190116D01*
X26398Y191985D01*
X25165Y193682D01*
X23682Y195165D01*
X21985Y196398D01*
X20116Y197350D01*
X18121Y197999D01*
X16049Y198327D01*
D02*
G37*
G36*
X48327Y158760D02*
X46594D01*
X44894Y158422D01*
X43293Y157758D01*
X41851Y156795D01*
X40626Y155570D01*
X39663Y154129D01*
X39000Y152527D01*
X38980Y152430D01*
X38480D01*
X38461Y152527D01*
X37798Y154129D01*
X36835Y155570D01*
X35609Y156795D01*
X34168Y157758D01*
X32567Y158422D01*
X30867Y158760D01*
X29133D01*
X27433Y158422D01*
X25832Y157758D01*
X24391Y156795D01*
X23165Y155570D01*
X22202Y154129D01*
X21539Y152527D01*
X21520Y152430D01*
X21020D01*
X21000Y152527D01*
X20337Y154129D01*
X19374Y155570D01*
X18148Y156795D01*
X16707Y157758D01*
X15106Y158422D01*
X13406Y158760D01*
X11673D01*
X9973Y158422D01*
X8371Y157758D01*
X6930Y156795D01*
X5705Y155570D01*
X4742Y154129D01*
X4078Y152527D01*
X3740Y150827D01*
Y149094D01*
X4078Y147394D01*
X4742Y145793D01*
X5705Y144351D01*
X6930Y143126D01*
X8371Y142163D01*
X9973Y141500D01*
X10069Y141480D01*
Y140980D01*
X9973Y140961D01*
X8371Y140298D01*
X6930Y139335D01*
X5705Y138109D01*
X4742Y136668D01*
X4078Y135067D01*
X3740Y133367D01*
Y131633D01*
X4078Y129933D01*
X4742Y128332D01*
X5705Y126891D01*
X6930Y125665D01*
X8371Y124702D01*
X9973Y124039D01*
X10069Y124020D01*
Y123520D01*
X9973Y123500D01*
X8371Y122837D01*
X6930Y121874D01*
X5705Y120649D01*
X4742Y119207D01*
X4078Y117606D01*
X3740Y115906D01*
Y114173D01*
X4078Y112473D01*
X4742Y110871D01*
X5705Y109430D01*
X6930Y108205D01*
X8371Y107242D01*
X9973Y106578D01*
X11673Y106240D01*
X13406D01*
X15106Y106578D01*
X16707Y107242D01*
X18148Y108205D01*
X19374Y109430D01*
X20337Y110871D01*
X21000Y112473D01*
X21020Y112569D01*
X21520D01*
X21539Y112473D01*
X22202Y110871D01*
X23165Y109430D01*
X24391Y108205D01*
X25832Y107242D01*
X27433Y106578D01*
X29133Y106240D01*
X30867D01*
X32567Y106578D01*
X34168Y107242D01*
X35609Y108205D01*
X36835Y109430D01*
X37798Y110871D01*
X38461Y112473D01*
X38480Y112569D01*
X38980D01*
X39000Y112473D01*
X39663Y110871D01*
X40626Y109430D01*
X41851Y108205D01*
X43293Y107242D01*
X44894Y106578D01*
X46594Y106240D01*
X48327D01*
X50027Y106578D01*
X51629Y107242D01*
X53070Y108205D01*
X54295Y109430D01*
X55258Y110871D01*
X55922Y112473D01*
X56260Y114173D01*
Y115906D01*
X55922Y117606D01*
X55258Y119207D01*
X54295Y120649D01*
X53070Y121874D01*
X51629Y122837D01*
X50027Y123500D01*
X49931Y123520D01*
Y124020D01*
X50027Y124039D01*
X51629Y124702D01*
X53070Y125665D01*
X54295Y126891D01*
X55258Y128332D01*
X55922Y129933D01*
X56260Y131633D01*
Y133367D01*
X55922Y135067D01*
X55258Y136668D01*
X54295Y138109D01*
X53070Y139335D01*
X51629Y140298D01*
X50027Y140961D01*
X49931Y140980D01*
Y141480D01*
X50027Y141500D01*
X51629Y142163D01*
X53070Y143126D01*
X54295Y144351D01*
X55258Y145793D01*
X55922Y147394D01*
X56260Y149094D01*
Y150827D01*
X55922Y152527D01*
X55258Y154129D01*
X54295Y155570D01*
X53070Y156795D01*
X51629Y157758D01*
X50027Y158422D01*
X48327Y158760D01*
D02*
G37*
G36*
X391555Y148798D02*
Y142555D01*
X397798D01*
X397574Y143684D01*
X397024Y145013D01*
X396225Y146208D01*
X395208Y147225D01*
X394013Y148024D01*
X392684Y148574D01*
X391555Y148798D01*
D02*
G37*
G36*
X389555D02*
X388426Y148574D01*
X387098Y148024D01*
X385902Y147225D01*
X384885Y146208D01*
X384087Y145013D01*
X383536Y143684D01*
X383312Y142555D01*
X389555D01*
Y148798D01*
D02*
G37*
G36*
X368445D02*
Y142555D01*
X374688D01*
X374464Y143684D01*
X373913Y145013D01*
X373115Y146208D01*
X372098Y147225D01*
X370902Y148024D01*
X369574Y148574D01*
X368445Y148798D01*
D02*
G37*
G36*
X366445D02*
X365316Y148574D01*
X363987Y148024D01*
X362792Y147225D01*
X361775Y146208D01*
X360976Y145013D01*
X360426Y143684D01*
X360202Y142555D01*
X366445D01*
Y148798D01*
D02*
G37*
G36*
X389555Y140555D02*
X383312D01*
X383536Y139426D01*
X384087Y138098D01*
X384464Y137533D01*
X384103Y137173D01*
X383168Y137798D01*
X381567Y138461D01*
X379867Y138799D01*
X378133D01*
X376433Y138461D01*
X374832Y137798D01*
X373897Y137173D01*
X373536Y137533D01*
X373913Y138098D01*
X374464Y139426D01*
X374688Y140555D01*
X368445D01*
Y134312D01*
X369574Y134536D01*
X370902Y135087D01*
X371467Y135464D01*
X371827Y135103D01*
X371202Y134168D01*
X370539Y132567D01*
X370201Y130867D01*
Y129133D01*
X370539Y127433D01*
X371202Y125832D01*
X371827Y124897D01*
X371467Y124536D01*
X370902Y124913D01*
X369574Y125464D01*
X368445Y125688D01*
Y119445D01*
X374688D01*
X374464Y120574D01*
X373913Y121902D01*
X373536Y122467D01*
X373897Y122827D01*
X374832Y122202D01*
X376433Y121539D01*
X378133Y121201D01*
X379867D01*
X381567Y121539D01*
X383168Y122202D01*
X384103Y122827D01*
X384464Y122467D01*
X384087Y121902D01*
X383536Y120574D01*
X383312Y119445D01*
X389555D01*
Y125688D01*
X388426Y125464D01*
X387098Y124913D01*
X386533Y124536D01*
X386173Y124897D01*
X386798Y125832D01*
X387461Y127433D01*
X387799Y129133D01*
Y130867D01*
X387461Y132567D01*
X386798Y134168D01*
X386173Y135103D01*
X386533Y135464D01*
X387098Y135087D01*
X388426Y134536D01*
X389555Y134312D01*
Y140555D01*
D02*
G37*
G36*
X214000Y139356D02*
Y137000D01*
X216355D01*
X216262Y137351D01*
X215801Y138149D01*
X215149Y138801D01*
X214351Y139261D01*
X214000Y139356D01*
D02*
G37*
G36*
X212000D02*
X211649Y139261D01*
X210851Y138801D01*
X210199Y138149D01*
X209738Y137351D01*
X209645Y137000D01*
X212000D01*
Y139356D01*
D02*
G37*
G36*
X188000D02*
Y137000D01*
X190356D01*
X190261Y137351D01*
X189801Y138149D01*
X189149Y138801D01*
X188351Y139261D01*
X188000Y139356D01*
D02*
G37*
G36*
X186000D02*
X185649Y139261D01*
X184851Y138801D01*
X184199Y138149D01*
X183739Y137351D01*
X183644Y137000D01*
X186000D01*
Y139356D01*
D02*
G37*
G36*
X397798Y140555D02*
X391555D01*
Y134312D01*
X392684Y134536D01*
X394013Y135087D01*
X395208Y135885D01*
X396225Y136902D01*
X397024Y138098D01*
X397574Y139426D01*
X397798Y140555D01*
D02*
G37*
G36*
X366445D02*
X360202D01*
X360426Y139426D01*
X360976Y138098D01*
X361775Y136902D01*
X362792Y135885D01*
X363987Y135087D01*
X365316Y134536D01*
X366445Y134312D01*
Y140555D01*
D02*
G37*
G36*
X216355Y135000D02*
X214000D01*
Y132644D01*
X214351Y132738D01*
X215149Y133199D01*
X215801Y133851D01*
X216262Y134649D01*
X216355Y135000D01*
D02*
G37*
G36*
X212000D02*
X209645D01*
X209738Y134649D01*
X210199Y133851D01*
X210851Y133199D01*
X211649Y132738D01*
X212000Y132644D01*
Y135000D01*
D02*
G37*
G36*
X190356D02*
X188000D01*
Y132644D01*
X188351Y132738D01*
X189149Y133199D01*
X189801Y133851D01*
X190261Y134649D01*
X190356Y135000D01*
D02*
G37*
G36*
X186000D02*
X183644D01*
X183739Y134649D01*
X184199Y133851D01*
X184851Y133199D01*
X185649Y132738D01*
X186000Y132644D01*
Y135000D01*
D02*
G37*
G36*
X341000Y136261D02*
Y130921D01*
X346340D01*
X346167Y131792D01*
X345684Y132959D01*
X344982Y134010D01*
X344088Y134903D01*
X343038Y135605D01*
X341871Y136088D01*
X341000Y136261D01*
D02*
G37*
G36*
X339000D02*
X338129Y136088D01*
X336962Y135605D01*
X335912Y134903D01*
X335018Y134010D01*
X334316Y132959D01*
X333833Y131792D01*
X333660Y130921D01*
X339000D01*
Y136261D01*
D02*
G37*
G36*
X141000D02*
Y130921D01*
X146340D01*
X146167Y131792D01*
X145684Y132959D01*
X144982Y134010D01*
X144088Y134903D01*
X143038Y135605D01*
X141871Y136088D01*
X141000Y136261D01*
D02*
G37*
G36*
X139000D02*
X138129Y136088D01*
X136962Y135605D01*
X135912Y134903D01*
X135018Y134010D01*
X134317Y132959D01*
X133833Y131792D01*
X133660Y130921D01*
X139000D01*
Y136261D01*
D02*
G37*
G36*
X303500Y129356D02*
Y127000D01*
X305855D01*
X305762Y127351D01*
X305301Y128149D01*
X304649Y128801D01*
X303851Y129262D01*
X303500Y129356D01*
D02*
G37*
G36*
X301500D02*
X301149Y129262D01*
X300351Y128801D01*
X299699Y128149D01*
X299238Y127351D01*
X299145Y127000D01*
X301500D01*
Y129356D01*
D02*
G37*
G36*
X346340Y128921D02*
X341000D01*
Y123581D01*
X341871Y123754D01*
X343038Y124238D01*
X344088Y124940D01*
X344982Y125833D01*
X345684Y126883D01*
X346167Y128050D01*
X346340Y128921D01*
D02*
G37*
G36*
X339000D02*
X333660D01*
X333833Y128050D01*
X334316Y126883D01*
X335018Y125833D01*
X335912Y124940D01*
X336962Y124238D01*
X338129Y123754D01*
X339000Y123581D01*
Y128921D01*
D02*
G37*
G36*
X146340D02*
X141000D01*
Y123581D01*
X141871Y123754D01*
X143038Y124238D01*
X144088Y124940D01*
X144982Y125833D01*
X145684Y126883D01*
X146167Y128050D01*
X146340Y128921D01*
D02*
G37*
G36*
X139000D02*
X133660D01*
X133833Y128050D01*
X134317Y126883D01*
X135018Y125833D01*
X135912Y124940D01*
X136962Y124238D01*
X138129Y123754D01*
X139000Y123581D01*
Y128921D01*
D02*
G37*
G36*
X305855Y125000D02*
X303500D01*
Y122644D01*
X303851Y122739D01*
X304649Y123199D01*
X305301Y123851D01*
X305762Y124649D01*
X305855Y125000D01*
D02*
G37*
G36*
X301500D02*
X299145D01*
X299238Y124649D01*
X299699Y123851D01*
X300351Y123199D01*
X301149Y122739D01*
X301500Y122644D01*
Y125000D01*
D02*
G37*
G36*
X214000Y123355D02*
Y121000D01*
X216355D01*
X216262Y121351D01*
X215801Y122149D01*
X215149Y122801D01*
X214351Y123261D01*
X214000Y123355D01*
D02*
G37*
G36*
X212000D02*
X211649Y123261D01*
X210851Y122801D01*
X210199Y122149D01*
X209738Y121351D01*
X209645Y121000D01*
X212000D01*
Y123355D01*
D02*
G37*
G36*
X188000D02*
Y121000D01*
X190356D01*
X190261Y121351D01*
X189801Y122149D01*
X189149Y122801D01*
X188351Y123261D01*
X188000Y123355D01*
D02*
G37*
G36*
X186000D02*
X185649Y123261D01*
X184851Y122801D01*
X184199Y122149D01*
X183739Y121351D01*
X183644Y121000D01*
X186000D01*
Y123355D01*
D02*
G37*
G36*
X391555Y125688D02*
Y119445D01*
X397798D01*
X397574Y120574D01*
X397024Y121902D01*
X396225Y123098D01*
X395208Y124115D01*
X394013Y124913D01*
X392684Y125464D01*
X391555Y125688D01*
D02*
G37*
G36*
X366445D02*
X365316Y125464D01*
X363987Y124913D01*
X362792Y124115D01*
X361775Y123098D01*
X360976Y121902D01*
X360426Y120574D01*
X360202Y119445D01*
X366445D01*
Y125688D01*
D02*
G37*
G36*
X216355Y119000D02*
X214000D01*
Y116645D01*
X214351Y116738D01*
X215149Y117199D01*
X215801Y117851D01*
X216262Y118649D01*
X216355Y119000D01*
D02*
G37*
G36*
X212000D02*
X209645D01*
X209738Y118649D01*
X210199Y117851D01*
X210851Y117199D01*
X211649Y116738D01*
X212000Y116645D01*
Y119000D01*
D02*
G37*
G36*
X190356D02*
X188000D01*
Y116645D01*
X188351Y116738D01*
X189149Y117199D01*
X189801Y117851D01*
X190261Y118649D01*
X190356Y119000D01*
D02*
G37*
G36*
X186000D02*
X183644D01*
X183739Y118649D01*
X184199Y117851D01*
X184851Y117199D01*
X185649Y116738D01*
X186000Y116645D01*
Y119000D01*
D02*
G37*
G36*
X352000Y114356D02*
Y112000D01*
X354356D01*
X354261Y112351D01*
X353801Y113149D01*
X353149Y113801D01*
X352351Y114261D01*
X352000Y114356D01*
D02*
G37*
G36*
X397798Y117445D02*
X391555D01*
Y111202D01*
X392684Y111426D01*
X394013Y111976D01*
X395208Y112775D01*
X396225Y113792D01*
X397024Y114987D01*
X397574Y116316D01*
X397798Y117445D01*
D02*
G37*
G36*
X389555D02*
X383312D01*
X383536Y116316D01*
X384087Y114987D01*
X384885Y113792D01*
X385902Y112775D01*
X387098Y111976D01*
X388426Y111426D01*
X389555Y111202D01*
Y117445D01*
D02*
G37*
G36*
X374688D02*
X368445D01*
Y111202D01*
X369574Y111426D01*
X370902Y111976D01*
X372098Y112775D01*
X373115Y113792D01*
X373913Y114987D01*
X374464Y116316D01*
X374688Y117445D01*
D02*
G37*
G36*
X366445D02*
X360202D01*
X360426Y116316D01*
X360976Y114987D01*
X361775Y113792D01*
X362792Y112775D01*
X363987Y111976D01*
X365316Y111426D01*
X366445Y111202D01*
Y117445D01*
D02*
G37*
G36*
X354356Y110000D02*
X352000D01*
Y107644D01*
X352351Y107738D01*
X353149Y108199D01*
X353801Y108851D01*
X354261Y109649D01*
X354356Y110000D01*
D02*
G37*
G36*
X340779Y122874D02*
X339221D01*
X337692Y122570D01*
X336252Y121973D01*
X334956Y121107D01*
X333853Y120005D01*
X332987Y118709D01*
X332391Y117269D01*
X332087Y115740D01*
Y114181D01*
X332391Y112652D01*
X332987Y111212D01*
X333853Y109916D01*
X334956Y108814D01*
X336252Y107948D01*
X336777Y107730D01*
Y107230D01*
X336252Y107013D01*
X334956Y106147D01*
X333853Y105044D01*
X332987Y103748D01*
X332391Y102308D01*
X332087Y100779D01*
Y99221D01*
X332391Y97692D01*
X332987Y96252D01*
X333853Y94955D01*
X334956Y93853D01*
X336252Y92987D01*
X336777Y92770D01*
Y92270D01*
X336252Y92052D01*
X334956Y91186D01*
X333853Y90084D01*
X332987Y88788D01*
X332391Y87348D01*
X332087Y85819D01*
Y84260D01*
X332391Y82731D01*
X332987Y81291D01*
X333853Y79995D01*
X334956Y78893D01*
X336252Y78027D01*
X336777Y77809D01*
Y77309D01*
X336252Y77091D01*
X334956Y76226D01*
X333853Y75123D01*
X332987Y73827D01*
X332391Y72387D01*
X332087Y70858D01*
Y69299D01*
X332391Y67770D01*
X332987Y66330D01*
X333853Y65034D01*
X334956Y63932D01*
X336252Y63066D01*
X337692Y62470D01*
X339221Y62165D01*
X340779D01*
X342308Y62470D01*
X343748Y63066D01*
X345044Y63932D01*
X346147Y65034D01*
X347013Y66330D01*
X347609Y67770D01*
X347913Y69299D01*
Y70858D01*
X347609Y72387D01*
X347013Y73827D01*
X346147Y75123D01*
X345044Y76226D01*
X343748Y77091D01*
X343223Y77309D01*
Y77809D01*
X343748Y78027D01*
X345044Y78893D01*
X346147Y79995D01*
X347013Y81291D01*
X347609Y82731D01*
X347913Y84260D01*
Y85819D01*
X347609Y87348D01*
X347013Y88788D01*
X346147Y90084D01*
X345044Y91186D01*
X343748Y92052D01*
X343223Y92270D01*
Y92770D01*
X343748Y92987D01*
X345044Y93853D01*
X346147Y94955D01*
X347013Y96252D01*
X347609Y97692D01*
X347913Y99221D01*
Y100779D01*
X347609Y102308D01*
X347013Y103748D01*
X346147Y105044D01*
X345044Y106147D01*
X343748Y107013D01*
X343223Y107230D01*
Y107730D01*
X343748Y107948D01*
X345044Y108814D01*
X346147Y109916D01*
X347000Y111193D01*
X347048Y111203D01*
X347500Y111082D01*
Y110539D01*
X347739Y109649D01*
X348199Y108851D01*
X348851Y108199D01*
X349649Y107738D01*
X350000Y107644D01*
Y111000D01*
Y114356D01*
X349649Y114261D01*
X348851Y113801D01*
X348222Y113172D01*
X348173Y113174D01*
X347769Y113455D01*
X347913Y114181D01*
Y115740D01*
X347609Y117269D01*
X347013Y118709D01*
X346147Y120005D01*
X345044Y121107D01*
X343748Y121973D01*
X342308Y122570D01*
X340779Y122874D01*
D02*
G37*
G36*
X122933Y110921D02*
X110933D01*
Y98921D01*
X113705D01*
X113912Y98421D01*
X113332Y97842D01*
X112740Y96816D01*
X112542Y96079D01*
X116933D01*
X121324D01*
X121126Y96816D01*
X120534Y97842D01*
X119955Y98421D01*
X120162Y98921D01*
X122933D01*
Y110921D01*
D02*
G37*
G36*
X140779Y107913D02*
X139221D01*
X137692Y107609D01*
X136252Y107013D01*
X134956Y106147D01*
X133853Y105044D01*
X132987Y103748D01*
X132391Y102308D01*
X132087Y100779D01*
Y99221D01*
X132391Y97692D01*
X132987Y96252D01*
X133853Y94955D01*
X134956Y93853D01*
X136252Y92987D01*
X137692Y92391D01*
X139221Y92087D01*
X140779D01*
X142308Y92391D01*
X143748Y92987D01*
X145045Y93853D01*
X146147Y94955D01*
X147013Y96252D01*
X147609Y97692D01*
X147913Y99221D01*
Y100779D01*
X147609Y102308D01*
X147013Y103748D01*
X146147Y105044D01*
X145045Y106147D01*
X143748Y107013D01*
X142308Y107609D01*
X140779Y107913D01*
D02*
G37*
G36*
X121324Y94079D02*
X117933D01*
Y90688D01*
X118670Y90885D01*
X119696Y91478D01*
X120534Y92316D01*
X121126Y93342D01*
X121324Y94079D01*
D02*
G37*
G36*
X115933D02*
X112542D01*
X112740Y93342D01*
X113332Y92316D01*
X114170Y91478D01*
X115196Y90885D01*
X115933Y90688D01*
Y94079D01*
D02*
G37*
G36*
X48461Y92204D02*
Y85961D01*
X54704D01*
X54479Y87090D01*
X53929Y88418D01*
X53130Y89614D01*
X52114Y90630D01*
X50918Y91429D01*
X49590Y91979D01*
X48461Y92204D01*
D02*
G37*
G36*
X46461D02*
X45331Y91979D01*
X44003Y91429D01*
X42808Y90630D01*
X41791Y89614D01*
X40992Y88418D01*
X40442Y87090D01*
X40217Y85961D01*
X46461D01*
Y92204D01*
D02*
G37*
G36*
X31000D02*
Y85961D01*
X37243D01*
X37019Y87090D01*
X36468Y88418D01*
X35670Y89614D01*
X34653Y90630D01*
X33457Y91429D01*
X32129Y91979D01*
X31000Y92204D01*
D02*
G37*
G36*
X29000D02*
X27871Y91979D01*
X26542Y91429D01*
X25347Y90630D01*
X24330Y89614D01*
X23531Y88418D01*
X22981Y87090D01*
X22757Y85961D01*
X29000D01*
Y92204D01*
D02*
G37*
G36*
X13539D02*
Y85961D01*
X19783D01*
X19558Y87090D01*
X19008Y88418D01*
X18209Y89614D01*
X17192Y90630D01*
X15997Y91429D01*
X14669Y91979D01*
X13539Y92204D01*
D02*
G37*
G36*
X11539D02*
X10410Y91979D01*
X9082Y91429D01*
X7886Y90630D01*
X6870Y89614D01*
X6071Y88418D01*
X5521Y87090D01*
X5296Y85961D01*
X11539D01*
Y92204D01*
D02*
G37*
G36*
X391422Y90354D02*
X389688D01*
X387988Y90016D01*
X386387Y89353D01*
X384946Y88390D01*
X383720Y87164D01*
X382757Y85723D01*
X382094Y84122D01*
X381756Y82422D01*
Y80689D01*
X382094Y78988D01*
X382217Y78692D01*
X381863Y78338D01*
X381567Y78461D01*
X379867Y78799D01*
X378133D01*
X376433Y78461D01*
X376137Y78338D01*
X375783Y78692D01*
X375906Y78988D01*
X376244Y80689D01*
Y82422D01*
X375906Y84122D01*
X375243Y85723D01*
X374280Y87164D01*
X373054Y88390D01*
X371613Y89353D01*
X370011Y90016D01*
X368312Y90354D01*
X366578D01*
X364878Y90016D01*
X363277Y89353D01*
X361836Y88390D01*
X360610Y87164D01*
X359647Y85723D01*
X358984Y84122D01*
X358646Y82422D01*
Y80689D01*
X358984Y78988D01*
X359647Y77387D01*
X360610Y75946D01*
X361836Y74720D01*
X363277Y73757D01*
X364878Y73094D01*
X366578Y72756D01*
X368312D01*
X370011Y73094D01*
X370308Y73217D01*
X370662Y72863D01*
X370539Y72567D01*
X370201Y70867D01*
Y69133D01*
X370539Y67433D01*
X370662Y67137D01*
X370308Y66783D01*
X370011Y66906D01*
X368312Y67244D01*
X366578D01*
X364878Y66906D01*
X363277Y66243D01*
X361836Y65280D01*
X360610Y64054D01*
X359647Y62613D01*
X358984Y61011D01*
X358646Y59311D01*
Y57578D01*
X358984Y55878D01*
X359647Y54277D01*
X360610Y52836D01*
X361836Y51610D01*
X363277Y50647D01*
X364878Y49984D01*
X366578Y49646D01*
X368312D01*
X370011Y49984D01*
X371613Y50647D01*
X373054Y51610D01*
X374280Y52836D01*
X375243Y54277D01*
X375906Y55878D01*
X376244Y57578D01*
Y59311D01*
X375906Y61011D01*
X375783Y61308D01*
X376137Y61662D01*
X376433Y61539D01*
X378133Y61201D01*
X379867D01*
X381567Y61539D01*
X381863Y61662D01*
X382217Y61308D01*
X382094Y61011D01*
X381756Y59311D01*
Y57578D01*
X382094Y55878D01*
X382757Y54277D01*
X383720Y52836D01*
X384946Y51610D01*
X386387Y50647D01*
X387988Y49984D01*
X389688Y49646D01*
X391422D01*
X393122Y49984D01*
X394723Y50647D01*
X396164Y51610D01*
X397390Y52836D01*
X398353Y54277D01*
X399016Y55878D01*
X399354Y57578D01*
Y59311D01*
X399016Y61011D01*
X398353Y62613D01*
X397390Y64054D01*
X396164Y65280D01*
X394723Y66243D01*
X393122Y66906D01*
X391422Y67244D01*
X389688D01*
X387988Y66906D01*
X387692Y66783D01*
X387338Y67137D01*
X387461Y67433D01*
X387799Y69133D01*
Y70867D01*
X387461Y72567D01*
X387338Y72863D01*
X387692Y73217D01*
X387988Y73094D01*
X389688Y72756D01*
X391422D01*
X393122Y73094D01*
X394723Y73757D01*
X396164Y74720D01*
X397390Y75946D01*
X398353Y77387D01*
X399016Y78988D01*
X399354Y80689D01*
Y82422D01*
X399016Y84122D01*
X398353Y85723D01*
X397390Y87164D01*
X396164Y88390D01*
X394723Y89353D01*
X393122Y90016D01*
X391422Y90354D01*
D02*
G37*
G36*
X54704Y83961D02*
X48461D01*
Y77717D01*
X49590Y77942D01*
X50918Y78492D01*
X52114Y79291D01*
X53130Y80308D01*
X53929Y81503D01*
X54479Y82832D01*
X54704Y83961D01*
D02*
G37*
G36*
X46461D02*
X40217D01*
X40442Y82832D01*
X40992Y81503D01*
X41791Y80308D01*
X42808Y79291D01*
X44003Y78492D01*
X45331Y77942D01*
X46461Y77717D01*
Y83961D01*
D02*
G37*
G36*
X19783D02*
X13539D01*
Y77717D01*
X14669Y77942D01*
X15997Y78492D01*
X17192Y79291D01*
X18209Y80308D01*
X19008Y81503D01*
X19558Y82832D01*
X19783Y83961D01*
D02*
G37*
G36*
X11539D02*
X5296D01*
X5521Y82832D01*
X6071Y81503D01*
X6870Y80308D01*
X7886Y79291D01*
X9082Y78492D01*
X10410Y77942D01*
X11539Y77717D01*
Y83961D01*
D02*
G37*
G36*
X303500Y77355D02*
Y75000D01*
X305855D01*
X305762Y75351D01*
X305301Y76149D01*
X304649Y76801D01*
X303851Y77262D01*
X303500Y77355D01*
D02*
G37*
G36*
X301500D02*
X301149Y77262D01*
X300351Y76801D01*
X299699Y76149D01*
X299238Y75351D01*
X299145Y75000D01*
X301500D01*
Y77355D01*
D02*
G37*
G36*
X37243Y83961D02*
X22757D01*
X22981Y82832D01*
X23531Y81503D01*
X24330Y80308D01*
X24889Y79749D01*
X24791Y79140D01*
X23325Y78393D01*
X21703Y77215D01*
X20285Y75797D01*
X19107Y74175D01*
X18360Y72709D01*
X17751Y72611D01*
X17192Y73170D01*
X15997Y73968D01*
X14669Y74519D01*
X13539Y74743D01*
Y67500D01*
Y60257D01*
X14669Y60481D01*
X15997Y61032D01*
X17192Y61830D01*
X17751Y62389D01*
X18360Y62291D01*
X19107Y60825D01*
X20285Y59203D01*
X21703Y57785D01*
X23325Y56607D01*
X24791Y55860D01*
X24889Y55251D01*
X24330Y54692D01*
X23531Y53497D01*
X22981Y52169D01*
X22757Y51039D01*
X37243D01*
X37019Y52169D01*
X36468Y53497D01*
X35670Y54692D01*
X35111Y55251D01*
X35209Y55860D01*
X36675Y56607D01*
X38297Y57785D01*
X39715Y59203D01*
X40893Y60825D01*
X41640Y62291D01*
X42249Y62389D01*
X42808Y61830D01*
X44003Y61032D01*
X45331Y60481D01*
X46461Y60257D01*
Y67500D01*
Y74743D01*
X45331Y74519D01*
X44003Y73968D01*
X42808Y73170D01*
X42249Y72611D01*
X41640Y72709D01*
X40893Y74175D01*
X39715Y75797D01*
X38297Y77215D01*
X36675Y78393D01*
X35209Y79140D01*
X35111Y79749D01*
X35670Y80308D01*
X36468Y81503D01*
X37019Y82832D01*
X37243Y83961D01*
D02*
G37*
G36*
X305855Y73000D02*
X303500D01*
Y70644D01*
X303851Y70739D01*
X304649Y71199D01*
X305301Y71851D01*
X305762Y72649D01*
X305855Y73000D01*
D02*
G37*
G36*
X301500D02*
X299145D01*
X299238Y72649D01*
X299699Y71851D01*
X300351Y71199D01*
X301149Y70739D01*
X301500Y70644D01*
Y73000D01*
D02*
G37*
G36*
X48461Y74743D02*
Y68500D01*
X54704D01*
X54479Y69629D01*
X53929Y70957D01*
X53130Y72153D01*
X52114Y73170D01*
X50918Y73968D01*
X49590Y74519D01*
X48461Y74743D01*
D02*
G37*
G36*
X11539D02*
X10410Y74519D01*
X9082Y73968D01*
X7886Y73170D01*
X6870Y72153D01*
X6071Y70957D01*
X5521Y69629D01*
X5296Y68500D01*
X11539D01*
Y74743D01*
D02*
G37*
G36*
X140779Y77992D02*
X139221D01*
X137692Y77688D01*
X136252Y77091D01*
X134956Y76226D01*
X133853Y75123D01*
X132987Y73827D01*
X132391Y72387D01*
X132087Y70858D01*
Y69299D01*
X132391Y67770D01*
X132987Y66330D01*
X133853Y65034D01*
X134956Y63932D01*
X136252Y63066D01*
X137692Y62470D01*
X139221Y62165D01*
X140779D01*
X142308Y62470D01*
X143748Y63066D01*
X145045Y63932D01*
X146147Y65034D01*
X147013Y66330D01*
X147609Y67770D01*
X147913Y69299D01*
Y70858D01*
X147609Y72387D01*
X147013Y73827D01*
X146147Y75123D01*
X145045Y76226D01*
X143748Y77091D01*
X142308Y77688D01*
X140779Y77992D01*
D02*
G37*
G36*
X54704Y66500D02*
X48461D01*
Y60257D01*
X49590Y60481D01*
X50918Y61032D01*
X52114Y61830D01*
X53130Y62847D01*
X53929Y64043D01*
X54479Y65371D01*
X54704Y66500D01*
D02*
G37*
G36*
X11539D02*
X5296D01*
X5521Y65371D01*
X6071Y64043D01*
X6870Y62847D01*
X7886Y61830D01*
X9082Y61032D01*
X10410Y60481D01*
X11539Y60257D01*
Y66500D01*
D02*
G37*
G36*
X48461Y57283D02*
Y51039D01*
X54704D01*
X54479Y52169D01*
X53929Y53497D01*
X53130Y54692D01*
X52114Y55709D01*
X50918Y56508D01*
X49590Y57058D01*
X48461Y57283D01*
D02*
G37*
G36*
X46461D02*
X45331Y57058D01*
X44003Y56508D01*
X42808Y55709D01*
X41791Y54692D01*
X40992Y53497D01*
X40442Y52169D01*
X40217Y51039D01*
X46461D01*
Y57283D01*
D02*
G37*
G36*
X13539D02*
Y51039D01*
X19783D01*
X19558Y52169D01*
X19008Y53497D01*
X18209Y54692D01*
X17192Y55709D01*
X15997Y56508D01*
X14669Y57058D01*
X13539Y57283D01*
D02*
G37*
G36*
X11539D02*
X10410Y57058D01*
X9082Y56508D01*
X7886Y55709D01*
X6870Y54692D01*
X6071Y53497D01*
X5521Y52169D01*
X5296Y51039D01*
X11539D01*
Y57283D01*
D02*
G37*
G36*
X54704Y49039D02*
X48461D01*
Y42796D01*
X49590Y43021D01*
X50918Y43571D01*
X52114Y44370D01*
X53130Y45386D01*
X53929Y46582D01*
X54479Y47910D01*
X54704Y49039D01*
D02*
G37*
G36*
X46461D02*
X40217D01*
X40442Y47910D01*
X40992Y46582D01*
X41791Y45386D01*
X42808Y44370D01*
X44003Y43571D01*
X45331Y43021D01*
X46461Y42796D01*
Y49039D01*
D02*
G37*
G36*
X37243D02*
X31000D01*
Y42796D01*
X32129Y43021D01*
X33457Y43571D01*
X34653Y44370D01*
X35670Y45386D01*
X36468Y46582D01*
X37019Y47910D01*
X37243Y49039D01*
D02*
G37*
G36*
X29000D02*
X22757D01*
X22981Y47910D01*
X23531Y46582D01*
X24330Y45386D01*
X25347Y44370D01*
X26542Y43571D01*
X27871Y43021D01*
X29000Y42796D01*
Y49039D01*
D02*
G37*
G36*
X19783D02*
X13539D01*
Y42796D01*
X14669Y43021D01*
X15997Y43571D01*
X17192Y44370D01*
X18209Y45386D01*
X19008Y46582D01*
X19558Y47910D01*
X19783Y49039D01*
D02*
G37*
G36*
X11539D02*
X5296D01*
X5521Y47910D01*
X6071Y46582D01*
X6870Y45386D01*
X7886Y44370D01*
X9082Y43571D01*
X10410Y43021D01*
X11539Y42796D01*
Y49039D01*
D02*
G37*
G36*
X96500Y43356D02*
Y41000D01*
X98856D01*
X98761Y41351D01*
X98301Y42149D01*
X97649Y42801D01*
X96851Y43262D01*
X96500Y43356D01*
D02*
G37*
G36*
X94500D02*
X94149Y43262D01*
X93351Y42801D01*
X92699Y42149D01*
X92238Y41351D01*
X92145Y41000D01*
X94500D01*
Y43356D01*
D02*
G37*
G36*
X71000D02*
Y41000D01*
X73356D01*
X73261Y41351D01*
X72801Y42149D01*
X72149Y42801D01*
X71351Y43262D01*
X71000Y43356D01*
D02*
G37*
G36*
X69000D02*
X68649Y43262D01*
X67851Y42801D01*
X67199Y42149D01*
X66738Y41351D01*
X66645Y41000D01*
X69000D01*
Y43356D01*
D02*
G37*
G36*
X98856Y39000D02*
X96500D01*
Y36645D01*
X96851Y36738D01*
X97649Y37199D01*
X98301Y37851D01*
X98761Y38649D01*
X98856Y39000D01*
D02*
G37*
G36*
X94500D02*
X92145D01*
X92238Y38649D01*
X92699Y37851D01*
X93351Y37199D01*
X94149Y36738D01*
X94500Y36645D01*
Y39000D01*
D02*
G37*
G36*
X73356D02*
X71000D01*
Y36645D01*
X71351Y36738D01*
X72149Y37199D01*
X72801Y37851D01*
X73261Y38649D01*
X73356Y39000D01*
D02*
G37*
G36*
X69000D02*
X66645D01*
X66738Y38649D01*
X67199Y37851D01*
X67851Y37199D01*
X68649Y36738D01*
X69000Y36645D01*
Y39000D01*
D02*
G37*
G36*
X47000Y23356D02*
Y21000D01*
X49356D01*
X49262Y21351D01*
X48801Y22149D01*
X48149Y22801D01*
X47351Y23261D01*
X47000Y23356D01*
D02*
G37*
G36*
X45000D02*
X44649Y23261D01*
X43851Y22801D01*
X43199Y22149D01*
X42739Y21351D01*
X42645Y21000D01*
X45000D01*
Y23356D01*
D02*
G37*
G36*
X49356Y19000D02*
X47000D01*
Y16645D01*
X47351Y16738D01*
X48149Y17199D01*
X48801Y17851D01*
X49262Y18649D01*
X49356Y19000D01*
D02*
G37*
G36*
X45000D02*
X42645D01*
X42739Y18649D01*
X43199Y17851D01*
X43851Y17199D01*
X44649Y16738D01*
X45000Y16645D01*
Y19000D01*
D02*
G37*
G36*
X360921Y17324D02*
Y13933D01*
X364312D01*
X364115Y14670D01*
X363522Y15696D01*
X362684Y16534D01*
X361658Y17126D01*
X360921Y17324D01*
D02*
G37*
G36*
X325921D02*
Y13933D01*
X329312D01*
X329115Y14670D01*
X328522Y15696D01*
X327684Y16534D01*
X326658Y17126D01*
X325921Y17324D01*
D02*
G37*
G36*
X290921D02*
Y13933D01*
X294312D01*
X294115Y14670D01*
X293522Y15696D01*
X292684Y16534D01*
X291658Y17126D01*
X290921Y17324D01*
D02*
G37*
G36*
X255921D02*
Y13933D01*
X259312D01*
X259115Y14670D01*
X258522Y15696D01*
X257684Y16534D01*
X256658Y17126D01*
X255921Y17324D01*
D02*
G37*
G36*
X220921D02*
Y13933D01*
X224312D01*
X224115Y14670D01*
X223522Y15696D01*
X222684Y16534D01*
X221658Y17126D01*
X220921Y17324D01*
D02*
G37*
G36*
X185921D02*
Y13933D01*
X189312D01*
X189115Y14670D01*
X188522Y15696D01*
X187684Y16534D01*
X186658Y17126D01*
X185921Y17324D01*
D02*
G37*
G36*
X150921D02*
Y13933D01*
X154312D01*
X154115Y14670D01*
X153522Y15696D01*
X152684Y16534D01*
X151658Y17126D01*
X150921Y17324D01*
D02*
G37*
G36*
X115921D02*
Y13933D01*
X119312D01*
X119115Y14670D01*
X118522Y15696D01*
X117684Y16534D01*
X116658Y17126D01*
X115921Y17324D01*
D02*
G37*
G36*
X364312Y11933D02*
X360921D01*
Y8542D01*
X361658Y8740D01*
X362684Y9332D01*
X363522Y10170D01*
X364115Y11196D01*
X364312Y11933D01*
D02*
G37*
G36*
X356079Y18933D02*
X344079D01*
Y6933D01*
X356079D01*
Y9704D01*
X356579Y9912D01*
X357158Y9332D01*
X358184Y8740D01*
X358921Y8542D01*
Y12933D01*
Y17324D01*
X358184Y17126D01*
X357158Y16534D01*
X356579Y15955D01*
X356079Y16162D01*
Y18933D01*
D02*
G37*
G36*
X329312Y11933D02*
X325921D01*
Y8542D01*
X326658Y8740D01*
X327684Y9332D01*
X328522Y10170D01*
X329115Y11196D01*
X329312Y11933D01*
D02*
G37*
G36*
X321079Y18933D02*
X309079D01*
Y6933D01*
X321079D01*
Y9704D01*
X321579Y9912D01*
X322158Y9332D01*
X323184Y8740D01*
X323921Y8542D01*
Y12933D01*
Y17324D01*
X323184Y17126D01*
X322158Y16534D01*
X321579Y15955D01*
X321079Y16162D01*
Y18933D01*
D02*
G37*
G36*
X294312Y11933D02*
X290921D01*
Y8542D01*
X291658Y8740D01*
X292684Y9332D01*
X293522Y10170D01*
X294115Y11196D01*
X294312Y11933D01*
D02*
G37*
G36*
X286079Y18933D02*
X274079D01*
Y6933D01*
X286079D01*
Y9704D01*
X286579Y9912D01*
X287158Y9332D01*
X288184Y8740D01*
X288921Y8542D01*
Y12933D01*
Y17324D01*
X288184Y17126D01*
X287158Y16534D01*
X286579Y15955D01*
X286079Y16162D01*
Y18933D01*
D02*
G37*
G36*
X259312Y11933D02*
X255921D01*
Y8542D01*
X256658Y8740D01*
X257684Y9332D01*
X258522Y10170D01*
X259115Y11196D01*
X259312Y11933D01*
D02*
G37*
G36*
X251079Y18933D02*
X239079D01*
Y6933D01*
X251079D01*
Y9704D01*
X251579Y9912D01*
X252158Y9332D01*
X253184Y8740D01*
X253921Y8542D01*
Y12933D01*
Y17324D01*
X253184Y17126D01*
X252158Y16534D01*
X251579Y15955D01*
X251079Y16162D01*
Y18933D01*
D02*
G37*
G36*
X224312Y11933D02*
X220921D01*
Y8542D01*
X221658Y8740D01*
X222684Y9332D01*
X223522Y10170D01*
X224115Y11196D01*
X224312Y11933D01*
D02*
G37*
G36*
X216079Y18933D02*
X204079D01*
Y6933D01*
X216079D01*
Y9704D01*
X216579Y9912D01*
X217158Y9332D01*
X218184Y8740D01*
X218921Y8542D01*
Y12933D01*
Y17324D01*
X218184Y17126D01*
X217158Y16534D01*
X216579Y15955D01*
X216079Y16162D01*
Y18933D01*
D02*
G37*
G36*
X189312Y11933D02*
X185921D01*
Y8542D01*
X186658Y8740D01*
X187684Y9332D01*
X188522Y10170D01*
X189115Y11196D01*
X189312Y11933D01*
D02*
G37*
G36*
X181079Y18933D02*
X169079D01*
Y6933D01*
X181079D01*
Y9704D01*
X181579Y9912D01*
X182158Y9332D01*
X183184Y8740D01*
X183921Y8542D01*
Y12933D01*
Y17324D01*
X183184Y17126D01*
X182158Y16534D01*
X181579Y15955D01*
X181079Y16162D01*
Y18933D01*
D02*
G37*
G36*
X154312Y11933D02*
X150921D01*
Y8542D01*
X151658Y8740D01*
X152684Y9332D01*
X153522Y10170D01*
X154115Y11196D01*
X154312Y11933D01*
D02*
G37*
G36*
X146079Y18933D02*
X134079D01*
Y6933D01*
X146079D01*
Y9704D01*
X146579Y9912D01*
X147158Y9332D01*
X148184Y8740D01*
X148921Y8542D01*
Y12933D01*
Y17324D01*
X148184Y17126D01*
X147158Y16534D01*
X146579Y15955D01*
X146079Y16162D01*
Y18933D01*
D02*
G37*
G36*
X119312Y11933D02*
X115921D01*
Y8542D01*
X116658Y8740D01*
X117684Y9332D01*
X118522Y10170D01*
X119115Y11196D01*
X119312Y11933D01*
D02*
G37*
G36*
X111079Y18933D02*
X99079D01*
Y6933D01*
X111079D01*
Y9704D01*
X111579Y9912D01*
X112158Y9332D01*
X113184Y8740D01*
X113921Y8542D01*
Y12933D01*
Y17324D01*
X113184Y17126D01*
X112158Y16534D01*
X111579Y15955D01*
X111079Y16162D01*
Y18933D01*
D02*
G37*
G36*
X386049Y28327D02*
X383951D01*
X381879Y27999D01*
X379884Y27350D01*
X378015Y26398D01*
X376318Y25165D01*
X374835Y23682D01*
X373602Y21985D01*
X372650Y20116D01*
X372001Y18121D01*
X371673Y16049D01*
Y13951D01*
X372001Y11879D01*
X372650Y9884D01*
X373602Y8015D01*
X374835Y6318D01*
X376318Y4835D01*
X378015Y3602D01*
X379884Y2650D01*
X381879Y2001D01*
X383951Y1673D01*
X386049D01*
X388121Y2001D01*
X390116Y2650D01*
X391985Y3602D01*
X393682Y4835D01*
X395165Y6318D01*
X396398Y8015D01*
X397350Y9884D01*
X397999Y11879D01*
X398327Y13951D01*
Y16049D01*
X397999Y18121D01*
X397350Y20116D01*
X396398Y21985D01*
X395165Y23682D01*
X393682Y25165D01*
X391985Y26398D01*
X390116Y27350D01*
X388121Y27999D01*
X386049Y28327D01*
D02*
G37*
G36*
X16049D02*
X13951D01*
X11879Y27999D01*
X9884Y27350D01*
X8015Y26398D01*
X6318Y25165D01*
X4835Y23682D01*
X3602Y21985D01*
X2650Y20116D01*
X2001Y18121D01*
X1673Y16049D01*
Y13951D01*
X2001Y11879D01*
X2650Y9884D01*
X3602Y8015D01*
X4835Y6318D01*
X6318Y4835D01*
X8015Y3602D01*
X9884Y2650D01*
X11879Y2001D01*
X13951Y1673D01*
X16049D01*
X18121Y2001D01*
X20116Y2650D01*
X21985Y3602D01*
X23682Y4835D01*
X25165Y6318D01*
X26398Y8015D01*
X27350Y9884D01*
X27999Y11879D01*
X28327Y13951D01*
Y16049D01*
X27999Y18121D01*
X27350Y20116D01*
X26398Y21985D01*
X25165Y23682D01*
X23682Y25165D01*
X21985Y26398D01*
X20116Y27350D01*
X18121Y27999D01*
X16049Y28327D01*
D02*
G37*
%LPD*%
G36*
X39000Y147394D02*
X39663Y145793D01*
X40626Y144351D01*
X41851Y143126D01*
X43293Y142163D01*
X44894Y141500D01*
X44991Y141480D01*
Y140980D01*
X44894Y140961D01*
X43293Y140298D01*
X41851Y139335D01*
X41463Y138947D01*
X40970Y139025D01*
X40893Y139175D01*
X39715Y140797D01*
X38297Y142215D01*
X36675Y143393D01*
X36525Y143470D01*
X36447Y143963D01*
X36835Y144351D01*
X37798Y145793D01*
X38461Y147394D01*
X38480Y147491D01*
X38980D01*
X39000Y147394D01*
D02*
G37*
G36*
X21539D02*
X22202Y145793D01*
X23165Y144351D01*
X23553Y143963D01*
X23475Y143470D01*
X23325Y143393D01*
X21703Y142215D01*
X20285Y140797D01*
X19107Y139175D01*
X19030Y139025D01*
X18537Y138947D01*
X18148Y139335D01*
X16707Y140298D01*
X15106Y140961D01*
X15009Y140980D01*
Y141480D01*
X15106Y141500D01*
X16707Y142163D01*
X18148Y143126D01*
X19374Y144351D01*
X20337Y145793D01*
X21000Y147394D01*
X21020Y147491D01*
X21520D01*
X21539Y147394D01*
D02*
G37*
G36*
X41851Y125665D02*
X43293Y124702D01*
X44894Y124039D01*
X44991Y124020D01*
Y123520D01*
X44894Y123500D01*
X43293Y122837D01*
X41851Y121874D01*
X40626Y120649D01*
X39663Y119207D01*
X39000Y117606D01*
X38980Y117509D01*
X38480D01*
X38461Y117606D01*
X37798Y119207D01*
X36835Y120649D01*
X36447Y121037D01*
X36525Y121530D01*
X36675Y121607D01*
X38297Y122785D01*
X39715Y124203D01*
X40893Y125825D01*
X40970Y125975D01*
X41463Y126053D01*
X41851Y125665D01*
D02*
G37*
G36*
X19030Y125975D02*
X19107Y125825D01*
X20285Y124203D01*
X21703Y122785D01*
X23325Y121607D01*
X23475Y121530D01*
X23553Y121037D01*
X23165Y120649D01*
X22202Y119207D01*
X21539Y117606D01*
X21520Y117509D01*
X21020D01*
X21000Y117606D01*
X20337Y119207D01*
X19374Y120649D01*
X18148Y121874D01*
X16707Y122837D01*
X15106Y123500D01*
X15009Y123520D01*
Y124020D01*
X15106Y124039D01*
X16707Y124702D01*
X18148Y125665D01*
X18537Y126053D01*
X19030Y125975D01*
D02*
G37*
D25*
X116933Y95079D02*
D03*
X105079Y187067D02*
D03*
X140079D02*
D03*
X175079D02*
D03*
X210079D02*
D03*
X245079D02*
D03*
X280079D02*
D03*
X315079D02*
D03*
X350079D02*
D03*
X359921Y12933D02*
D03*
X324921D02*
D03*
X289921D02*
D03*
X254921D02*
D03*
X219921D02*
D03*
X184921D02*
D03*
X149921D02*
D03*
X114921D02*
D03*
D26*
X116933Y104921D02*
D03*
D27*
X114921Y187067D02*
D03*
X149921D02*
D03*
X184921D02*
D03*
X219921D02*
D03*
X254921D02*
D03*
X289921D02*
D03*
X324921D02*
D03*
X359921D02*
D03*
X350079Y12933D02*
D03*
X315079D02*
D03*
X280079D02*
D03*
X245079D02*
D03*
X210079D02*
D03*
X175079D02*
D03*
X140079D02*
D03*
X105079D02*
D03*
D43*
X30000Y132500D02*
D03*
Y67500D02*
D03*
D44*
X12539Y149961D02*
D03*
X30000D02*
D03*
X47461D02*
D03*
Y132500D02*
D03*
X12539D02*
D03*
Y115039D02*
D03*
X30000D02*
D03*
X47461D02*
D03*
X12539Y84961D02*
D03*
X30000D02*
D03*
X47461D02*
D03*
Y67500D02*
D03*
X12539D02*
D03*
Y50039D02*
D03*
X30000D02*
D03*
X47461D02*
D03*
X379000Y130000D02*
D03*
X390555Y118445D02*
D03*
X367445D02*
D03*
X390555Y141555D02*
D03*
X367445D02*
D03*
X379000Y70000D02*
D03*
X390555Y58445D02*
D03*
X367445D02*
D03*
X390555Y81555D02*
D03*
X367445D02*
D03*
D45*
X15000Y185000D02*
D03*
X385000D02*
D03*
Y15000D02*
D03*
X15000D02*
D03*
D46*
X140000Y70079D02*
D03*
Y100000D02*
D03*
Y129921D02*
D03*
X340000D02*
D03*
Y114961D02*
D03*
Y100000D02*
D03*
Y85039D02*
D03*
Y70079D02*
D03*
D47*
X351000Y111000D02*
D03*
X95500Y40000D02*
D03*
X70000D02*
D03*
X213000Y120000D02*
D03*
Y136000D02*
D03*
X187000Y120000D02*
D03*
Y136000D02*
D03*
X46000Y180000D02*
D03*
Y20000D02*
D03*
X302500Y74000D02*
D03*
Y126000D02*
D03*
M02*
