G04*
G04 #@! TF.GenerationSoftware,Altium Limited,Altium Designer,21.0.9 (235)*
G04*
G04 Layer_Color=32896*
%FSLAX25Y25*%
%MOIN*%
G70*
G04*
G04 #@! TF.SameCoordinates,BF538C37-7BC0-418B-8844-18137046693D*
G04*
G04*
G04 #@! TF.FilePolarity,Positive*
G04*
G01*
G75*
%ADD12C,0.01000*%
G36*
X124454Y153048D02*
X124549Y153040D01*
X124637Y153027D01*
X124720Y153006D01*
X124799Y152986D01*
X124870Y152961D01*
X124936Y152936D01*
X124994Y152911D01*
X125048Y152882D01*
X125094Y152857D01*
X125136Y152832D01*
X125169Y152811D01*
X125194Y152790D01*
X125211Y152778D01*
X125223Y152769D01*
X125227Y152765D01*
X125286Y152711D01*
X125336Y152649D01*
X125381Y152586D01*
X125423Y152515D01*
X125456Y152449D01*
X125489Y152382D01*
X125514Y152312D01*
X125535Y152249D01*
X125556Y152187D01*
X125568Y152129D01*
X125581Y152075D01*
X125589Y152029D01*
X125593Y151991D01*
X125598Y151966D01*
X125602Y151950D01*
Y151941D01*
X125119Y151892D01*
X125115Y151958D01*
X125111Y152021D01*
X125086Y152129D01*
X125053Y152228D01*
X125036Y152270D01*
X125015Y152307D01*
X124999Y152341D01*
X124978Y152370D01*
X124961Y152395D01*
X124949Y152416D01*
X124932Y152432D01*
X124924Y152445D01*
X124919Y152449D01*
X124915Y152453D01*
X124874Y152491D01*
X124832Y152524D01*
X124786Y152549D01*
X124741Y152574D01*
X124649Y152611D01*
X124562Y152636D01*
X124487Y152649D01*
X124454Y152657D01*
X124425D01*
X124399Y152661D01*
X124308D01*
X124250Y152653D01*
X124146Y152632D01*
X124058Y152599D01*
X123979Y152565D01*
X123921Y152528D01*
X123896Y152511D01*
X123875Y152495D01*
X123859Y152482D01*
X123846Y152474D01*
X123842Y152470D01*
X123838Y152466D01*
X123801Y152428D01*
X123771Y152391D01*
X123742Y152353D01*
X123721Y152312D01*
X123684Y152233D01*
X123659Y152158D01*
X123647Y152095D01*
X123638Y152066D01*
Y152041D01*
X123634Y152025D01*
Y152008D01*
Y152000D01*
Y151996D01*
X123638Y151946D01*
X123642Y151896D01*
X123667Y151796D01*
X123705Y151700D01*
X123746Y151613D01*
X123788Y151538D01*
X123805Y151509D01*
X123825Y151480D01*
X123838Y151459D01*
X123850Y151442D01*
X123855Y151434D01*
X123859Y151430D01*
X123905Y151372D01*
X123959Y151309D01*
X124021Y151243D01*
X124088Y151176D01*
X124225Y151039D01*
X124366Y150910D01*
X124433Y150847D01*
X124499Y150793D01*
X124558Y150743D01*
X124608Y150702D01*
X124649Y150664D01*
X124678Y150639D01*
X124699Y150619D01*
X124707Y150614D01*
X124782Y150552D01*
X124849Y150494D01*
X124915Y150440D01*
X124974Y150386D01*
X125032Y150336D01*
X125082Y150286D01*
X125127Y150244D01*
X125169Y150203D01*
X125207Y150165D01*
X125236Y150132D01*
X125265Y150103D01*
X125286Y150082D01*
X125306Y150061D01*
X125319Y150049D01*
X125323Y150040D01*
X125327Y150036D01*
X125402Y149945D01*
X125464Y149853D01*
X125519Y149766D01*
X125560Y149687D01*
X125593Y149620D01*
X125606Y149591D01*
X125618Y149570D01*
X125627Y149549D01*
X125631Y149537D01*
X125635Y149529D01*
Y149524D01*
X125656Y149466D01*
X125668Y149408D01*
X125681Y149354D01*
X125685Y149304D01*
X125689Y149262D01*
Y149229D01*
Y149208D01*
Y149200D01*
X123147D01*
Y149653D01*
X125040D01*
X124974Y149745D01*
X124940Y149787D01*
X124907Y149824D01*
X124878Y149857D01*
X124857Y149882D01*
X124840Y149899D01*
X124836Y149903D01*
X124811Y149928D01*
X124778Y149961D01*
X124741Y149995D01*
X124699Y150032D01*
X124612Y150115D01*
X124520Y150194D01*
X124433Y150269D01*
X124395Y150302D01*
X124358Y150331D01*
X124333Y150356D01*
X124308Y150373D01*
X124295Y150386D01*
X124291Y150390D01*
X124200Y150469D01*
X124112Y150544D01*
X124033Y150610D01*
X123963Y150677D01*
X123896Y150735D01*
X123838Y150793D01*
X123784Y150843D01*
X123734Y150889D01*
X123692Y150926D01*
X123659Y150964D01*
X123630Y150993D01*
X123605Y151018D01*
X123588Y151039D01*
X123572Y151051D01*
X123567Y151059D01*
X123563Y151064D01*
X123484Y151155D01*
X123422Y151238D01*
X123368Y151317D01*
X123322Y151388D01*
X123289Y151446D01*
X123264Y151492D01*
X123256Y151509D01*
X123251Y151521D01*
X123247Y151525D01*
Y151530D01*
X123214Y151613D01*
X123193Y151696D01*
X123177Y151771D01*
X123164Y151842D01*
X123156Y151900D01*
X123152Y151946D01*
Y151962D01*
Y151975D01*
Y151979D01*
Y151983D01*
X123156Y152066D01*
X123164Y152145D01*
X123181Y152220D01*
X123201Y152295D01*
X123226Y152362D01*
X123256Y152424D01*
X123285Y152482D01*
X123314Y152532D01*
X123343Y152582D01*
X123372Y152624D01*
X123401Y152661D01*
X123426Y152690D01*
X123447Y152711D01*
X123463Y152732D01*
X123472Y152740D01*
X123476Y152744D01*
X123538Y152798D01*
X123605Y152844D01*
X123676Y152886D01*
X123751Y152923D01*
X123821Y152952D01*
X123896Y152977D01*
X123967Y152998D01*
X124038Y153015D01*
X124100Y153027D01*
X124162Y153035D01*
X124216Y153044D01*
X124262Y153048D01*
X124300Y153052D01*
X124354D01*
X124454Y153048D01*
D02*
G37*
G36*
X129300Y150822D02*
Y150710D01*
X129292Y150606D01*
X129288Y150506D01*
X129275Y150415D01*
X129267Y150327D01*
X129254Y150248D01*
X129242Y150178D01*
X129225Y150111D01*
X129213Y150053D01*
X129200Y150003D01*
X129188Y149957D01*
X129175Y149924D01*
X129167Y149895D01*
X129159Y149874D01*
X129154Y149861D01*
Y149857D01*
X129125Y149795D01*
X129092Y149732D01*
X129017Y149624D01*
X128938Y149533D01*
X128855Y149458D01*
X128817Y149425D01*
X128784Y149400D01*
X128751Y149375D01*
X128722Y149354D01*
X128701Y149341D01*
X128684Y149329D01*
X128672Y149325D01*
X128668Y149321D01*
X128601Y149287D01*
X128530Y149262D01*
X128385Y149217D01*
X128235Y149183D01*
X128094Y149163D01*
X128031Y149154D01*
X127969Y149146D01*
X127919Y149142D01*
X127873D01*
X127836Y149138D01*
X127782D01*
X127682Y149142D01*
X127586Y149146D01*
X127495Y149158D01*
X127407Y149171D01*
X127328Y149188D01*
X127253Y149204D01*
X127187Y149225D01*
X127129Y149246D01*
X127070Y149262D01*
X127024Y149283D01*
X126983Y149300D01*
X126950Y149317D01*
X126920Y149329D01*
X126904Y149341D01*
X126891Y149346D01*
X126887Y149350D01*
X126825Y149391D01*
X126767Y149433D01*
X126717Y149479D01*
X126667Y149524D01*
X126625Y149570D01*
X126584Y149620D01*
X126550Y149662D01*
X126521Y149707D01*
X126471Y149782D01*
X126455Y149816D01*
X126438Y149845D01*
X126425Y149870D01*
X126417Y149886D01*
X126413Y149899D01*
Y149903D01*
X126388Y149970D01*
X126367Y150040D01*
X126334Y150190D01*
X126313Y150344D01*
X126296Y150490D01*
X126292Y150560D01*
X126288Y150623D01*
X126284Y150677D01*
X126280Y150727D01*
Y150768D01*
Y150797D01*
Y150814D01*
Y150822D01*
Y153040D01*
X126787D01*
Y150822D01*
X126792Y150693D01*
X126796Y150573D01*
X126808Y150465D01*
X126825Y150365D01*
X126841Y150277D01*
X126862Y150198D01*
X126887Y150128D01*
X126908Y150065D01*
X126929Y150011D01*
X126954Y149965D01*
X126975Y149928D01*
X126991Y149899D01*
X127008Y149878D01*
X127016Y149861D01*
X127024Y149853D01*
X127029Y149849D01*
X127079Y149803D01*
X127133Y149766D01*
X127191Y149732D01*
X127253Y149703D01*
X127320Y149678D01*
X127386Y149658D01*
X127515Y149628D01*
X127578Y149616D01*
X127636Y149608D01*
X127690Y149603D01*
X127736Y149599D01*
X127773Y149595D01*
X127827D01*
X127944Y149599D01*
X128052Y149616D01*
X128148Y149637D01*
X128231Y149658D01*
X128264Y149670D01*
X128293Y149683D01*
X128322Y149691D01*
X128343Y149699D01*
X128360Y149707D01*
X128372Y149716D01*
X128381Y149720D01*
X128385D01*
X128464Y149774D01*
X128530Y149832D01*
X128585Y149891D01*
X128626Y149953D01*
X128659Y150003D01*
X128684Y150049D01*
X128693Y150065D01*
X128697Y150078D01*
X128701Y150082D01*
Y150086D01*
X128718Y150132D01*
X128730Y150186D01*
X128755Y150302D01*
X128772Y150423D01*
X128780Y150544D01*
X128784Y150598D01*
X128788Y150652D01*
Y150698D01*
X128793Y150739D01*
Y150777D01*
Y150802D01*
Y150818D01*
Y150822D01*
Y153040D01*
X129300D01*
Y150822D01*
D02*
G37*
D12*
X123661Y53347D02*
Y146653D01*
X357520D01*
X123661Y53347D02*
X357520D01*
Y146653D01*
M02*
