G04*
G04 #@! TF.GenerationSoftware,Altium Limited,Altium Designer,21.0.9 (235)*
G04*
G04 Layer_Physical_Order=1*
G04 Layer_Color=255*
%FSLAX25Y25*%
%MOIN*%
G70*
G04*
G04 #@! TF.SameCoordinates,681C86FF-A5D9-4EC2-8099-3749C4F56B9B*
G04*
G04*
G04 #@! TF.FilePolarity,Positive*
G04*
G01*
G75*
%ADD13C,0.02500*%
%ADD14C,0.07000*%
%ADD15R,0.07000X0.07000*%
G36*
X103705Y73104D02*
X104145Y72922D01*
X104541Y72658D01*
X104878Y72321D01*
X105142Y71925D01*
X105325Y71485D01*
X105418Y71018D01*
Y70780D01*
Y3221D01*
X105418Y2982D01*
X105325Y2515D01*
X105142Y2075D01*
X104878Y1679D01*
X104541Y1343D01*
X104145Y1078D01*
X103705Y896D01*
X103238Y803D01*
X103000Y803D01*
X54840D01*
X53547Y1060D01*
X52328Y1565D01*
X51231Y2298D01*
X50298Y3231D01*
X49565Y4328D01*
X49060Y5547D01*
X48803Y6840D01*
Y7500D01*
X48799Y7520D01*
X48802Y7539D01*
X48766Y8275D01*
X48751Y8332D01*
Y8392D01*
X48464Y9834D01*
X48434Y9907D01*
X48419Y9984D01*
X47856Y11343D01*
X47812Y11408D01*
X47782Y11481D01*
X46965Y12704D01*
X46909Y12760D01*
X46865Y12826D01*
X45826Y13865D01*
X45760Y13909D01*
X45704Y13965D01*
X44482Y14782D01*
X44408Y14812D01*
X44343Y14856D01*
X42984Y15419D01*
X42907Y15434D01*
X42834Y15464D01*
X41392Y15751D01*
X41332D01*
X41274Y15766D01*
X40539Y15802D01*
X40520Y15799D01*
X40500Y15803D01*
X1762D01*
X1322Y15985D01*
X985Y16322D01*
X803Y16762D01*
Y17000D01*
Y57000D01*
Y57238D01*
X985Y57678D01*
X1322Y58015D01*
X1762Y58197D01*
X40500D01*
X40520Y58201D01*
X40539Y58198D01*
X41274Y58234D01*
X41332Y58249D01*
X41392D01*
X42834Y58536D01*
X42907Y58566D01*
X42984Y58581D01*
X44343Y59144D01*
X44408Y59188D01*
X44482Y59218D01*
X45704Y60035D01*
X45760Y60091D01*
X45826Y60135D01*
X46865Y61174D01*
X46909Y61240D01*
X46965Y61296D01*
X47782Y62519D01*
X47812Y62591D01*
X47856Y62657D01*
X48419Y64016D01*
X48434Y64093D01*
X48464Y64166D01*
X48751Y65608D01*
Y65668D01*
X48766Y65725D01*
X48802Y66461D01*
X48799Y66480D01*
X48803Y66500D01*
Y67160D01*
X49060Y68454D01*
X49565Y69672D01*
X50298Y70769D01*
X51231Y71702D01*
X52328Y72435D01*
X53547Y72940D01*
X54840Y73197D01*
X103238D01*
X103705Y73104D01*
D02*
G37*
%LPC*%
G36*
X70000Y64258D02*
X68878Y64111D01*
X67831Y63677D01*
X66933Y62988D01*
X66244Y62090D01*
X65811Y61044D01*
X65663Y59921D01*
X65811Y58799D01*
X66244Y57753D01*
X66933Y56854D01*
X67831Y56165D01*
X68878Y55732D01*
X70000Y55584D01*
X71122Y55732D01*
X72169Y56165D01*
X73067Y56854D01*
X73756Y57753D01*
X74189Y58799D01*
X74337Y59921D01*
X74189Y61044D01*
X73756Y62090D01*
X73067Y62988D01*
X72169Y63677D01*
X71122Y64111D01*
X70000Y64258D01*
D02*
G37*
G36*
X74300Y54379D02*
X65700D01*
Y52169D01*
X55079D01*
X55079Y52169D01*
X54279Y52010D01*
X53601Y51557D01*
X53601Y51557D01*
X50977Y48933D01*
X40521D01*
Y51143D01*
X31920D01*
Y42542D01*
X40521D01*
Y44752D01*
X51842D01*
X51842Y44752D01*
X52642Y44912D01*
X53320Y45365D01*
X55945Y47989D01*
X65700D01*
Y45779D01*
X74300D01*
Y54379D01*
D02*
G37*
G36*
X37220Y41407D02*
Y38000D01*
X40628D01*
X40605Y38175D01*
X40151Y39269D01*
X39430Y40209D01*
X38490Y40931D01*
X37395Y41384D01*
X37220Y41407D01*
D02*
G37*
G36*
X35221Y41407D02*
X35046Y41384D01*
X33951Y40931D01*
X33011Y40209D01*
X32290Y39269D01*
X31836Y38175D01*
X31813Y38000D01*
X35221D01*
Y41407D01*
D02*
G37*
G36*
X40628Y36000D02*
X37220D01*
Y32593D01*
X37395Y32616D01*
X38490Y33069D01*
X39430Y33791D01*
X40151Y34731D01*
X40605Y35825D01*
X40628Y36000D01*
D02*
G37*
G36*
X35221D02*
X31813D01*
X31836Y35825D01*
X32290Y34731D01*
X33011Y33791D01*
X33951Y33069D01*
X35046Y32616D01*
X35221Y32593D01*
Y36000D01*
D02*
G37*
G36*
X36220Y31495D02*
X35098Y31347D01*
X34052Y30913D01*
X33154Y30224D01*
X32464Y29326D01*
X32031Y28280D01*
X31883Y27158D01*
X32031Y26035D01*
X32464Y24989D01*
X33154Y24091D01*
X34052Y23401D01*
X35098Y22968D01*
X36220Y22820D01*
X37343Y22968D01*
X38389Y23401D01*
X39287Y24091D01*
X39977Y24989D01*
X40410Y26035D01*
X40558Y27158D01*
X40410Y28280D01*
X39977Y29326D01*
X39287Y30224D01*
X38389Y30913D01*
X37343Y31347D01*
X36220Y31495D01*
D02*
G37*
G36*
X70000Y28258D02*
X68878Y28111D01*
X67831Y27677D01*
X66933Y26988D01*
X66244Y26090D01*
X65811Y25044D01*
X65663Y23921D01*
X65811Y22799D01*
X66244Y21753D01*
X66933Y20854D01*
X67831Y20165D01*
X68878Y19732D01*
X70000Y19584D01*
X71122Y19732D01*
X72169Y20165D01*
X73067Y20854D01*
X73756Y21753D01*
X74189Y22799D01*
X74337Y23921D01*
X74189Y25044D01*
X73756Y26090D01*
X73067Y26988D01*
X72169Y27677D01*
X71122Y28111D01*
X70000Y28258D01*
D02*
G37*
G36*
X74500Y18579D02*
X71000D01*
Y15079D01*
X74500D01*
Y18579D01*
D02*
G37*
G36*
X69000D02*
X65500D01*
Y15079D01*
X69000D01*
Y18579D01*
D02*
G37*
G36*
X74500Y13079D02*
X71000D01*
Y9579D01*
X74500D01*
Y13079D01*
D02*
G37*
G36*
X69000D02*
X65500D01*
Y9579D01*
X69000D01*
Y13079D01*
D02*
G37*
%LPD*%
D13*
X55079Y50079D02*
X70000D01*
X51842Y46843D02*
X55079Y50079D01*
X36220Y46843D02*
X51842D01*
D14*
X36220Y27158D02*
D03*
Y37000D02*
D03*
X70000Y59921D02*
D03*
Y23921D02*
D03*
D15*
X36220Y46843D02*
D03*
X70000Y50079D02*
D03*
Y14079D02*
D03*
M02*
