G04*
G04 #@! TF.GenerationSoftware,Altium Limited,Altium Designer,21.0.9 (235)*
G04*
G04 Layer_Physical_Order=2*
G04 Layer_Color=16711680*
%FSLAX25Y25*%
%MOIN*%
G70*
G04*
G04 #@! TF.SameCoordinates,681C86FF-A5D9-4EC2-8099-3749C4F56B9B*
G04*
G04*
G04 #@! TF.FilePolarity,Positive*
G04*
G01*
G75*
%ADD14C,0.07000*%
%ADD15R,0.07000X0.07000*%
G36*
X103705Y73104D02*
X104145Y72922D01*
X104541Y72658D01*
X104878Y72321D01*
X105142Y71925D01*
X105325Y71485D01*
X105418Y71018D01*
Y70780D01*
Y3221D01*
X105418Y2982D01*
X105325Y2515D01*
X105142Y2075D01*
X104878Y1679D01*
X104541Y1343D01*
X104145Y1078D01*
X103705Y896D01*
X103238Y803D01*
X103000Y803D01*
X54840D01*
X53547Y1060D01*
X52328Y1565D01*
X51231Y2298D01*
X50298Y3231D01*
X49565Y4328D01*
X49060Y5547D01*
X48803Y6840D01*
Y7500D01*
X48799Y7520D01*
X48802Y7539D01*
X48766Y8275D01*
X48751Y8332D01*
Y8392D01*
X48464Y9834D01*
X48434Y9907D01*
X48419Y9984D01*
X47856Y11343D01*
X47812Y11408D01*
X47782Y11481D01*
X46965Y12704D01*
X46909Y12760D01*
X46865Y12826D01*
X45826Y13865D01*
X45760Y13909D01*
X45704Y13965D01*
X44482Y14782D01*
X44408Y14812D01*
X44343Y14856D01*
X42984Y15419D01*
X42907Y15434D01*
X42834Y15464D01*
X41392Y15751D01*
X41332D01*
X41274Y15766D01*
X40539Y15802D01*
X40520Y15799D01*
X40500Y15803D01*
X1762D01*
X1322Y15985D01*
X985Y16322D01*
X803Y16762D01*
Y17000D01*
Y57000D01*
Y57238D01*
X985Y57678D01*
X1322Y58015D01*
X1762Y58197D01*
X40500D01*
X40520Y58201D01*
X40539Y58198D01*
X41274Y58234D01*
X41332Y58249D01*
X41392D01*
X42834Y58536D01*
X42907Y58566D01*
X42984Y58581D01*
X44343Y59144D01*
X44408Y59188D01*
X44482Y59218D01*
X45704Y60035D01*
X45760Y60091D01*
X45826Y60135D01*
X46865Y61174D01*
X46909Y61240D01*
X46965Y61296D01*
X47782Y62519D01*
X47812Y62591D01*
X47856Y62657D01*
X48419Y64016D01*
X48434Y64093D01*
X48464Y64166D01*
X48751Y65608D01*
Y65668D01*
X48766Y65725D01*
X48802Y66461D01*
X48799Y66480D01*
X48803Y66500D01*
Y67160D01*
X49060Y68454D01*
X49565Y69672D01*
X50298Y70769D01*
X51231Y71702D01*
X52328Y72435D01*
X53547Y72940D01*
X54840Y73197D01*
X103238D01*
X103705Y73104D01*
D02*
G37*
%LPC*%
G36*
X71000Y64328D02*
Y60921D01*
X74407D01*
X74384Y61096D01*
X73931Y62191D01*
X73209Y63131D01*
X72269Y63852D01*
X71175Y64305D01*
X71000Y64328D01*
D02*
G37*
G36*
X69000Y64328D02*
X68825Y64305D01*
X67731Y63852D01*
X66791Y63131D01*
X66069Y62191D01*
X65616Y61096D01*
X65593Y60921D01*
X69000D01*
Y64328D01*
D02*
G37*
G36*
Y58921D02*
X65593D01*
X65616Y58746D01*
X66069Y57652D01*
X66791Y56712D01*
X67731Y55990D01*
X68825Y55537D01*
X69000Y55514D01*
Y58921D01*
D02*
G37*
G36*
X74407D02*
X71000D01*
Y55514D01*
X71175Y55537D01*
X72269Y55990D01*
X73209Y56712D01*
X73931Y57652D01*
X74384Y58746D01*
X74407Y58921D01*
D02*
G37*
G36*
X74300Y54379D02*
X65700D01*
Y45779D01*
X74300D01*
Y54379D01*
D02*
G37*
G36*
X40521Y51143D02*
X31920D01*
Y42542D01*
X40521D01*
Y51143D01*
D02*
G37*
G36*
X36220Y41337D02*
X35098Y41189D01*
X34052Y40756D01*
X33154Y40067D01*
X32464Y39169D01*
X32031Y38122D01*
X31883Y37000D01*
X32031Y35877D01*
X32464Y34832D01*
X33154Y33933D01*
X34052Y33244D01*
X35098Y32811D01*
X36220Y32663D01*
X37343Y32811D01*
X38389Y33244D01*
X39287Y33933D01*
X39977Y34832D01*
X40410Y35877D01*
X40558Y37000D01*
X40410Y38122D01*
X39977Y39169D01*
X39287Y40067D01*
X38389Y40756D01*
X37343Y41189D01*
X36220Y41337D01*
D02*
G37*
G36*
X37220Y31565D02*
Y28157D01*
X40628D01*
X40605Y28332D01*
X40151Y29427D01*
X39430Y30367D01*
X38490Y31088D01*
X37395Y31542D01*
X37220Y31565D01*
D02*
G37*
G36*
X35221Y31565D02*
X35046Y31542D01*
X33951Y31088D01*
X33011Y30367D01*
X32290Y29427D01*
X31836Y28332D01*
X31813Y28157D01*
X35221D01*
Y31565D01*
D02*
G37*
G36*
X71000Y28328D02*
Y24921D01*
X74407D01*
X74384Y25096D01*
X73931Y26191D01*
X73209Y27131D01*
X72269Y27852D01*
X71175Y28305D01*
X71000Y28328D01*
D02*
G37*
G36*
X69000D02*
X68825Y28305D01*
X67731Y27852D01*
X66791Y27131D01*
X66069Y26191D01*
X65616Y25096D01*
X65593Y24921D01*
X69000D01*
Y28328D01*
D02*
G37*
G36*
X40628Y26158D02*
X37220D01*
Y22750D01*
X37395Y22773D01*
X38490Y23227D01*
X39430Y23948D01*
X40151Y24888D01*
X40605Y25983D01*
X40628Y26158D01*
D02*
G37*
G36*
X35221D02*
X31813D01*
X31836Y25983D01*
X32290Y24888D01*
X33011Y23948D01*
X33951Y23227D01*
X35046Y22773D01*
X35221Y22750D01*
Y26158D01*
D02*
G37*
G36*
X74407Y22921D02*
X71000D01*
Y19514D01*
X71175Y19537D01*
X72269Y19990D01*
X73209Y20712D01*
X73931Y21652D01*
X74384Y22747D01*
X74407Y22921D01*
D02*
G37*
G36*
X69000D02*
X65593D01*
X65616Y22747D01*
X66069Y21652D01*
X66791Y20712D01*
X67731Y19990D01*
X68825Y19537D01*
X69000Y19514D01*
Y22921D01*
D02*
G37*
G36*
X74300Y18379D02*
X65700D01*
Y9779D01*
X74300D01*
Y18379D01*
D02*
G37*
%LPD*%
D14*
X36220Y27158D02*
D03*
Y37000D02*
D03*
X70000Y59921D02*
D03*
Y23921D02*
D03*
D15*
X36220Y46843D02*
D03*
X70000Y50079D02*
D03*
Y14079D02*
D03*
M02*
