G04*
G04 #@! TF.GenerationSoftware,Altium Limited,Altium Designer,21.0.9 (235)*
G04*
G04 Layer_Physical_Order=2*
G04 Layer_Color=16711680*
%FSLAX25Y25*%
%MOIN*%
G70*
G04*
G04 #@! TF.SameCoordinates,1CF2FC8C-09F4-44CA-BDC6-0BDA6B97EC4B*
G04*
G04*
G04 #@! TF.FilePolarity,Positive*
G04*
G01*
G75*
%ADD14R,0.07000X0.07000*%
%ADD15C,0.07000*%
G36*
X103939Y73926D02*
X104525Y73684D01*
X105053Y73331D01*
X105502Y72883D01*
X105854Y72355D01*
X106097Y71769D01*
X106192Y71291D01*
X106220Y70830D01*
Y70830D01*
X106220Y70830D01*
X106220Y70829D01*
X106220Y3270D01*
X106220Y2953D01*
X106097Y2331D01*
X105854Y1745D01*
X105502Y1217D01*
X105053Y769D01*
X104525Y416D01*
X103939Y174D01*
X103317Y50D01*
X103000Y50D01*
X55400D01*
X54666Y50D01*
X53227Y336D01*
X51871Y898D01*
X50651Y1713D01*
X49613Y2751D01*
X48798Y3971D01*
X48236Y5327D01*
X47950Y6766D01*
X47950Y7500D01*
X47950Y7500D01*
X47914Y8235D01*
X47627Y9677D01*
X47064Y11035D01*
X46248Y12258D01*
X45208Y13298D01*
X43986Y14115D01*
X42627Y14677D01*
X41185Y14964D01*
X40450Y15000D01*
X40450Y15000D01*
X40450Y15000D01*
X1950Y15000D01*
X1562Y15000D01*
X845Y15297D01*
X297Y15845D01*
X-0Y16562D01*
X0Y16950D01*
X0Y57050D01*
X0Y57438D01*
X297Y58155D01*
X845Y58703D01*
X1562Y59000D01*
X1950Y59000D01*
X1950Y59000D01*
X40450D01*
X41185Y59036D01*
X42627Y59323D01*
X43986Y59886D01*
X45208Y60703D01*
X46248Y61742D01*
X47064Y62964D01*
X47627Y64323D01*
X47914Y65765D01*
X47950Y66500D01*
X47950Y66500D01*
X47950Y67244D01*
X48240Y68702D01*
X48809Y70076D01*
X49635Y71313D01*
X50687Y72364D01*
X51924Y73191D01*
X53298Y73760D01*
X54756Y74050D01*
X55500Y74050D01*
X55500Y74050D01*
X103000Y74050D01*
X103317Y74050D01*
X103939Y73926D01*
D02*
G37*
%LPC*%
G36*
X70500Y64394D02*
Y60421D01*
X74473D01*
X74384Y61096D01*
X73931Y62191D01*
X73209Y63131D01*
X72269Y63852D01*
X71175Y64305D01*
X70500Y64394D01*
D02*
G37*
G36*
X69500Y64394D02*
X68825Y64305D01*
X67731Y63852D01*
X66791Y63131D01*
X66069Y62191D01*
X65616Y61096D01*
X65527Y60421D01*
X69500D01*
Y64394D01*
D02*
G37*
G36*
Y59421D02*
X65527D01*
X65616Y58746D01*
X66069Y57652D01*
X66791Y56712D01*
X67731Y55990D01*
X68825Y55537D01*
X69500Y55448D01*
Y59421D01*
D02*
G37*
G36*
X74473D02*
X70500D01*
Y55448D01*
X71175Y55537D01*
X72269Y55990D01*
X73209Y56712D01*
X73931Y57652D01*
X74384Y58746D01*
X74473Y59421D01*
D02*
G37*
G36*
X74500Y54579D02*
X65500D01*
Y45579D01*
X74500D01*
Y54579D01*
D02*
G37*
G36*
X40720Y51342D02*
X31721D01*
Y42342D01*
X40720D01*
Y51342D01*
D02*
G37*
G36*
X36220Y41539D02*
X35046Y41384D01*
X33951Y40931D01*
X33011Y40209D01*
X32290Y39269D01*
X31836Y38175D01*
X31682Y37000D01*
X31836Y35825D01*
X32290Y34731D01*
X33011Y33791D01*
X33951Y33069D01*
X35046Y32616D01*
X36220Y32461D01*
X37395Y32616D01*
X38490Y33069D01*
X39430Y33791D01*
X40151Y34731D01*
X40605Y35825D01*
X40759Y37000D01*
X40605Y38175D01*
X40151Y39269D01*
X39430Y40209D01*
X38490Y40931D01*
X37395Y41384D01*
X36220Y41539D01*
D02*
G37*
G36*
X36720Y31631D02*
Y27657D01*
X40694D01*
X40605Y28332D01*
X40151Y29427D01*
X39430Y30367D01*
X38490Y31088D01*
X37395Y31542D01*
X36720Y31631D01*
D02*
G37*
G36*
X35721D02*
X35046Y31542D01*
X33951Y31088D01*
X33011Y30367D01*
X32290Y29427D01*
X31836Y28332D01*
X31747Y27657D01*
X35721D01*
Y31631D01*
D02*
G37*
G36*
X70500Y28394D02*
Y24421D01*
X74473D01*
X74384Y25096D01*
X73931Y26191D01*
X73209Y27131D01*
X72269Y27852D01*
X71175Y28305D01*
X70500Y28394D01*
D02*
G37*
G36*
X69500D02*
X68825Y28305D01*
X67731Y27852D01*
X66791Y27131D01*
X66069Y26191D01*
X65616Y25096D01*
X65527Y24421D01*
X69500D01*
Y28394D01*
D02*
G37*
G36*
X40694Y26658D02*
X36720D01*
Y22684D01*
X37395Y22773D01*
X38490Y23227D01*
X39430Y23948D01*
X40151Y24888D01*
X40605Y25983D01*
X40694Y26658D01*
D02*
G37*
G36*
X35721D02*
X31747D01*
X31836Y25983D01*
X32290Y24888D01*
X33011Y23948D01*
X33951Y23227D01*
X35046Y22773D01*
X35721Y22684D01*
Y26658D01*
D02*
G37*
G36*
X74473Y23421D02*
X70500D01*
Y19448D01*
X71175Y19537D01*
X72269Y19990D01*
X73209Y20712D01*
X73931Y21652D01*
X74384Y22747D01*
X74473Y23421D01*
D02*
G37*
G36*
X69500D02*
X65527D01*
X65616Y22747D01*
X66069Y21652D01*
X66791Y20712D01*
X67731Y19990D01*
X68825Y19537D01*
X69500Y19448D01*
Y23421D01*
D02*
G37*
G36*
X74500Y18579D02*
X65500D01*
Y9579D01*
X74500D01*
Y18579D01*
D02*
G37*
%LPD*%
D14*
X70000Y50079D02*
D03*
Y14079D02*
D03*
X36220Y46843D02*
D03*
D15*
X70000Y59921D02*
D03*
Y23921D02*
D03*
X36220Y27158D02*
D03*
Y37000D02*
D03*
M02*
