G04*
G04 #@! TF.GenerationSoftware,Altium Limited,Altium Designer,21.0.9 (235)*
G04*
G04 Layer_Color=16711935*
%FSLAX25Y25*%
%MOIN*%
G70*
G04*
G04 #@! TF.SameCoordinates,681C86FF-A5D9-4EC2-8099-3749C4F56B9B*
G04*
G04*
G04 #@! TF.FilePolarity,Positive*
G04*
G01*
G75*
%ADD10C,0.01000*%
D10*
X40500Y59000D02*
X41479Y59064D01*
X42441Y59256D01*
X43370Y59571D01*
X44250Y60005D01*
X45066Y60550D01*
X45803Y61197D01*
X46450Y61934D01*
X46995Y62750D01*
X47429Y63630D01*
X47744Y64559D01*
X47936Y65521D01*
X48000Y66500D01*
X0Y17000D02*
X268Y16000D01*
X1000Y15268D01*
X2000Y15000D01*
Y59000D02*
X1000Y58732D01*
X268Y58000D01*
X0Y57000D01*
X55500Y74000D02*
X54521Y73936D01*
X53559Y73744D01*
X52630Y73429D01*
X51750Y72995D01*
X50934Y72450D01*
X50197Y71803D01*
X49550Y71066D01*
X49005Y70250D01*
X48571Y69370D01*
X48256Y68441D01*
X48064Y67479D01*
X48000Y66500D01*
Y7500D02*
X47936Y8479D01*
X47744Y9441D01*
X47429Y10370D01*
X46995Y11250D01*
X46450Y12066D01*
X45803Y12803D01*
X45066Y13450D01*
X44250Y13995D01*
X43370Y14429D01*
X42441Y14744D01*
X41479Y14936D01*
X40500Y15000D01*
X48000Y7500D02*
X48064Y6521D01*
X48256Y5559D01*
X48571Y4630D01*
X49005Y3750D01*
X49550Y2934D01*
X50197Y2197D01*
X50934Y1550D01*
X51750Y1005D01*
X52630Y571D01*
X53559Y256D01*
X54521Y64D01*
X55500Y0D01*
X103000Y0D02*
X103995Y158D01*
X104893Y615D01*
X105605Y1328D01*
X106063Y2225D01*
X106220Y3221D01*
Y70780D02*
X106063Y71775D01*
X105605Y72672D01*
X104893Y73385D01*
X103995Y73842D01*
X103000Y74000D01*
X2000Y59000D02*
X40500D01*
X0Y17000D02*
Y57000D01*
X2000Y15000D02*
X40500D01*
X55500Y74000D02*
X103000D01*
X55500Y0D02*
X103000D01*
X106220Y3221D02*
Y70780D01*
M02*
