G04*
G04 #@! TF.GenerationSoftware,Altium Limited,Altium Designer,21.0.9 (235)*
G04*
G04 Layer_Physical_Order=1*
G04 Layer_Color=255*
%FSLAX25Y25*%
%MOIN*%
G70*
G04*
G04 #@! TF.SameCoordinates,ED324722-7F9C-40FD-80D3-A2264BF02C7E*
G04*
G04*
G04 #@! TF.FilePolarity,Positive*
G04*
G01*
G75*
%ADD13C,0.02500*%
%ADD14R,0.07000X0.07000*%
%ADD15C,0.07000*%
G36*
X103989Y73926D02*
X104576Y73684D01*
X105103Y73331D01*
X105552Y72882D01*
X105904Y72355D01*
X106147Y71769D01*
X106242Y71291D01*
X106270Y70830D01*
Y70829D01*
X106270Y70829D01*
X106271Y70829D01*
X106271Y3270D01*
X106271Y2953D01*
X106147Y2331D01*
X105904Y1745D01*
X105552Y1217D01*
X105103Y769D01*
X104576Y416D01*
X103989Y174D01*
X103367Y50D01*
X103050Y50D01*
X55450D01*
X54716Y50D01*
X53277Y336D01*
X51921Y898D01*
X50701Y1713D01*
X49663Y2751D01*
X48848Y3971D01*
X48286Y5327D01*
X48000Y6766D01*
X48000Y7500D01*
X48000Y7500D01*
X47964Y8235D01*
X47677Y9677D01*
X47114Y11035D01*
X46298Y12258D01*
X45258Y13298D01*
X44036Y14114D01*
X42677Y14677D01*
X41235Y14964D01*
X40500Y15000D01*
X40500Y15000D01*
X40500Y15000D01*
X2000Y15000D01*
X1612Y15000D01*
X895Y15297D01*
X347Y15845D01*
X50Y16562D01*
X50Y16950D01*
X50Y57050D01*
X50Y57438D01*
X347Y58155D01*
X895Y58703D01*
X1612Y59000D01*
X2000Y59000D01*
X2000Y59000D01*
X40500D01*
X41235Y59036D01*
X42677Y59323D01*
X44035Y59886D01*
X45258Y60702D01*
X46297Y61742D01*
X47114Y62964D01*
X47677Y64323D01*
X47964Y65765D01*
X48000Y66500D01*
X48000Y66500D01*
X48000Y67244D01*
X48290Y68702D01*
X48859Y70076D01*
X49685Y71313D01*
X50737Y72364D01*
X51974Y73191D01*
X53348Y73760D01*
X54806Y74050D01*
X55550Y74050D01*
X55550Y74050D01*
X103050Y74050D01*
X103367Y74050D01*
X103989Y73926D01*
D02*
G37*
%LPC*%
G36*
X70000Y64460D02*
X68825Y64305D01*
X67731Y63852D01*
X66791Y63131D01*
X66069Y62191D01*
X65616Y61096D01*
X65461Y59921D01*
X65616Y58746D01*
X66069Y57652D01*
X66791Y56712D01*
X67731Y55990D01*
X68825Y55537D01*
X70000Y55382D01*
X71175Y55537D01*
X72269Y55990D01*
X73209Y56712D01*
X73931Y57652D01*
X74384Y58746D01*
X74539Y59921D01*
X74384Y61096D01*
X73931Y62191D01*
X73209Y63131D01*
X72269Y63852D01*
X71175Y64305D01*
X70000Y64460D01*
D02*
G37*
G36*
X74500Y54579D02*
X65500D01*
Y52373D01*
X55079D01*
X54201Y52198D01*
X53457Y51701D01*
X50892Y49137D01*
X40720D01*
Y51342D01*
X31721D01*
Y42342D01*
X40720D01*
Y44548D01*
X51842D01*
X52720Y44723D01*
X53465Y45220D01*
X56029Y47785D01*
X65500D01*
Y45579D01*
X74500D01*
Y54579D01*
D02*
G37*
G36*
X36720Y41473D02*
Y37500D01*
X40694D01*
X40605Y38175D01*
X40151Y39269D01*
X39430Y40209D01*
X38490Y40931D01*
X37395Y41384D01*
X36720Y41473D01*
D02*
G37*
G36*
X35721D02*
X35046Y41384D01*
X33951Y40931D01*
X33011Y40209D01*
X32290Y39269D01*
X31836Y38175D01*
X31747Y37500D01*
X35721D01*
Y41473D01*
D02*
G37*
G36*
X40694Y36500D02*
X36720D01*
Y32527D01*
X37395Y32616D01*
X38490Y33069D01*
X39430Y33791D01*
X40151Y34731D01*
X40605Y35825D01*
X40694Y36500D01*
D02*
G37*
G36*
X35721D02*
X31747D01*
X31836Y35825D01*
X32290Y34731D01*
X33011Y33791D01*
X33951Y33069D01*
X35046Y32616D01*
X35721Y32527D01*
Y36500D01*
D02*
G37*
G36*
X36220Y31696D02*
X35046Y31542D01*
X33951Y31088D01*
X33011Y30367D01*
X32290Y29427D01*
X31836Y28332D01*
X31682Y27158D01*
X31836Y25983D01*
X32290Y24888D01*
X33011Y23948D01*
X33951Y23227D01*
X35046Y22773D01*
X36220Y22619D01*
X37395Y22773D01*
X38490Y23227D01*
X39430Y23948D01*
X40151Y24888D01*
X40605Y25983D01*
X40759Y27158D01*
X40605Y28332D01*
X40151Y29427D01*
X39430Y30367D01*
X38490Y31088D01*
X37395Y31542D01*
X36220Y31696D01*
D02*
G37*
G36*
X70000Y28460D02*
X68825Y28305D01*
X67731Y27852D01*
X66791Y27131D01*
X66069Y26191D01*
X65616Y25096D01*
X65461Y23921D01*
X65616Y22747D01*
X66069Y21652D01*
X66791Y20712D01*
X67731Y19990D01*
X68825Y19537D01*
X70000Y19382D01*
X71175Y19537D01*
X72269Y19990D01*
X73209Y20712D01*
X73931Y21652D01*
X74384Y22747D01*
X74539Y23921D01*
X74384Y25096D01*
X73931Y26191D01*
X73209Y27131D01*
X72269Y27852D01*
X71175Y28305D01*
X70000Y28460D01*
D02*
G37*
G36*
X74500Y18579D02*
X70500D01*
Y14579D01*
X74500D01*
Y18579D01*
D02*
G37*
G36*
X69500D02*
X65500D01*
Y14579D01*
X69500D01*
Y18579D01*
D02*
G37*
G36*
X74500Y13579D02*
X70500D01*
Y9579D01*
X74500D01*
Y13579D01*
D02*
G37*
G36*
X69500D02*
X65500D01*
Y9579D01*
X69500D01*
Y13579D01*
D02*
G37*
%LPD*%
D13*
X55079Y50079D02*
X70000D01*
X51842Y46843D02*
X55079Y50079D01*
X36220Y46843D02*
X51842D01*
D14*
X70000Y50079D02*
D03*
Y14079D02*
D03*
X36220Y46843D02*
D03*
D15*
X70000Y59921D02*
D03*
Y23921D02*
D03*
X36220Y27158D02*
D03*
Y37000D02*
D03*
M02*
