G04*
G04 #@! TF.GenerationSoftware,Altium Limited,Altium Designer,21.0.9 (235)*
G04*
G04 Layer_Color=65535*
%FSLAX25Y25*%
%MOIN*%
G70*
G04*
G04 #@! TF.SameCoordinates,ED324722-7F9C-40FD-80D3-A2264BF02C7E*
G04*
G04*
G04 #@! TF.FilePolarity,Positive*
G04*
G01*
G75*
%ADD10C,0.01000*%
G36*
X49102Y48266D02*
X49147Y48262D01*
X49193Y48258D01*
X49247Y48254D01*
X49364Y48237D01*
X49493Y48212D01*
X49622Y48175D01*
X49746Y48129D01*
X49751D01*
X49759Y48120D01*
X49780Y48116D01*
X49801Y48104D01*
X49825Y48087D01*
X49859Y48071D01*
X49929Y48029D01*
X50013Y47971D01*
X50096Y47900D01*
X50175Y47821D01*
X50246Y47725D01*
X50250Y47721D01*
X50254Y47713D01*
X50262Y47700D01*
X50275Y47680D01*
X50287Y47655D01*
X50304Y47625D01*
X50316Y47588D01*
X50337Y47551D01*
X50370Y47463D01*
X50400Y47359D01*
X50424Y47247D01*
X50437Y47122D01*
X49950Y47085D01*
Y47089D01*
X49946Y47101D01*
Y47118D01*
X49942Y47143D01*
X49934Y47176D01*
X49925Y47210D01*
X49900Y47289D01*
X49867Y47376D01*
X49817Y47467D01*
X49759Y47555D01*
X49721Y47592D01*
X49680Y47630D01*
X49676Y47634D01*
X49672Y47638D01*
X49655Y47646D01*
X49638Y47659D01*
X49613Y47671D01*
X49584Y47688D01*
X49551Y47704D01*
X49513Y47725D01*
X49468Y47742D01*
X49418Y47759D01*
X49364Y47775D01*
X49305Y47788D01*
X49239Y47800D01*
X49168Y47809D01*
X49093Y47817D01*
X48973D01*
X48939Y47813D01*
X48902D01*
X48860Y47809D01*
X48810Y47804D01*
X48761Y47796D01*
X48648Y47775D01*
X48540Y47746D01*
X48436Y47704D01*
X48386Y47675D01*
X48344Y47646D01*
X48340D01*
X48336Y47638D01*
X48311Y47617D01*
X48278Y47580D01*
X48241Y47530D01*
X48203Y47472D01*
X48170Y47401D01*
X48145Y47326D01*
X48141Y47284D01*
X48136Y47239D01*
Y47234D01*
Y47230D01*
X48141Y47205D01*
X48145Y47168D01*
X48153Y47122D01*
X48174Y47068D01*
X48199Y47010D01*
X48232Y46956D01*
X48282Y46902D01*
X48290Y46898D01*
X48299Y46889D01*
X48315Y46877D01*
X48336Y46864D01*
X48361Y46852D01*
X48394Y46835D01*
X48432Y46814D01*
X48478Y46793D01*
X48532Y46773D01*
X48594Y46752D01*
X48665Y46727D01*
X48748Y46702D01*
X48835Y46677D01*
X48935Y46648D01*
X49047Y46623D01*
X49056D01*
X49077Y46619D01*
X49106Y46610D01*
X49147Y46598D01*
X49197Y46590D01*
X49255Y46573D01*
X49318Y46560D01*
X49384Y46540D01*
X49526Y46502D01*
X49667Y46465D01*
X49734Y46444D01*
X49792Y46423D01*
X49850Y46402D01*
X49896Y46382D01*
X49900D01*
X49913Y46373D01*
X49929Y46365D01*
X49950Y46352D01*
X49979Y46340D01*
X50013Y46319D01*
X50083Y46273D01*
X50167Y46219D01*
X50246Y46153D01*
X50325Y46074D01*
X50358Y46032D01*
X50391Y45991D01*
Y45986D01*
X50400Y45978D01*
X50408Y45966D01*
X50416Y45949D01*
X50429Y45928D01*
X50441Y45899D01*
X50474Y45832D01*
X50503Y45753D01*
X50529Y45662D01*
X50545Y45558D01*
X50553Y45446D01*
Y45441D01*
Y45433D01*
Y45417D01*
X50549Y45396D01*
Y45367D01*
X50545Y45338D01*
X50533Y45258D01*
X50512Y45171D01*
X50479Y45075D01*
X50433Y44976D01*
X50408Y44921D01*
X50375Y44872D01*
Y44867D01*
X50366Y44859D01*
X50358Y44847D01*
X50341Y44826D01*
X50304Y44780D01*
X50246Y44718D01*
X50175Y44651D01*
X50087Y44580D01*
X49988Y44514D01*
X49871Y44451D01*
X49867D01*
X49855Y44443D01*
X49838Y44439D01*
X49813Y44426D01*
X49784Y44418D01*
X49746Y44406D01*
X49705Y44389D01*
X49655Y44377D01*
X49605Y44364D01*
X49547Y44347D01*
X49422Y44327D01*
X49285Y44310D01*
X49135Y44302D01*
X49085D01*
X49047Y44306D01*
X49002D01*
X48952Y44310D01*
X48894Y44314D01*
X48827Y44322D01*
X48690Y44339D01*
X48544Y44364D01*
X48399Y44401D01*
X48257Y44451D01*
X48253D01*
X48241Y44460D01*
X48224Y44468D01*
X48199Y44480D01*
X48170Y44497D01*
X48136Y44514D01*
X48057Y44564D01*
X47970Y44626D01*
X47879Y44705D01*
X47787Y44797D01*
X47708Y44905D01*
X47704Y44909D01*
X47700Y44917D01*
X47691Y44934D01*
X47679Y44959D01*
X47662Y44988D01*
X47646Y45021D01*
X47625Y45063D01*
X47608Y45109D01*
X47587Y45154D01*
X47571Y45208D01*
X47537Y45329D01*
X47513Y45458D01*
X47504Y45529D01*
X47500Y45600D01*
X47978Y45641D01*
Y45637D01*
Y45629D01*
X47983Y45612D01*
X47987Y45591D01*
X47991Y45566D01*
X47995Y45541D01*
X48012Y45471D01*
X48033Y45396D01*
X48057Y45317D01*
X48091Y45238D01*
X48132Y45163D01*
X48136Y45154D01*
X48157Y45134D01*
X48186Y45100D01*
X48228Y45059D01*
X48282Y45009D01*
X48349Y44963D01*
X48428Y44913D01*
X48519Y44867D01*
X48523D01*
X48532Y44863D01*
X48544Y44859D01*
X48565Y44851D01*
X48590Y44842D01*
X48619Y44830D01*
X48652Y44822D01*
X48690Y44813D01*
X48777Y44793D01*
X48881Y44772D01*
X48989Y44759D01*
X49110Y44755D01*
X49160D01*
X49185Y44759D01*
X49214D01*
X49281Y44768D01*
X49360Y44776D01*
X49447Y44788D01*
X49534Y44809D01*
X49617Y44838D01*
X49622D01*
X49626Y44842D01*
X49638Y44847D01*
X49655Y44855D01*
X49692Y44876D01*
X49742Y44901D01*
X49796Y44934D01*
X49855Y44976D01*
X49905Y45021D01*
X49950Y45075D01*
X49954Y45084D01*
X49967Y45100D01*
X49988Y45134D01*
X50008Y45175D01*
X50025Y45225D01*
X50046Y45279D01*
X50058Y45342D01*
X50063Y45404D01*
Y45408D01*
Y45412D01*
Y45433D01*
X50058Y45471D01*
X50050Y45512D01*
X50038Y45562D01*
X50017Y45616D01*
X49992Y45670D01*
X49954Y45720D01*
X49950Y45724D01*
X49934Y45741D01*
X49909Y45766D01*
X49871Y45799D01*
X49825Y45832D01*
X49763Y45870D01*
X49692Y45907D01*
X49609Y45945D01*
X49601Y45949D01*
X49593Y45953D01*
X49576Y45957D01*
X49559Y45961D01*
X49534Y45970D01*
X49501Y45982D01*
X49468Y45991D01*
X49422Y46003D01*
X49376Y46020D01*
X49318Y46032D01*
X49255Y46049D01*
X49185Y46070D01*
X49110Y46086D01*
X49023Y46111D01*
X48927Y46132D01*
X48923D01*
X48906Y46136D01*
X48877Y46145D01*
X48844Y46153D01*
X48798Y46165D01*
X48748Y46178D01*
X48698Y46194D01*
X48640Y46211D01*
X48515Y46248D01*
X48394Y46290D01*
X48336Y46311D01*
X48282Y46332D01*
X48232Y46352D01*
X48191Y46373D01*
X48186D01*
X48178Y46382D01*
X48166Y46390D01*
X48145Y46398D01*
X48095Y46427D01*
X48037Y46469D01*
X47966Y46523D01*
X47899Y46581D01*
X47833Y46652D01*
X47779Y46727D01*
Y46731D01*
X47775Y46735D01*
X47766Y46748D01*
X47758Y46764D01*
X47737Y46810D01*
X47712Y46868D01*
X47687Y46939D01*
X47666Y47022D01*
X47650Y47114D01*
X47646Y47210D01*
Y47214D01*
Y47222D01*
Y47239D01*
X47650Y47259D01*
Y47284D01*
X47654Y47313D01*
X47666Y47388D01*
X47687Y47472D01*
X47712Y47559D01*
X47754Y47655D01*
X47808Y47750D01*
Y47754D01*
X47816Y47763D01*
X47824Y47775D01*
X47837Y47792D01*
X47879Y47838D01*
X47933Y47896D01*
X47999Y47958D01*
X48082Y48021D01*
X48178Y48083D01*
X48290Y48137D01*
X48295D01*
X48303Y48141D01*
X48324Y48150D01*
X48344Y48158D01*
X48374Y48166D01*
X48411Y48179D01*
X48453Y48191D01*
X48498Y48204D01*
X48548Y48216D01*
X48602Y48229D01*
X48719Y48250D01*
X48852Y48266D01*
X48993Y48270D01*
X49064D01*
X49102Y48266D01*
D02*
G37*
G36*
X48989Y37250D02*
X50033D01*
Y36809D01*
X48989D01*
Y35756D01*
X48544D01*
Y36809D01*
X47500D01*
Y37250D01*
X48544D01*
Y38294D01*
X48989D01*
Y37250D01*
D02*
G37*
G36*
X52921Y38477D02*
X51385D01*
X51182Y37445D01*
X51186Y37449D01*
X51198Y37458D01*
X51215Y37466D01*
X51240Y37483D01*
X51273Y37499D01*
X51311Y37520D01*
X51352Y37545D01*
X51402Y37566D01*
X51452Y37587D01*
X51510Y37611D01*
X51631Y37649D01*
X51697Y37666D01*
X51764Y37678D01*
X51835Y37682D01*
X51905Y37686D01*
X51926D01*
X51955Y37682D01*
X51989D01*
X52030Y37674D01*
X52080Y37670D01*
X52138Y37657D01*
X52197Y37645D01*
X52263Y37624D01*
X52330Y37603D01*
X52400Y37574D01*
X52471Y37541D01*
X52542Y37499D01*
X52613Y37453D01*
X52683Y37399D01*
X52750Y37337D01*
X52754Y37333D01*
X52767Y37320D01*
X52783Y37299D01*
X52804Y37275D01*
X52833Y37241D01*
X52862Y37196D01*
X52891Y37150D01*
X52925Y37096D01*
X52958Y37033D01*
X52987Y36963D01*
X53020Y36892D01*
X53045Y36809D01*
X53066Y36725D01*
X53083Y36634D01*
X53095Y36538D01*
X53099Y36438D01*
Y36434D01*
Y36413D01*
Y36388D01*
X53095Y36351D01*
X53091Y36305D01*
X53083Y36255D01*
X53074Y36197D01*
X53062Y36131D01*
X53045Y36064D01*
X53025Y35989D01*
X53000Y35914D01*
X52970Y35839D01*
X52937Y35765D01*
X52895Y35685D01*
X52850Y35611D01*
X52796Y35540D01*
X52792Y35536D01*
X52779Y35519D01*
X52758Y35498D01*
X52729Y35469D01*
X52692Y35432D01*
X52646Y35394D01*
X52592Y35348D01*
X52529Y35307D01*
X52463Y35265D01*
X52388Y35219D01*
X52305Y35182D01*
X52213Y35149D01*
X52118Y35116D01*
X52014Y35095D01*
X51905Y35078D01*
X51789Y35074D01*
X51739D01*
X51702Y35078D01*
X51656Y35082D01*
X51606Y35091D01*
X51548Y35099D01*
X51485Y35111D01*
X51419Y35124D01*
X51348Y35145D01*
X51277Y35170D01*
X51207Y35199D01*
X51136Y35232D01*
X51065Y35269D01*
X50999Y35315D01*
X50932Y35365D01*
X50928Y35369D01*
X50920Y35378D01*
X50903Y35394D01*
X50882Y35419D01*
X50853Y35448D01*
X50824Y35482D01*
X50795Y35523D01*
X50761Y35573D01*
X50728Y35623D01*
X50695Y35681D01*
X50666Y35748D01*
X50637Y35814D01*
X50608Y35889D01*
X50587Y35968D01*
X50570Y36056D01*
X50558Y36143D01*
X51053Y36180D01*
Y36176D01*
X51057Y36164D01*
X51061Y36147D01*
X51065Y36122D01*
X51069Y36093D01*
X51082Y36056D01*
X51103Y35977D01*
X51136Y35889D01*
X51182Y35798D01*
X51236Y35715D01*
X51269Y35677D01*
X51302Y35640D01*
X51306D01*
X51311Y35631D01*
X51323Y35623D01*
X51340Y35611D01*
X51381Y35581D01*
X51439Y35552D01*
X51510Y35519D01*
X51593Y35490D01*
X51685Y35469D01*
X51735Y35465D01*
X51789Y35461D01*
X51822D01*
X51847Y35465D01*
X51876Y35469D01*
X51910Y35473D01*
X51989Y35494D01*
X52080Y35523D01*
X52126Y35544D01*
X52176Y35569D01*
X52226Y35598D01*
X52271Y35631D01*
X52317Y35669D01*
X52363Y35715D01*
X52367Y35719D01*
X52371Y35727D01*
X52384Y35739D01*
X52400Y35760D01*
X52417Y35789D01*
X52438Y35819D01*
X52459Y35856D01*
X52484Y35898D01*
X52504Y35943D01*
X52525Y35993D01*
X52546Y36051D01*
X52563Y36110D01*
X52579Y36176D01*
X52592Y36247D01*
X52596Y36318D01*
X52600Y36397D01*
Y36401D01*
Y36413D01*
Y36434D01*
X52596Y36463D01*
X52592Y36497D01*
X52588Y36538D01*
X52579Y36580D01*
X52571Y36630D01*
X52546Y36730D01*
X52504Y36838D01*
X52479Y36888D01*
X52446Y36938D01*
X52413Y36988D01*
X52371Y37033D01*
X52367Y37037D01*
X52363Y37042D01*
X52346Y37054D01*
X52330Y37071D01*
X52309Y37087D01*
X52280Y37108D01*
X52251Y37129D01*
X52213Y37154D01*
X52172Y37175D01*
X52130Y37196D01*
X52026Y37233D01*
X51972Y37250D01*
X51910Y37262D01*
X51847Y37266D01*
X51781Y37270D01*
X51743D01*
X51697Y37266D01*
X51643Y37258D01*
X51577Y37245D01*
X51506Y37225D01*
X51435Y37200D01*
X51365Y37162D01*
X51356Y37158D01*
X51336Y37146D01*
X51302Y37121D01*
X51261Y37091D01*
X51219Y37050D01*
X51169Y37004D01*
X51123Y36950D01*
X51082Y36892D01*
X50641Y36954D01*
X51011Y38926D01*
X52921D01*
Y38477D01*
D02*
G37*
G36*
X49526Y29694D02*
X49567Y29690D01*
X49613Y29686D01*
X49667Y29682D01*
X49784Y29665D01*
X49913Y29640D01*
X50042Y29607D01*
X50171Y29561D01*
X50175D01*
X50187Y29557D01*
X50204Y29549D01*
X50225Y29536D01*
X50254Y29524D01*
X50287Y29507D01*
X50362Y29465D01*
X50449Y29411D01*
X50537Y29349D01*
X50620Y29274D01*
X50699Y29187D01*
X50703Y29182D01*
X50707Y29174D01*
X50716Y29162D01*
X50732Y29145D01*
X50745Y29120D01*
X50766Y29091D01*
X50786Y29058D01*
X50807Y29016D01*
X50832Y28975D01*
X50853Y28929D01*
X50878Y28875D01*
X50903Y28821D01*
X50949Y28696D01*
X50990Y28558D01*
X50529Y28434D01*
Y28438D01*
X50524Y28446D01*
X50520Y28463D01*
X50512Y28484D01*
X50503Y28504D01*
X50495Y28534D01*
X50470Y28600D01*
X50437Y28675D01*
X50400Y28750D01*
X50358Y28825D01*
X50312Y28891D01*
X50308Y28900D01*
X50287Y28920D01*
X50258Y28950D01*
X50221Y28991D01*
X50167Y29033D01*
X50104Y29079D01*
X50029Y29120D01*
X49946Y29162D01*
X49942D01*
X49934Y29166D01*
X49921Y29170D01*
X49905Y29178D01*
X49884Y29187D01*
X49855Y29195D01*
X49792Y29216D01*
X49713Y29232D01*
X49626Y29249D01*
X49526Y29262D01*
X49422Y29266D01*
X49364D01*
X49335Y29262D01*
X49297D01*
X49260Y29257D01*
X49214Y29253D01*
X49122Y29241D01*
X49018Y29220D01*
X48919Y29195D01*
X48819Y29158D01*
X48815D01*
X48806Y29153D01*
X48794Y29145D01*
X48777Y29137D01*
X48731Y29116D01*
X48673Y29083D01*
X48607Y29041D01*
X48540Y28991D01*
X48469Y28937D01*
X48407Y28875D01*
X48399Y28866D01*
X48382Y28846D01*
X48353Y28808D01*
X48320Y28762D01*
X48282Y28708D01*
X48241Y28642D01*
X48203Y28571D01*
X48170Y28496D01*
Y28492D01*
X48166Y28479D01*
X48157Y28463D01*
X48149Y28434D01*
X48136Y28400D01*
X48124Y28363D01*
X48112Y28317D01*
X48099Y28267D01*
X48082Y28213D01*
X48070Y28151D01*
X48049Y28022D01*
X48033Y27876D01*
X48024Y27722D01*
Y27718D01*
Y27702D01*
Y27672D01*
X48028Y27639D01*
Y27593D01*
X48033Y27544D01*
X48041Y27485D01*
X48045Y27423D01*
X48066Y27286D01*
X48099Y27144D01*
X48141Y26998D01*
X48199Y26861D01*
X48203Y26857D01*
X48207Y26845D01*
X48215Y26828D01*
X48232Y26803D01*
X48249Y26778D01*
X48274Y26745D01*
X48328Y26670D01*
X48403Y26587D01*
X48490Y26499D01*
X48590Y26420D01*
X48648Y26383D01*
X48711Y26350D01*
X48715D01*
X48727Y26341D01*
X48744Y26333D01*
X48769Y26325D01*
X48802Y26312D01*
X48840Y26296D01*
X48881Y26283D01*
X48927Y26266D01*
X48977Y26250D01*
X49035Y26237D01*
X49156Y26208D01*
X49289Y26191D01*
X49430Y26183D01*
X49463D01*
X49488Y26187D01*
X49518D01*
X49551Y26191D01*
X49588Y26196D01*
X49634Y26200D01*
X49730Y26212D01*
X49838Y26237D01*
X49954Y26266D01*
X50071Y26308D01*
X50075D01*
X50083Y26312D01*
X50100Y26320D01*
X50125Y26329D01*
X50150Y26341D01*
X50179Y26358D01*
X50250Y26391D01*
X50329Y26433D01*
X50408Y26478D01*
X50483Y26524D01*
X50549Y26578D01*
Y27298D01*
X49422D01*
Y27751D01*
X51048D01*
Y26325D01*
X51044Y26320D01*
X51032Y26312D01*
X51011Y26296D01*
X50982Y26275D01*
X50949Y26250D01*
X50907Y26225D01*
X50861Y26191D01*
X50811Y26158D01*
X50757Y26125D01*
X50695Y26087D01*
X50566Y26013D01*
X50424Y25942D01*
X50275Y25879D01*
X50271D01*
X50258Y25871D01*
X50237Y25867D01*
X50204Y25855D01*
X50171Y25846D01*
X50125Y25834D01*
X50079Y25817D01*
X50025Y25805D01*
X49963Y25792D01*
X49900Y25776D01*
X49763Y25755D01*
X49613Y25738D01*
X49459Y25730D01*
X49405D01*
X49364Y25734D01*
X49314Y25738D01*
X49255Y25742D01*
X49189Y25750D01*
X49118Y25759D01*
X49043Y25771D01*
X48960Y25788D01*
X48877Y25809D01*
X48785Y25834D01*
X48698Y25859D01*
X48611Y25892D01*
X48519Y25929D01*
X48432Y25971D01*
X48428Y25975D01*
X48411Y25984D01*
X48386Y25996D01*
X48357Y26017D01*
X48320Y26042D01*
X48274Y26071D01*
X48224Y26108D01*
X48170Y26150D01*
X48116Y26196D01*
X48057Y26250D01*
X47999Y26304D01*
X47941Y26366D01*
X47887Y26437D01*
X47833Y26508D01*
X47779Y26587D01*
X47733Y26670D01*
X47729Y26674D01*
X47725Y26691D01*
X47712Y26716D01*
X47695Y26749D01*
X47679Y26795D01*
X47658Y26845D01*
X47637Y26903D01*
X47616Y26969D01*
X47596Y27040D01*
X47575Y27119D01*
X47554Y27207D01*
X47537Y27294D01*
X47521Y27390D01*
X47508Y27485D01*
X47504Y27589D01*
X47500Y27693D01*
Y27702D01*
Y27718D01*
Y27747D01*
X47504Y27789D01*
X47508Y27839D01*
X47513Y27897D01*
X47521Y27964D01*
X47529Y28034D01*
X47542Y28113D01*
X47558Y28197D01*
X47600Y28371D01*
X47625Y28463D01*
X47658Y28554D01*
X47691Y28646D01*
X47733Y28737D01*
X47737Y28742D01*
X47745Y28758D01*
X47758Y28783D01*
X47775Y28816D01*
X47800Y28858D01*
X47829Y28904D01*
X47866Y28954D01*
X47903Y29012D01*
X47949Y29070D01*
X47999Y29128D01*
X48053Y29187D01*
X48116Y29249D01*
X48178Y29307D01*
X48249Y29361D01*
X48324Y29416D01*
X48403Y29461D01*
X48407Y29465D01*
X48423Y29470D01*
X48449Y29482D01*
X48482Y29499D01*
X48523Y29515D01*
X48573Y29536D01*
X48632Y29557D01*
X48694Y29582D01*
X48765Y29603D01*
X48844Y29623D01*
X48927Y29644D01*
X49018Y29661D01*
X49110Y29678D01*
X49210Y29690D01*
X49314Y29694D01*
X49418Y29698D01*
X49488D01*
X49526Y29694D01*
D02*
G37*
G36*
X57136Y25094D02*
X57186Y25090D01*
X57244Y25086D01*
X57311Y25077D01*
X57382Y25069D01*
X57457Y25057D01*
X57540Y25040D01*
X57623Y25019D01*
X57715Y24994D01*
X57802Y24969D01*
X57889Y24936D01*
X57981Y24899D01*
X58068Y24857D01*
X58072Y24853D01*
X58089Y24844D01*
X58114Y24832D01*
X58143Y24811D01*
X58180Y24786D01*
X58226Y24757D01*
X58276Y24720D01*
X58330Y24678D01*
X58384Y24632D01*
X58443Y24578D01*
X58501Y24524D01*
X58559Y24462D01*
X58613Y24391D01*
X58667Y24320D01*
X58721Y24241D01*
X58767Y24158D01*
X58771Y24154D01*
X58775Y24137D01*
X58788Y24112D01*
X58805Y24079D01*
X58821Y24033D01*
X58842Y23983D01*
X58863Y23925D01*
X58884Y23858D01*
X58904Y23788D01*
X58925Y23709D01*
X58946Y23621D01*
X58963Y23534D01*
X58979Y23438D01*
X58992Y23343D01*
X58996Y23239D01*
X59000Y23135D01*
Y23126D01*
Y23110D01*
Y23081D01*
X58996Y23039D01*
X58992Y22989D01*
X58987Y22931D01*
X58979Y22864D01*
X58971Y22794D01*
X58958Y22715D01*
X58942Y22631D01*
X58900Y22457D01*
X58875Y22365D01*
X58842Y22274D01*
X58809Y22182D01*
X58767Y22091D01*
X58763Y22086D01*
X58755Y22070D01*
X58742Y22045D01*
X58725Y22012D01*
X58701Y21970D01*
X58671Y21924D01*
X58634Y21874D01*
X58596Y21816D01*
X58551Y21758D01*
X58501Y21700D01*
X58447Y21641D01*
X58384Y21579D01*
X58322Y21521D01*
X58251Y21466D01*
X58176Y21412D01*
X58097Y21367D01*
X58093Y21362D01*
X58077Y21358D01*
X58052Y21346D01*
X58018Y21329D01*
X57977Y21313D01*
X57927Y21292D01*
X57868Y21271D01*
X57806Y21246D01*
X57735Y21225D01*
X57656Y21204D01*
X57573Y21184D01*
X57482Y21167D01*
X57390Y21150D01*
X57290Y21138D01*
X57186Y21134D01*
X57082Y21129D01*
X57011D01*
X56974Y21134D01*
X56932Y21138D01*
X56887Y21142D01*
X56833Y21146D01*
X56716Y21163D01*
X56587Y21188D01*
X56458Y21221D01*
X56329Y21267D01*
X56325D01*
X56313Y21271D01*
X56296Y21279D01*
X56275Y21292D01*
X56246Y21304D01*
X56213Y21321D01*
X56138Y21362D01*
X56051Y21417D01*
X55963Y21479D01*
X55880Y21554D01*
X55801Y21641D01*
X55797Y21645D01*
X55793Y21654D01*
X55784Y21666D01*
X55768Y21683D01*
X55755Y21708D01*
X55734Y21737D01*
X55714Y21770D01*
X55693Y21812D01*
X55668Y21853D01*
X55647Y21899D01*
X55622Y21953D01*
X55597Y22007D01*
X55551Y22132D01*
X55510Y22269D01*
X55971Y22394D01*
Y22390D01*
X55976Y22382D01*
X55980Y22365D01*
X55988Y22344D01*
X55997Y22323D01*
X56005Y22294D01*
X56030Y22228D01*
X56063Y22153D01*
X56100Y22078D01*
X56142Y22003D01*
X56188Y21937D01*
X56192Y21928D01*
X56213Y21907D01*
X56242Y21878D01*
X56279Y21837D01*
X56333Y21795D01*
X56396Y21749D01*
X56471Y21708D01*
X56554Y21666D01*
X56558D01*
X56566Y21662D01*
X56579Y21658D01*
X56595Y21650D01*
X56616Y21641D01*
X56645Y21633D01*
X56708Y21612D01*
X56787Y21596D01*
X56874Y21579D01*
X56974Y21566D01*
X57078Y21562D01*
X57136D01*
X57165Y21566D01*
X57203D01*
X57240Y21571D01*
X57286Y21575D01*
X57378Y21587D01*
X57482Y21608D01*
X57581Y21633D01*
X57681Y21670D01*
X57685D01*
X57694Y21675D01*
X57706Y21683D01*
X57723Y21691D01*
X57769Y21712D01*
X57827Y21745D01*
X57893Y21787D01*
X57960Y21837D01*
X58031Y21891D01*
X58093Y21953D01*
X58101Y21961D01*
X58118Y21982D01*
X58147Y22020D01*
X58180Y22065D01*
X58218Y22120D01*
X58259Y22186D01*
X58297Y22257D01*
X58330Y22332D01*
Y22336D01*
X58334Y22348D01*
X58343Y22365D01*
X58351Y22394D01*
X58363Y22427D01*
X58376Y22465D01*
X58389Y22511D01*
X58401Y22561D01*
X58418Y22615D01*
X58430Y22677D01*
X58451Y22806D01*
X58468Y22952D01*
X58476Y23106D01*
Y23110D01*
Y23126D01*
Y23155D01*
X58472Y23189D01*
Y23234D01*
X58468Y23284D01*
X58459Y23343D01*
X58455Y23405D01*
X58434Y23542D01*
X58401Y23684D01*
X58359Y23829D01*
X58301Y23967D01*
X58297Y23971D01*
X58293Y23983D01*
X58284Y24000D01*
X58268Y24025D01*
X58251Y24050D01*
X58226Y24083D01*
X58172Y24158D01*
X58097Y24241D01*
X58010Y24329D01*
X57910Y24408D01*
X57852Y24445D01*
X57789Y24478D01*
X57785D01*
X57773Y24487D01*
X57756Y24495D01*
X57731Y24503D01*
X57698Y24516D01*
X57661Y24532D01*
X57619Y24545D01*
X57573Y24562D01*
X57523Y24578D01*
X57465Y24591D01*
X57344Y24620D01*
X57211Y24636D01*
X57070Y24645D01*
X57037D01*
X57011Y24641D01*
X56982D01*
X56949Y24636D01*
X56912Y24632D01*
X56866Y24628D01*
X56770Y24616D01*
X56662Y24591D01*
X56546Y24562D01*
X56429Y24520D01*
X56425D01*
X56417Y24516D01*
X56400Y24508D01*
X56375Y24499D01*
X56350Y24487D01*
X56321Y24470D01*
X56250Y24437D01*
X56171Y24395D01*
X56092Y24349D01*
X56017Y24304D01*
X55951Y24250D01*
Y23530D01*
X57078D01*
Y23076D01*
X55452D01*
Y24503D01*
X55456Y24508D01*
X55468Y24516D01*
X55489Y24532D01*
X55518Y24553D01*
X55551Y24578D01*
X55593Y24603D01*
X55639Y24636D01*
X55689Y24670D01*
X55743Y24703D01*
X55805Y24740D01*
X55934Y24815D01*
X56076Y24886D01*
X56225Y24948D01*
X56229D01*
X56242Y24957D01*
X56263Y24961D01*
X56296Y24973D01*
X56329Y24982D01*
X56375Y24994D01*
X56421Y25011D01*
X56475Y25023D01*
X56537Y25036D01*
X56600Y25052D01*
X56737Y25073D01*
X56887Y25090D01*
X57041Y25098D01*
X57095D01*
X57136Y25094D01*
D02*
G37*
G36*
X54798Y15750D02*
X54844Y15746D01*
X54894Y15737D01*
X54952Y15729D01*
X55015Y15717D01*
X55081Y15704D01*
X55152Y15683D01*
X55223Y15658D01*
X55293Y15629D01*
X55364Y15596D01*
X55435Y15559D01*
X55501Y15513D01*
X55568Y15463D01*
X55572Y15459D01*
X55581Y15450D01*
X55597Y15434D01*
X55618Y15409D01*
X55647Y15380D01*
X55676Y15346D01*
X55705Y15305D01*
X55739Y15255D01*
X55772Y15205D01*
X55805Y15147D01*
X55834Y15080D01*
X55863Y15013D01*
X55892Y14939D01*
X55913Y14860D01*
X55930Y14772D01*
X55942Y14685D01*
X55447Y14647D01*
Y14652D01*
X55443Y14664D01*
X55439Y14681D01*
X55435Y14706D01*
X55431Y14735D01*
X55418Y14772D01*
X55397Y14851D01*
X55364Y14939D01*
X55318Y15030D01*
X55264Y15113D01*
X55231Y15151D01*
X55198Y15188D01*
X55194D01*
X55189Y15197D01*
X55177Y15205D01*
X55160Y15217D01*
X55119Y15247D01*
X55060Y15276D01*
X54990Y15309D01*
X54907Y15338D01*
X54815Y15359D01*
X54765Y15363D01*
X54711Y15367D01*
X54678D01*
X54653Y15363D01*
X54624Y15359D01*
X54590Y15355D01*
X54511Y15334D01*
X54420Y15305D01*
X54374Y15284D01*
X54324Y15259D01*
X54274Y15230D01*
X54229Y15197D01*
X54183Y15159D01*
X54137Y15113D01*
X54133Y15109D01*
X54129Y15101D01*
X54116Y15088D01*
X54100Y15068D01*
X54083Y15039D01*
X54062Y15009D01*
X54041Y14972D01*
X54016Y14930D01*
X53996Y14885D01*
X53975Y14835D01*
X53954Y14776D01*
X53937Y14718D01*
X53921Y14652D01*
X53908Y14581D01*
X53904Y14510D01*
X53900Y14431D01*
Y14427D01*
Y14414D01*
Y14394D01*
X53904Y14365D01*
X53908Y14331D01*
X53912Y14290D01*
X53921Y14248D01*
X53929Y14198D01*
X53954Y14098D01*
X53996Y13990D01*
X54021Y13940D01*
X54054Y13890D01*
X54087Y13840D01*
X54129Y13795D01*
X54133Y13791D01*
X54137Y13786D01*
X54154Y13774D01*
X54170Y13757D01*
X54191Y13740D01*
X54220Y13720D01*
X54249Y13699D01*
X54287Y13674D01*
X54328Y13653D01*
X54370Y13632D01*
X54474Y13595D01*
X54528Y13578D01*
X54590Y13566D01*
X54653Y13562D01*
X54719Y13557D01*
X54757D01*
X54803Y13562D01*
X54857Y13570D01*
X54923Y13582D01*
X54994Y13603D01*
X55065Y13628D01*
X55135Y13666D01*
X55144Y13670D01*
X55164Y13682D01*
X55198Y13707D01*
X55239Y13736D01*
X55281Y13778D01*
X55331Y13824D01*
X55377Y13878D01*
X55418Y13936D01*
X55859Y13874D01*
X55489Y11902D01*
X53579D01*
Y12351D01*
X55115D01*
X55318Y13383D01*
X55314Y13379D01*
X55302Y13370D01*
X55285Y13362D01*
X55260Y13345D01*
X55227Y13329D01*
X55189Y13308D01*
X55148Y13283D01*
X55098Y13262D01*
X55048Y13241D01*
X54990Y13216D01*
X54869Y13179D01*
X54803Y13162D01*
X54736Y13150D01*
X54665Y13146D01*
X54595Y13141D01*
X54574D01*
X54545Y13146D01*
X54511D01*
X54470Y13154D01*
X54420Y13158D01*
X54362Y13171D01*
X54303Y13183D01*
X54237Y13204D01*
X54170Y13225D01*
X54100Y13254D01*
X54029Y13287D01*
X53958Y13329D01*
X53887Y13374D01*
X53817Y13429D01*
X53750Y13491D01*
X53746Y13495D01*
X53733Y13508D01*
X53717Y13528D01*
X53696Y13553D01*
X53667Y13587D01*
X53638Y13632D01*
X53609Y13678D01*
X53575Y13732D01*
X53542Y13795D01*
X53513Y13865D01*
X53480Y13936D01*
X53455Y14019D01*
X53434Y14103D01*
X53417Y14194D01*
X53405Y14290D01*
X53401Y14390D01*
Y14394D01*
Y14414D01*
Y14439D01*
X53405Y14477D01*
X53409Y14523D01*
X53417Y14572D01*
X53426Y14631D01*
X53438Y14697D01*
X53455Y14764D01*
X53475Y14839D01*
X53500Y14914D01*
X53530Y14988D01*
X53563Y15063D01*
X53605Y15143D01*
X53650Y15217D01*
X53704Y15288D01*
X53708Y15292D01*
X53721Y15309D01*
X53742Y15330D01*
X53771Y15359D01*
X53808Y15396D01*
X53854Y15434D01*
X53908Y15479D01*
X53971Y15521D01*
X54037Y15563D01*
X54112Y15608D01*
X54195Y15646D01*
X54287Y15679D01*
X54382Y15712D01*
X54486Y15733D01*
X54595Y15750D01*
X54711Y15754D01*
X54761D01*
X54798Y15750D01*
D02*
G37*
G36*
X57956Y14019D02*
X59000D01*
Y13578D01*
X57956D01*
Y12534D01*
X57511D01*
Y13578D01*
X56467D01*
Y14019D01*
X57511D01*
Y15072D01*
X57956D01*
Y14019D01*
D02*
G37*
G36*
X57136Y62152D02*
X57186Y62148D01*
X57244Y62144D01*
X57311Y62136D01*
X57382Y62127D01*
X57457Y62115D01*
X57540Y62098D01*
X57623Y62077D01*
X57715Y62052D01*
X57802Y62028D01*
X57889Y61994D01*
X57981Y61957D01*
X58068Y61915D01*
X58072Y61911D01*
X58089Y61903D01*
X58114Y61890D01*
X58143Y61869D01*
X58180Y61844D01*
X58226Y61815D01*
X58276Y61778D01*
X58330Y61736D01*
X58384Y61690D01*
X58443Y61636D01*
X58501Y61582D01*
X58559Y61520D01*
X58613Y61449D01*
X58667Y61379D01*
X58721Y61300D01*
X58767Y61216D01*
X58771Y61212D01*
X58775Y61195D01*
X58788Y61171D01*
X58805Y61137D01*
X58821Y61092D01*
X58842Y61041D01*
X58863Y60983D01*
X58884Y60917D01*
X58904Y60846D01*
X58925Y60767D01*
X58946Y60680D01*
X58963Y60592D01*
X58979Y60497D01*
X58992Y60401D01*
X58996Y60297D01*
X59000Y60193D01*
Y60185D01*
Y60168D01*
Y60139D01*
X58996Y60097D01*
X58992Y60047D01*
X58987Y59989D01*
X58979Y59922D01*
X58971Y59852D01*
X58958Y59773D01*
X58942Y59689D01*
X58900Y59515D01*
X58875Y59423D01*
X58842Y59332D01*
X58809Y59240D01*
X58767Y59149D01*
X58763Y59145D01*
X58755Y59128D01*
X58742Y59103D01*
X58725Y59070D01*
X58701Y59028D01*
X58671Y58982D01*
X58634Y58932D01*
X58596Y58874D01*
X58551Y58816D01*
X58501Y58758D01*
X58447Y58700D01*
X58384Y58637D01*
X58322Y58579D01*
X58251Y58525D01*
X58176Y58471D01*
X58097Y58425D01*
X58093Y58421D01*
X58077Y58417D01*
X58052Y58404D01*
X58018Y58388D01*
X57977Y58371D01*
X57927Y58350D01*
X57868Y58329D01*
X57806Y58304D01*
X57735Y58284D01*
X57656Y58263D01*
X57573Y58242D01*
X57482Y58225D01*
X57390Y58209D01*
X57290Y58196D01*
X57186Y58192D01*
X57082Y58188D01*
X57011D01*
X56974Y58192D01*
X56932Y58196D01*
X56887Y58200D01*
X56833Y58204D01*
X56716Y58221D01*
X56587Y58246D01*
X56458Y58279D01*
X56329Y58325D01*
X56325D01*
X56313Y58329D01*
X56296Y58337D01*
X56275Y58350D01*
X56246Y58363D01*
X56213Y58379D01*
X56138Y58421D01*
X56051Y58475D01*
X55963Y58537D01*
X55880Y58612D01*
X55801Y58700D01*
X55797Y58704D01*
X55793Y58712D01*
X55784Y58724D01*
X55768Y58741D01*
X55755Y58766D01*
X55734Y58795D01*
X55714Y58828D01*
X55693Y58870D01*
X55668Y58912D01*
X55647Y58957D01*
X55622Y59012D01*
X55597Y59066D01*
X55551Y59190D01*
X55510Y59328D01*
X55971Y59452D01*
Y59448D01*
X55976Y59440D01*
X55980Y59423D01*
X55988Y59403D01*
X55997Y59382D01*
X56005Y59353D01*
X56030Y59286D01*
X56063Y59211D01*
X56100Y59136D01*
X56142Y59061D01*
X56188Y58995D01*
X56192Y58987D01*
X56213Y58966D01*
X56242Y58937D01*
X56279Y58895D01*
X56333Y58853D01*
X56396Y58808D01*
X56471Y58766D01*
X56554Y58724D01*
X56558D01*
X56566Y58720D01*
X56579Y58716D01*
X56595Y58708D01*
X56616Y58700D01*
X56645Y58691D01*
X56708Y58670D01*
X56787Y58654D01*
X56874Y58637D01*
X56974Y58625D01*
X57078Y58620D01*
X57136D01*
X57165Y58625D01*
X57203D01*
X57240Y58629D01*
X57286Y58633D01*
X57378Y58645D01*
X57482Y58666D01*
X57581Y58691D01*
X57681Y58729D01*
X57685D01*
X57694Y58733D01*
X57706Y58741D01*
X57723Y58749D01*
X57769Y58770D01*
X57827Y58803D01*
X57893Y58845D01*
X57960Y58895D01*
X58031Y58949D01*
X58093Y59012D01*
X58101Y59020D01*
X58118Y59041D01*
X58147Y59078D01*
X58180Y59124D01*
X58218Y59178D01*
X58259Y59244D01*
X58297Y59315D01*
X58330Y59390D01*
Y59394D01*
X58334Y59407D01*
X58343Y59423D01*
X58351Y59452D01*
X58363Y59486D01*
X58376Y59523D01*
X58389Y59569D01*
X58401Y59619D01*
X58418Y59673D01*
X58430Y59735D01*
X58451Y59864D01*
X58468Y60010D01*
X58476Y60164D01*
Y60168D01*
Y60185D01*
Y60214D01*
X58472Y60247D01*
Y60293D01*
X58468Y60343D01*
X58459Y60401D01*
X58455Y60463D01*
X58434Y60601D01*
X58401Y60742D01*
X58359Y60888D01*
X58301Y61025D01*
X58297Y61029D01*
X58293Y61041D01*
X58284Y61058D01*
X58268Y61083D01*
X58251Y61108D01*
X58226Y61141D01*
X58172Y61216D01*
X58097Y61300D01*
X58010Y61387D01*
X57910Y61466D01*
X57852Y61503D01*
X57789Y61537D01*
X57785D01*
X57773Y61545D01*
X57756Y61553D01*
X57731Y61562D01*
X57698Y61574D01*
X57661Y61591D01*
X57619Y61603D01*
X57573Y61620D01*
X57523Y61636D01*
X57465Y61649D01*
X57344Y61678D01*
X57211Y61695D01*
X57070Y61703D01*
X57037D01*
X57011Y61699D01*
X56982D01*
X56949Y61695D01*
X56912Y61690D01*
X56866Y61686D01*
X56770Y61674D01*
X56662Y61649D01*
X56546Y61620D01*
X56429Y61578D01*
X56425D01*
X56417Y61574D01*
X56400Y61566D01*
X56375Y61557D01*
X56350Y61545D01*
X56321Y61528D01*
X56250Y61495D01*
X56171Y61453D01*
X56092Y61408D01*
X56017Y61362D01*
X55951Y61308D01*
Y60588D01*
X57078D01*
Y60135D01*
X55452D01*
Y61562D01*
X55456Y61566D01*
X55468Y61574D01*
X55489Y61591D01*
X55518Y61611D01*
X55551Y61636D01*
X55593Y61661D01*
X55639Y61695D01*
X55689Y61728D01*
X55743Y61761D01*
X55805Y61799D01*
X55934Y61874D01*
X56076Y61944D01*
X56225Y62007D01*
X56229D01*
X56242Y62015D01*
X56263Y62019D01*
X56296Y62032D01*
X56329Y62040D01*
X56375Y62052D01*
X56421Y62069D01*
X56475Y62081D01*
X56537Y62094D01*
X56600Y62111D01*
X56737Y62132D01*
X56887Y62148D01*
X57041Y62156D01*
X57095D01*
X57136Y62152D01*
D02*
G37*
G36*
X57452Y52808D02*
X57498D01*
X57548Y52804D01*
X57606Y52800D01*
X57673Y52791D01*
X57810Y52775D01*
X57956Y52750D01*
X58101Y52712D01*
X58243Y52662D01*
X58247D01*
X58259Y52654D01*
X58276Y52646D01*
X58301Y52633D01*
X58330Y52617D01*
X58363Y52600D01*
X58443Y52550D01*
X58530Y52488D01*
X58621Y52409D01*
X58713Y52317D01*
X58792Y52209D01*
X58796Y52205D01*
X58800Y52197D01*
X58809Y52180D01*
X58821Y52155D01*
X58838Y52126D01*
X58854Y52092D01*
X58875Y52051D01*
X58892Y52005D01*
X58913Y51959D01*
X58929Y51905D01*
X58963Y51785D01*
X58987Y51656D01*
X58996Y51585D01*
X59000Y51514D01*
X58522Y51473D01*
Y51477D01*
Y51485D01*
X58517Y51502D01*
X58513Y51523D01*
X58509Y51548D01*
X58505Y51573D01*
X58488Y51643D01*
X58468Y51718D01*
X58443Y51797D01*
X58409Y51876D01*
X58368Y51951D01*
X58363Y51959D01*
X58343Y51980D01*
X58314Y52013D01*
X58272Y52055D01*
X58218Y52105D01*
X58151Y52151D01*
X58072Y52201D01*
X57981Y52246D01*
X57977D01*
X57968Y52251D01*
X57956Y52255D01*
X57935Y52263D01*
X57910Y52271D01*
X57881Y52284D01*
X57848Y52292D01*
X57810Y52301D01*
X57723Y52321D01*
X57619Y52342D01*
X57511Y52355D01*
X57390Y52359D01*
X57340D01*
X57315Y52355D01*
X57286D01*
X57219Y52346D01*
X57140Y52338D01*
X57053Y52325D01*
X56966Y52305D01*
X56883Y52276D01*
X56878D01*
X56874Y52271D01*
X56862Y52267D01*
X56845Y52259D01*
X56808Y52238D01*
X56758Y52213D01*
X56704Y52180D01*
X56645Y52138D01*
X56595Y52092D01*
X56550Y52039D01*
X56546Y52030D01*
X56533Y52013D01*
X56512Y51980D01*
X56492Y51939D01*
X56475Y51889D01*
X56454Y51835D01*
X56442Y51772D01*
X56437Y51710D01*
Y51706D01*
Y51701D01*
Y51681D01*
X56442Y51643D01*
X56450Y51602D01*
X56462Y51552D01*
X56483Y51498D01*
X56508Y51444D01*
X56546Y51394D01*
X56550Y51389D01*
X56566Y51373D01*
X56591Y51348D01*
X56629Y51315D01*
X56675Y51281D01*
X56737Y51244D01*
X56808Y51206D01*
X56891Y51169D01*
X56899Y51165D01*
X56907Y51161D01*
X56924Y51157D01*
X56941Y51152D01*
X56966Y51144D01*
X56999Y51132D01*
X57032Y51123D01*
X57078Y51111D01*
X57124Y51094D01*
X57182Y51082D01*
X57244Y51065D01*
X57315Y51044D01*
X57390Y51028D01*
X57477Y51003D01*
X57573Y50982D01*
X57577D01*
X57594Y50978D01*
X57623Y50969D01*
X57656Y50961D01*
X57702Y50949D01*
X57752Y50936D01*
X57802Y50919D01*
X57860Y50903D01*
X57985Y50865D01*
X58106Y50824D01*
X58164Y50803D01*
X58218Y50782D01*
X58268Y50761D01*
X58309Y50740D01*
X58314D01*
X58322Y50732D01*
X58334Y50724D01*
X58355Y50716D01*
X58405Y50687D01*
X58463Y50645D01*
X58534Y50591D01*
X58601Y50533D01*
X58667Y50462D01*
X58721Y50387D01*
Y50383D01*
X58725Y50379D01*
X58734Y50366D01*
X58742Y50349D01*
X58763Y50304D01*
X58788Y50245D01*
X58813Y50175D01*
X58834Y50092D01*
X58850Y50000D01*
X58854Y49904D01*
Y49900D01*
Y49892D01*
Y49875D01*
X58850Y49854D01*
Y49830D01*
X58846Y49800D01*
X58834Y49725D01*
X58813Y49642D01*
X58788Y49555D01*
X58746Y49459D01*
X58692Y49364D01*
Y49359D01*
X58684Y49351D01*
X58675Y49339D01*
X58663Y49322D01*
X58621Y49276D01*
X58567Y49218D01*
X58501Y49156D01*
X58418Y49093D01*
X58322Y49031D01*
X58210Y48977D01*
X58205D01*
X58197Y48972D01*
X58176Y48964D01*
X58156Y48956D01*
X58126Y48948D01*
X58089Y48935D01*
X58047Y48923D01*
X58002Y48910D01*
X57952Y48898D01*
X57898Y48885D01*
X57781Y48864D01*
X57648Y48848D01*
X57507Y48844D01*
X57436D01*
X57398Y48848D01*
X57353Y48852D01*
X57307Y48856D01*
X57253Y48860D01*
X57136Y48877D01*
X57007Y48902D01*
X56878Y48939D01*
X56754Y48985D01*
X56749D01*
X56741Y48993D01*
X56720Y48998D01*
X56700Y49010D01*
X56675Y49027D01*
X56641Y49043D01*
X56571Y49085D01*
X56487Y49143D01*
X56404Y49214D01*
X56325Y49293D01*
X56254Y49389D01*
X56250Y49393D01*
X56246Y49401D01*
X56238Y49413D01*
X56225Y49434D01*
X56213Y49459D01*
X56196Y49488D01*
X56184Y49526D01*
X56163Y49563D01*
X56130Y49651D01*
X56100Y49755D01*
X56076Y49867D01*
X56063Y49992D01*
X56550Y50029D01*
Y50025D01*
X56554Y50012D01*
Y49996D01*
X56558Y49971D01*
X56566Y49938D01*
X56575Y49904D01*
X56600Y49825D01*
X56633Y49738D01*
X56683Y49646D01*
X56741Y49559D01*
X56779Y49522D01*
X56820Y49484D01*
X56824Y49480D01*
X56828Y49476D01*
X56845Y49468D01*
X56862Y49455D01*
X56887Y49443D01*
X56916Y49426D01*
X56949Y49409D01*
X56987Y49389D01*
X57032Y49372D01*
X57082Y49355D01*
X57136Y49339D01*
X57195Y49326D01*
X57261Y49314D01*
X57332Y49305D01*
X57407Y49297D01*
X57527D01*
X57561Y49301D01*
X57598D01*
X57640Y49305D01*
X57690Y49310D01*
X57740Y49318D01*
X57852Y49339D01*
X57960Y49368D01*
X58064Y49409D01*
X58114Y49439D01*
X58156Y49468D01*
X58160D01*
X58164Y49476D01*
X58189Y49497D01*
X58222Y49534D01*
X58259Y49584D01*
X58297Y49642D01*
X58330Y49713D01*
X58355Y49788D01*
X58359Y49830D01*
X58363Y49875D01*
Y49879D01*
Y49884D01*
X58359Y49909D01*
X58355Y49946D01*
X58347Y49992D01*
X58326Y50046D01*
X58301Y50104D01*
X58268Y50158D01*
X58218Y50212D01*
X58210Y50216D01*
X58201Y50225D01*
X58185Y50237D01*
X58164Y50250D01*
X58139Y50262D01*
X58106Y50279D01*
X58068Y50300D01*
X58022Y50320D01*
X57968Y50341D01*
X57906Y50362D01*
X57835Y50387D01*
X57752Y50412D01*
X57665Y50437D01*
X57565Y50466D01*
X57452Y50491D01*
X57444D01*
X57423Y50495D01*
X57394Y50503D01*
X57353Y50516D01*
X57303Y50524D01*
X57244Y50541D01*
X57182Y50553D01*
X57116Y50574D01*
X56974Y50612D01*
X56833Y50649D01*
X56766Y50670D01*
X56708Y50691D01*
X56650Y50711D01*
X56604Y50732D01*
X56600D01*
X56587Y50740D01*
X56571Y50749D01*
X56550Y50761D01*
X56521Y50774D01*
X56487Y50795D01*
X56417Y50840D01*
X56333Y50894D01*
X56254Y50961D01*
X56175Y51040D01*
X56142Y51082D01*
X56109Y51123D01*
Y51127D01*
X56100Y51136D01*
X56092Y51148D01*
X56084Y51165D01*
X56071Y51186D01*
X56059Y51215D01*
X56026Y51281D01*
X55997Y51360D01*
X55971Y51452D01*
X55955Y51556D01*
X55947Y51668D01*
Y51672D01*
Y51681D01*
Y51697D01*
X55951Y51718D01*
Y51747D01*
X55955Y51776D01*
X55967Y51855D01*
X55988Y51943D01*
X56021Y52039D01*
X56067Y52138D01*
X56092Y52192D01*
X56125Y52242D01*
Y52246D01*
X56134Y52255D01*
X56142Y52267D01*
X56159Y52288D01*
X56196Y52334D01*
X56254Y52396D01*
X56325Y52463D01*
X56413Y52534D01*
X56512Y52600D01*
X56629Y52662D01*
X56633D01*
X56645Y52671D01*
X56662Y52675D01*
X56687Y52687D01*
X56716Y52696D01*
X56754Y52708D01*
X56795Y52725D01*
X56845Y52737D01*
X56895Y52750D01*
X56953Y52767D01*
X57078Y52787D01*
X57215Y52804D01*
X57365Y52812D01*
X57415D01*
X57452Y52808D01*
D02*
G37*
D10*
X59500Y38000D02*
G03*
X59500Y38000I-500J0D01*
G01*
Y2000D02*
G03*
X59500Y2000I-500J0D01*
G01*
X47721Y58921D02*
G03*
X47721Y58921I-500J0D01*
G01*
X106220Y40433D02*
Y69567D01*
X60945Y40433D02*
Y69567D01*
Y40433D02*
X106220D01*
X60945Y69567D02*
X106220D01*
Y4433D02*
Y33567D01*
X60945Y4433D02*
Y33567D01*
Y4433D02*
X106220D01*
X60945Y33567D02*
X106220D01*
X0Y17512D02*
X45276D01*
X0Y56488D02*
X45276D01*
Y17512D02*
Y56488D01*
X0Y17512D02*
Y56488D01*
M02*
